<svg width="1164" height="880" viewBox="0 0 1164 880" fill="none" xmlns="http://www.w3.org/2000/svg">
<path d="M1154 33H10C4.47715 33 0 37.8555 0 43.8451V869.155C0 875.144 4.47715 880 10 880H1154C1159.52 880 1164 875.144 1164 869.155V43.8451C1164 37.8555 1159.52 33 1154 33Z" fill="#F2F6FB"/>
<path d="M0 20.0044C0 8.95627 8.94834 0 20.0043 0H1144C1155.04 0 1164 8.95709 1164 20.0044V44H0V20.0044Z" fill="#D8DEED"/>
<path d="M29.5 32C34.7467 32 39 27.7467 39 22.5C39 17.2533 34.7467 13 29.5 13C24.2533 13 20 17.2533 20 22.5C20 27.7467 24.2533 32 29.5 32Z" fill="#FF5645"/>
<path d="M60.5 32C65.7467 32 70 27.7467 70 22.5C70 17.2533 65.7467 13 60.5 13C55.2533 13 51 17.2533 51 22.5C51 27.7467 55.2533 32 60.5 32Z" fill="#FFCB3D"/>
<path d="M92.5 32C97.7467 32 102 27.7467 102 22.5C102 17.2533 97.7467 13 92.5 13C87.2533 13 83 17.2533 83 22.5C83 27.7467 87.2533 32 92.5 32Z" fill="#3ABF7C"/>
<rect x="120" y="633" width="255" height="42" rx="20" fill="#F69A66"/>
<rect x="120" y="705" width="924" height="42" rx="20" fill="#E1E5F0"/>
<rect x="120" y="777" width="492" height="42" rx="20" fill="#E1E5F0"/>
<rect x="780" y="538" width="264" height="42" rx="20" fill="#E1E5F0"/>
<rect x="697" y="613" width="56" height="56" rx="16" fill="#E1E5F0"/>
<rect x="697" y="531" width="56" height="56" rx="16" fill="#E1E5F0"/>
<rect x="780" y="620" width="264" height="42" rx="20" fill="#E1E5F0"/>
<path d="M1074.04 156H89.961C78.9368 156 70 164.954 70 176V468C70 479.046 78.9368 488 89.961 488H1074.04C1085.06 488 1094 479.046 1094 468V176C1094 164.954 1085.06 156 1074.04 156Z" fill="#E1E5F0"/>
<mask id="mask0" mask-type="alpha" maskUnits="userSpaceOnUse" x="70" y="156" width="1024" height="332">
<path d="M1074.04 156H89.961C78.9368 156 70 164.954 70 176V468C70 479.046 78.9368 488 89.961 488H1074.04C1085.06 488 1094 479.046 1094 468V176C1094 164.954 1085.06 156 1074.04 156Z" fill="white"/>
</mask>
<g mask="url(#mask0)">
<mask id="mask1" mask-type="alpha" maskUnits="userSpaceOnUse" x="70" y="156" width="1025" height="498">
<path d="M1089.01 156H75.9883C72.6811 156 70 158.482 70 161.544V648.456C70 651.518 72.6811 654 75.9883 654H1089.01C1092.32 654 1095 651.518 1095 648.456V161.544C1095 158.482 1092.32 156 1089.01 156Z" fill="white"/>
</mask>
<g mask="url(#mask1)">
<path d="M1089.01 193.881H75.9883C72.6811 193.881 70 195.41 70 197.296V497.213C70 499.098 72.6811 500.627 75.9883 500.627H1089.01C1092.32 500.627 1095 499.098 1095 497.213V197.296C1095 195.41 1092.32 193.881 1089.01 193.881Z" fill="#E1E5F0"/>
<path d="M53.5459 705.221H1244.39V193.934C1216.41 272.488 1163.11 315.209 1105.71 315.209C1072.54 315.209 1038.02 300.959 1006.21 271.112C974.764 241.611 939.497 227.518 904.711 227.518C843.424 227.511 783.613 271.225 748.659 351.373C721.265 414.181 685.142 445.592 649.019 445.592C612.896 445.592 576.768 414.181 549.356 351.351C514.384 271.21 454.536 227.481 393.243 227.473C358.446 227.473 323.19 241.558 291.736 271.067C259.927 300.906 225.395 315.157 192.236 315.157C134.828 315.157 81.5237 272.443 53.5459 193.881V705.221Z" fill="#D8DEED"/>
</g>
</g>
<mask id="mask2" mask-type="alpha" maskUnits="userSpaceOnUse" x="120" y="327" width="256" height="256">
<path d="M248 583C318.692 583 376 525.692 376 455C376 384.308 318.692 327 248 327C177.308 327 120 384.308 120 455C120 525.692 177.308 583 248 583Z" fill="white"/>
</mask>
<g mask="url(#mask2)">
<path d="M248 583C318.692 583 376 525.692 376 455C376 384.308 318.692 327 248 327C177.308 327 120 384.308 120 455C120 525.692 177.308 583 248 583Z" fill="#F69A66"/>
<path d="M356.191 620.411L311.357 620.146L310.436 567.36L346.068 562.455L348.731 574.072" fill="#BF865F"/>
<path d="M216.116 443.94C209.582 440.879 190.613 442.201 190.437 442.293C183.791 442.591 172.156 443.849 160.007 452.535C158.208 453.842 155.51 455.894 152.737 458.858C150.32 461.36 145.682 462.793 140.248 485.576C138.293 493.629 136.109 513.69 127.418 527.364C125.674 530.108 123.396 541.088 120.584 560.303C140.914 562.612 156.402 564.344 167.046 565.5C164.782 585.832 164.931 602.781 166.922 613.783C165.479 620.49 165.041 624.476 165.61 625.742C195.785 625.944 213.759 626.086 219.531 626.167C233.749 626.375 272.716 629.324 308.898 626.067C317.856 617.254 316.905 587.929 316.905 587.929C316.601 582.16 316.304 576.675 316.012 571.461C333.047 567.499 346.782 563.136 357.217 558.371C353.431 540.133 350.964 529.445 349.816 526.306C346.471 517.344 339.116 501.578 337.299 493.436C331.672 468.221 324.624 461.142 322.121 458.725C319.247 455.86 307.268 445.886 289.313 443.673C285.377 443.188 277.696 442.62 266.27 441.969C261.22 441.187 256.409 440.884 252.283 440.628C240.368 439.957 227.891 439.226 216.116 443.94Z" fill="#88807B"/>
<path fill-rule="evenodd" clip-rule="evenodd" d="M216.19 443.99C225.199 463.066 229.948 480.922 230.436 497.558C230.924 514.194 230.924 542.785 230.436 583.332L284.478 583.001C284.029 545.936 282.81 517.455 280.82 497.558C278.83 477.661 272.049 458.854 260.476 441.136C246.45 439.828 236.437 439.559 230.436 440.331C224.434 441.102 219.686 442.322 216.19 443.99Z" fill="white"/>
<path d="M226.203 415.07L224.701 445.002C224.689 445.666 224.951 446.335 225.492 446.63C227.834 448.189 231.175 449.955 235.348 450.977C242.877 452.912 249.368 451.697 253.031 450.622C253.763 450.445 254.323 449.695 254.336 448.936L255.018 431.292C259.764 433.152 259.501 432.97 259.966 433.134C265.679 434.691 270.601 434.595 271.515 434.429C274.799 434.213 278.308 431.54 281.486 426.949C285.785 420.828 289.688 411.238 291.894 399.704C292.287 398.071 292.406 396.433 292.526 394.795L293.175 378.496C293.33 374.854 292.481 371.286 290.809 367.886C290.106 366.415 289.398 365.219 288.504 364.201C283.13 357.052 275.195 354.465 268.785 353.638C265.374 353.141 262.259 353.107 260.014 353.31C259.193 353.387 256.272 353.7 252.077 353.9C249.797 354.043 247.975 354.011 246.88 354.083C233.298 354.393 227.953 352.659 221.057 356.184C219.771 356.799 216.827 358.388 214.221 361.531C206.868 370.424 208.395 382.113 208.79 385.583C210.248 395.995 216.149 402.477 217.925 405.15C220.044 408.397 223.645 412.384 226.203 415.07Z" fill="#DB9E75"/>
<path d="M181.39 573.432C181.197 574.161 181.633 574.909 182.362 575.102C183.092 575.295 183.84 574.859 184.033 574.13C187.19 562.177 197.297 525.967 199.454 519.259C199.686 518.541 199.29 517.771 198.572 517.54C197.854 517.309 197.084 517.704 196.853 518.422C194.675 525.19 184.559 561.433 181.39 573.432ZM320.719 575.466C320.929 576.191 321.688 576.607 322.412 576.397C323.137 576.186 323.554 575.428 323.343 574.703C319.893 562.831 309.907 526.588 308.302 519.727C308.13 518.993 307.395 518.536 306.66 518.708C305.925 518.88 305.469 519.615 305.641 520.35C307.26 527.273 317.256 563.549 320.719 575.466ZM255.179 431.35L242.737 426.095L254.472 445.892L255.179 431.35ZM282.501 396.072C282.565 397.622 282.794 400.177 283.689 401.104C285.213 402.497 287.297 397.978 286.162 395.134C285.727 393.941 285.093 393.748 284.362 393.826C283.266 393.99 282.52 394.979 282.501 396.072ZM266.2 395.514C266.082 397.061 266.038 399.611 266.93 400.72C268.269 402.293 270.896 397.965 270.036 395.034C269.692 393.844 269.059 393.559 268.331 393.547C267.237 393.528 266.311 394.423 266.2 395.514ZM273.342 414.409C274.248 414.698 277.147 415.66 278.173 414.311C278.638 413.772 279.308 411.962 279.308 411.962C279.308 411.962 276.935 412.194 274.023 411.961C272.385 411.841 271.298 411.457 270.923 412.089C270.828 412.269 270.915 412.544 270.911 412.726C271.167 413.733 272.708 414.216 273.342 414.409ZM281.046 405.852L279.857 396.144L279.95 390.834C279.959 390.331 279.558 389.916 279.055 389.907C278.552 389.898 278.137 390.299 278.128 390.802L278.034 396.176L278.041 396.303L279.24 406.097C279.243 406.114 279.158 406.217 279.156 406.221L278.861 406.239C277.365 406.328 276.448 406.354 274.85 406.326C274.347 406.317 273.932 406.718 273.923 407.221C273.915 407.724 274.315 408.139 274.818 408.147C276.468 408.176 277.43 408.149 278.969 408.058C279.116 408.049 279.116 408.049 279.344 408.032C280.385 407.877 281.199 406.882 281.046 405.852Z" fill="#482D1F"/>
<path d="M223.058 389.698C223.168 387.355 223.894 385.004 225.417 382.957C228.404 378.909 233.909 376.727 238.256 378.261C240.701 379.123 242.307 381.065 242.486 381.25C243.181 382.158 243.716 383.077 244.126 383.926C257.84 377.696 268.519 374.372 276.16 373.955C282.004 373.636 287.685 374.929 293.204 377.834C293.253 374.387 292.408 371.01 290.822 367.784C290.119 366.314 289.411 365.117 288.517 364.099C283.143 356.95 275.208 354.364 268.798 353.537C265.387 353.039 262.271 353.006 260.027 353.209C259.206 353.286 256.285 353.599 252.09 353.799C249.809 353.942 247.988 353.91 246.893 353.982C233.311 354.291 227.965 352.558 221.07 356.082C219.784 356.698 216.84 358.286 214.234 361.43C206.881 370.322 208.408 382.012 208.803 385.481C209.12 387.742 209.646 389.817 210.293 391.709C214.084 391.248 218.339 390.578 223.058 389.698ZM289.719 389.729C290.633 389.562 290.927 388.383 290.3 387.734C289.493 386.991 288.049 386.237 286.227 386.205C282.492 386.14 278.441 388.529 282.612 389.696C285.059 390.467 287.98 390.154 289.719 389.729ZM270.943 390.039C271.858 389.872 272.151 388.693 271.434 388.043C270.627 387.3 269.182 386.546 267.269 386.512C263.535 386.447 259.482 388.927 263.655 390.003C266.282 390.869 269.115 390.371 270.943 390.039Z" fill="#482D1F"/>
<path d="M223.317 387.89C222.854 390.552 223.284 393.466 224.454 395.824C225.875 398.794 227.92 400.436 230.576 401.719C231.029 401.937 231.219 402.482 231 402.935C230.781 403.388 230.237 403.578 229.784 403.359C228.616 402.796 227.691 402.255 226.623 401.398C225.051 400.135 223.745 398.563 222.817 396.622C221.48 393.93 220.992 390.623 221.522 387.577C221.609 387.082 222.081 386.75 222.576 386.836C223.072 386.923 223.404 387.394 223.317 387.89Z" fill="#482D1F"/>
</g>
<rect y="44" width="1164" height="52" fill="white"/>
<rect x="70" y="54" width="32" height="32" rx="10" fill="#508BFF"/>
<rect x="122" y="54" width="265" height="32" rx="10" fill="#F2F6FB"/>
</svg>
