<svg width="446" height="307" viewBox="0 0 446 307" fill="none" xmlns="http://www.w3.org/2000/svg">
<mask id="mask0" mask-type="alpha" maskUnits="userSpaceOnUse" x="241" y="0" width="205" height="205">
<path d="M343.17 204.771C399.597 204.771 445.34 158.932 445.34 102.386C445.34 45.8396 399.597 0 343.17 0C286.743 0 241 45.8396 241 102.386C241 158.932 286.743 204.771 343.17 204.771Z" fill="white"/>
</mask>
<g mask="url(#mask0)">
<path d="M343.17 204.771C399.597 204.771 445.34 158.932 445.34 102.386C445.34 45.8396 399.597 0 343.17 0C286.743 0 241 45.8396 241 102.386C241 158.932 286.743 204.771 343.17 204.771Z" fill="#F2F6FB"/>
<path d="M324.214 96.4383L339.636 91.8402C362.06 88.5154 381.796 98.0653 387.456 118.721L412.152 223.132L412.356 223.996H378.743H320.049L298.324 150.625C292.594 129.898 303.841 102.239 324.214 96.4383Z" fill="#88807B"/>
<path d="M312.115 103.82C312.115 103.82 310.771 109.196 317.916 107.71C325.06 106.225 327.112 105.517 327.112 105.517L325.273 100.636L312.115 103.82Z" fill="#482D1F"/>
<path d="M392.76 214.174C398.278 203.563 404.102 177.773 410.233 136.803L371.825 139.413C367.72 154.827 365.667 162.534 365.667 162.534L351.236 93.9873C347.699 87.6207 340.484 91.2992 332.844 98.0902C332.419 98.5146 323.435 93.8458 323.294 93.9873C328.529 124.122 326.265 156.026 331.5 186.161C334.683 203.098 340.5 216.297 348.95 225.758C351.648 228.779 355.181 230.934 359.101 231.951C373.444 235.67 384.664 229.744 392.76 214.174Z" fill="#DB9E75"/>
<path d="M365.951 162.604L372.954 186.232" stroke="#482D1F" stroke-width="2.12219" stroke-linecap="round" stroke-linejoin="round"/>
<path d="M349.752 102.193C349.469 102.335 349.044 102.476 348.691 102.405L330.228 102.901L317.282 103.183C312.896 104.952 303.7 107.923 302.71 101.627C302.71 101.627 314.877 96.6047 323.437 92.9262L324.073 92.3603C324.639 91.8651 325.134 91.5822 325.842 91.37C325.983 91.2992 326.125 91.2992 326.266 91.2992L329.662 90.804L337.019 89.7429L341.829 89.0355L345.366 88.5404C348.62 88.0452 351.52 90.6626 351.45 93.9166L351.379 98.2317C351.874 99.788 351.167 101.627 349.752 102.193Z" fill="#DB9E75"/>
<path d="M412.832 125.846C412.068 142.012 409.002 147.71 393.487 146.79C385.495 146.33 370.568 150.529 365.69 144.681C363.457 141.986 349.333 92.4545 364.848 93.3745C380.48 94.2288 413.596 109.615 412.832 125.846Z" fill="#88807B"/>
<path d="M332.139 100.345C332.139 100.345 334.397 105.406 327.102 105.184C319.808 104.961 317.665 104.621 317.665 104.621L318.629 99.4946L332.139 100.345Z" fill="#482D1F"/>
<path d="M280.888 220.601C272.992 214.978 274.48 190.614 285.353 147.51C287.631 136.439 290.349 135.653 293.509 145.152C298.248 159.401 292.229 163.537 292.229 163.537L297.83 94.3726C300.208 87.4885 304.66 89.0114 313.363 94.3726C313.854 94.7169 321.891 88.5589 322.055 88.6737C322.133 119.26 329.902 150.286 329.98 180.872C329.832 194.002 329.18 204.724 328.024 213.038V213.038C326.954 220.735 321.163 226.928 313.556 228.512C302.434 230.828 291.545 228.191 280.888 220.601Z" fill="#DB9E75"/>
<path d="M291.962 163.656L289.168 188.14" stroke="#482D1F" stroke-width="2.12219" stroke-linecap="round" stroke-linejoin="round"/>
<path d="M298.669 105.336C298.972 105.426 299.415 105.491 299.751 105.36L318.02 102.642L330.817 100.673C335.444 101.653 345.016 102.982 344.898 96.6096C344.898 96.6096 332.044 93.7762 322.975 91.64L322.25 91.1932C321.607 90.8038 321.07 90.6112 320.337 90.525C320.185 90.4799 320.046 90.5045 319.906 90.529L316.476 90.631L309.047 90.8635L304.187 91.0022L300.618 91.1287C297.327 91.2061 294.925 94.2874 295.56 97.4797L296.379 101.717C296.162 103.336 297.178 105.024 298.669 105.336Z" fill="#DB9E75"/>
<path d="M319.342 94.1159C312.048 93.8936 308.685 90.3522 309.317 90.694L329.709 90.694C327.66 93.1234 324.205 94.2641 319.342 94.1159Z" fill="#482D1F"/>
<path d="M293.45 149.22C289.168 149.22 281.674 147.622 279.087 145.296C276.356 142.85 279.22 107.616 297.113 103.168L293.45 149.22Z" fill="#88807B"/>
<path d="M368.803 57.0725C376.918 65.3254 384.654 77.7245 381.366 83.4347C379.015 87.5648 374.051 88.8712 368.882 90.1227C364.023 91.3108 354.525 92.8669 342.131 89.1064C338.601 87.7944 334.952 86.3775 331.441 84.9971" fill="#482D1F"/>
<path d="M304.171 54.7662C297.103 58.7312 289.372 65.4477 290.428 69.9784C291.181 73.1827 294.272 75.0364 297.433 76.9085C300.406 78.6573 306.481 81.6766 315.558 81.692C318.238 81.5312 320.867 81.2837 323.565 81.0545" fill="#482D1F"/>
<path d="M350.915 74.9086C348.972 76.1457 346.976 76.4896 345.636 76.57C344.811 76.6419 344.1 77.1104 343.78 77.7571L340.486 89.7706C340.486 89.7706 338.243 89.6755 337.778 89.7706C336.52 90.0926 333.471 90.8135 326.835 91.5255C320.473 92.3108 320.869 92.1973 320.423 92.2241C315.807 92.2323 312.135 91.1753 311.47 90.9239C305.841 88.976 301.946 76.7273 302.985 60.8209C303.042 59.5178 303.303 58.2696 303.496 57.003L306.226 44.6256C306.822 41.8558 308.101 39.2691 310.04 37.2254C310.861 36.347 311.664 35.5368 312.481 34.95C322.045 27.4063 334.753 31.91 337.003 32.8058C337.276 32.879 337.531 33.0206 337.805 33.0938C340.236 34.4045 342.505 35.232 344.983 35.8228C346.076 36.1157 346.726 37.242 346.502 38.3536L342.156 55.9374C341.785 57.5956 343.461 58.9966 345.033 58.3195C345.033 58.3195 345.102 58.3378 345.12 58.2695C345.362 58.1878 347.071 57.5473 348.953 57.905C352.306 58.5105 355.027 62.0224 355.359 65.7001C355.756 69.6878 353.674 73.0846 350.915 74.9086Z" fill="#DB9E75"/>
<path d="M306.057 60.2225C306.14 59.3659 305.621 58.5679 304.801 58.3482C304.255 58.2017 303.703 58.3468 303.242 59.2485C302.178 61.3069 303.454 65.0176 304.671 64.0257C305.574 63.3889 305.882 61.4207 306.057 60.2225Z" fill="#482D1F"/>
<path d="M318.319 61.2679C318.402 60.4113 317.884 59.6133 317.064 59.3936C316.517 59.2471 315.966 59.3923 315.505 60.2939C314.44 62.3523 315.716 66.063 316.934 65.0711C317.855 64.3659 318.231 62.4161 318.319 61.2679Z" fill="#482D1F"/>
<path d="M311.204 74.1544C311.719 74.1459 312.991 74.0472 313.397 73.3505C313.434 73.2138 313.557 73.0271 313.525 72.8722C313.362 72.389 312.418 72.3559 311.152 72.163C308.91 71.7821 307.189 71.1011 307.189 71.1011C307.189 71.1011 307.369 72.6142 307.619 73.0474C308.01 74.3237 310.398 74.158 311.204 74.1544Z" fill="#482D1F"/>
<path d="M301.905 54.4994C301.213 54.2968 301.005 53.4265 301.541 52.9764C302.225 52.4681 303.344 51.8559 304.759 51.9087C307.661 52.0205 310.684 53.9893 307.497 54.7046C305.462 55.2367 303.226 54.828 301.905 54.4994Z" fill="#482D1F"/>
<path d="M369.489 47.9551C368.13 45.101 366.205 43.2668 365.376 42.5322C360.81 38.5259 356.413 38.8123 346.082 35.8244C343.964 35.2568 340.789 34.2596 337.004 32.806C336.712 32.8011 336.457 32.6596 336.184 32.5863C333.934 31.6905 321.613 27.6567 312.531 35.0369C312.495 35.1736 311.04 35.9556 311.14 36.1288C311.14 36.1288 311.154 36.3521 311.285 36.6804C311.254 36.5254 311.24 36.3021 311.209 36.1472C312.429 37.06 313.812 38.456 315.566 39.292C320.502 41.6401 325.163 42.0102 328.048 41.9043C328.429 43.7639 329.027 45.9017 329.986 48.0628C332.726 54.5093 337.069 58.529 339.951 60.6194C339.128 62.5961 338.305 64.5727 337.501 66.481C337.843 66.5726 338.116 66.6458 338.476 66.669C338.476 66.669 344.004 66.5389 345.194 69.2015C345.458 69.858 345.43 70.5096 345.32 70.9195C344.42 76.464 339.031 82.6365 340.132 84.5426C341.245 86.6719 350.607 85.0791 358.209 79.9391C360.275 78.5153 365.848 74.6624 369.047 67.0975C369.879 64.5376 373.403 56.0344 369.489 47.9551Z" fill="#482D1F"/>
<path d="M315.753 55.9287C315.107 55.6089 315.053 54.7157 315.728 54.3839C316.489 54.0021 317.697 53.5934 319.151 53.9095C321.989 54.5235 324.606 57.0557 321.361 57.1384C319.197 57.2907 317.065 56.4998 315.753 55.9287Z" fill="#482D1F"/>
<path d="M334.833 67.9623L339.876 60.8917C339.876 60.8917 341.419 58.9614 344.131 57.8574C344.373 57.7757 346.083 57.1352 347.964 57.4929C351.317 58.0984 354.038 61.6104 354.371 65.2881C354.804 69.139 352.74 72.4675 350.049 74.3098C347.359 76.1521 344.461 76.0347 343.517 76.0016L339.983 74.9813" fill="#DB9E75"/>
<path d="M311.08 56.0327L310.136 60.1007L307.357 67.1923C307.247 67.6023 307.411 68.0855 307.803 68.2636C308.672 68.57 309.492 68.7897 311.064 69.2108" stroke="#482D1F" stroke-width="1.41479" stroke-linecap="round" stroke-linejoin="round"/>
<path d="M349.75 84.9958L349.156 90.7685L340.627 89.8013C339.41 89.6951 338.623 88.5322 338.798 87.3339L339.252 84.8192L341.235 80.1509L349.75 84.9958Z" fill="#482D1F"/>
</g>
<mask id="mask1" mask-type="alpha" maskUnits="userSpaceOnUse" x="0" y="102" width="205" height="205">
<path d="M102.171 306.771C45.7436 306.771 0.000427246 260.932 0.000427246 204.386C0.000427246 147.84 45.7436 102 102.171 102C158.598 102 204.341 147.84 204.341 204.386C204.341 260.932 158.598 306.771 102.171 306.771Z" fill="white"/>
</mask>
<g mask="url(#mask1)">
<path d="M102.171 306.771C45.7436 306.771 0.000427246 260.932 0.000427246 204.386C0.000427246 147.84 45.7436 102 102.171 102C158.598 102 204.341 147.84 204.341 204.386C204.341 260.932 158.598 306.771 102.171 306.771Z" fill="#F2F6FB"/>
<path d="M154.565 273.301C154.613 276.476 154.654 279.752 154.654 283.067C154.654 283.067 156.066 297.257 149.646 303.196C148.939 303.884 148.105 304.384 147.399 304.821C145.922 305.696 144.638 306.071 144.638 306.071C144.638 306.071 144.574 306.134 144.509 306.134C134.237 308.885 125.826 308.072 121.396 308.197C107.143 308.509 95.586 308.447 85.5702 308.134C79.4708 307.947 53.5967 309.635 50.3223 304.884C50.2581 304.759 50.1939 304.634 50.1297 304.509C49.5519 303.196 49.1024 301.571 48.7814 299.633C48.7172 299.445 48.653 299.195 48.653 299.008C47.5921 292.698 47.4916 283.533 48.5689 272.554L17.7374 270.024C15.7192 269.858 14.1738 268.159 14.2005 266.134C14.338 255.736 14.9013 248.613 15.8903 244.765C20.463 226.975 29.2013 219.281 29.973 216.525C34.3605 200.613 38.7217 194.966 40.4852 193.263C42.5111 191.243 44.4615 189.865 45.7611 188.988C54.5315 183.17 63.727 182.431 68.4154 182.384C68.5449 182.323 68.6733 182.325 68.8016 182.327L91.5961 182.404C93.4511 182.357 93.8281 182.285 93.4626 182.706C96.2498 182.323 99.4363 181.939 102.905 181.608C108.066 181.686 112.749 181.967 116.954 182.451L136.124 182.721C136.252 182.721 136.381 182.721 136.509 182.785C141.196 182.914 150.377 183.813 159.045 189.784C160.329 190.682 162.255 192.095 164.245 194.149C165.979 195.883 170.241 201.605 174.35 217.592C175.073 220.36 183.676 228.206 187.938 246.073C188.859 249.937 189.298 257.069 189.254 267.468C189.246 269.493 187.671 271.166 185.65 271.296L154.565 273.301H154.565Z" fill="#474961"/>
<path d="M44.4796 304.375L45.6995 303.733L67.0151 292.369C67.0151 292.369 118.699 280.311 148.426 274.79C153.562 271.13 184.123 271.952 184.958 271.118C187.076 291.534 189.771 311.918 163.974 311.918L34.528 309.704L44.4796 304.375Z" fill="#F2A98A"/>
<path d="M64.833 252.819C66.1171 248.646 72.2806 229.449 73.7573 225.468" stroke="#482D1F" stroke-width="1.92612" stroke-linecap="round" stroke-linejoin="round"/>
<path d="M140.034 225.468L148.882 272.831" stroke="#482D1F" stroke-width="1.92612" stroke-linecap="round" stroke-linejoin="round"/>
<path d="M97.4238 159.255L112.406 165.181L112.534 168.327V168.391L112.149 185.855C112.149 186.368 111.764 186.882 111.25 187.01C108.682 187.781 104.124 188.68 98.7948 187.46C95.8414 186.818 93.4658 185.662 91.7965 184.635C91.4113 184.442 91.2187 183.993 91.2187 183.543L91.9028 163.46C90.068 161.599 87.4857 158.837 85.954 156.578C84.6699 154.716 80.4325 150.222 79.2768 142.902C78.9558 140.463 77.7359 132.244 82.808 125.888C84.6057 123.641 86.6602 122.485 87.5591 122.036C92.3744 119.468 96.1624 120.624 105.729 120.238C106.499 120.174 107.783 120.174 109.388 120.046C112.342 119.853 114.396 119.596 114.974 119.532C119.725 119.018 130.062 119.917 135.006 126.787C135.263 127.237 135.584 127.686 135.905 128.071C134.62 128.649 133.144 129.548 131.475 129.933C126.723 130.96 122.614 130.254 120.046 129.548C115.488 134.427 110.929 139.307 106.371 144.122C103.94 147.526 100.158 154.241 97.4238 159.255Z" fill="#F2A98A"/>
<path d="M113.437 172.501L103.357 170.639L112.089 181.297L113.437 172.501Z" fill="#482D1F"/>
<path d="M138.603 136.996L138.346 148.488C138.282 149.644 138.218 150.8 137.961 151.955C136.549 160.109 133.916 166.915 130.963 171.281C128.78 174.555 126.34 176.481 124.029 176.674C123.387 176.802 119.92 176.931 115.875 175.903C115.49 175.775 115.811 175.967 110.353 173.913C108.235 173.142 106.565 172.5 105.281 171.923C102.97 170.96 101.75 170.318 101.108 169.932C100.659 169.74 100.53 169.611 100.53 169.611C97.5126 163.833 94.9444 158.568 92.7615 153.946C91.4774 151.185 90.1291 148.424 90.8354 145.021C91.0922 143.673 91.7984 140.334 94.7518 138.601C97.641 136.932 100.851 137.766 101.75 138.023C102.97 138.344 103.933 138.858 104.511 139.243L104.447 122.807C104.447 121.779 105.281 120.881 106.309 120.881C108.556 120.816 110.803 120.624 113.178 119.982C113.435 119.918 113.692 119.918 113.949 119.853C116.132 119.532 128.33 118.248 135.136 126.98C135.778 127.686 136.292 128.521 136.805 129.548C138.025 131.924 138.667 134.428 138.603 136.996Z" fill="#F2A98A"/>
<path d="M135.906 128.071C134.622 128.649 133.145 129.547 131.411 129.933C126.596 130.96 122.359 130.254 119.791 129.547C115.168 134.427 108.876 140.911 104.189 145.791C95.4573 146.176 88.3949 144.892 79.6632 145.277C79.6632 145.277 78.8285 144.378 78.3791 143.03C77.7371 141.104 76.3888 132.822 81.9745 126.016C83.7722 123.769 85.891 122.613 86.7898 122.164C91.6693 119.596 95.5215 120.751 105.281 120.366C106.051 120.302 107.335 120.302 109.004 120.174C112.022 119.981 114.076 119.724 114.718 119.66C119.534 119.146 130.063 120.045 135.071 126.915C135.264 127.236 135.585 127.685 135.906 128.071Z" fill="#482D1F"/>
<path d="M105.859 152.212L105.025 143.994C105.025 143.994 104.639 141.683 102.906 139.5C102.778 139.371 101.622 138.023 99.8884 137.445C96.8066 136.418 92.9544 138.023 90.8999 140.912C88.7811 143.866 88.9738 147.654 90.3863 150.479C91.7987 153.304 94.2385 154.459 95.0731 154.845L98.4759 155.551L105.859 152.212Z" fill="#F2A98A"/>
<path d="M133.52 146.619C133.52 145.849 134.033 145.143 134.804 145.014C135.318 144.95 135.767 145.078 136.088 145.913C136.923 147.903 135.51 151.114 134.419 150.151C133.777 149.509 133.584 147.711 133.52 146.619Z" fill="#482D1F"/>
<path d="M122.027 146.492C122.092 145.721 122.734 145.079 123.504 145.079C124.018 145.079 124.467 145.272 124.724 146.106C125.366 148.161 123.568 151.243 122.605 150.151C121.963 149.381 121.963 147.583 122.027 146.492Z" fill="#482D1F"/>
<path d="M125.121 162.485C124.672 162.356 123.58 162.035 123.388 161.329C123.388 161.201 123.323 161.008 123.388 160.88C123.644 160.43 124.415 160.687 125.571 160.751C127.625 160.88 129.294 160.687 129.294 160.687C129.294 160.687 128.845 161.971 128.524 162.356C127.818 163.32 125.763 162.677 125.121 162.485Z" fill="#482D1F"/>
<path d="M136.623 143.44C137.265 143.311 137.457 142.477 137.008 142.027C136.43 141.514 135.403 141 134.119 141C131.486 141 128.662 142.734 131.615 143.504C133.348 144.018 135.403 143.697 136.623 143.44Z" fill="#482D1F"/>
<path d="M123.396 143.889C124.038 143.761 124.23 142.926 123.717 142.477C123.139 141.963 122.112 141.45 120.763 141.45C118.131 141.45 115.306 143.247 118.259 143.954C120.121 144.467 122.112 144.146 123.396 143.889Z" fill="#482D1F"/>
<path d="M128.845 145.728V149.516L129.808 156.385C129.872 156.771 129.551 157.156 129.166 157.22C128.331 157.284 127.561 157.348 126.084 157.348" stroke="#482D1F" stroke-width="1.28408" stroke-linecap="round" stroke-linejoin="round"/>
<path d="M88.9087 144.314C88.5876 146.369 88.9729 148.552 89.8717 150.285C91.2842 153.11 93.7239 154.266 94.5586 154.651" stroke="#482D1F" stroke-width="1.28408" stroke-linecap="round" stroke-linejoin="round"/>
<path d="M82.0653 237.957C87.6072 215.08 91.3368 201.52 93.2539 197.279C95.1482 193.088 95.422 196.153 96.7515 197.895C97.4404 198.798 97.1616 196.57 98.2328 196.759C100.325 197.128 101.557 198.542 101.929 201.002C103.782 202.077 104.563 203.441 104.271 205.096C104.06 206.296 105.735 208.78 102.206 223.526C100.952 228.765 104.28 235.928 102.991 241.54L103.045 241.549C99.868 253.486 89.4635 271.825 71.8312 296.566C45.3827 333.678 22.9079 314.237 16.8716 310.064C12.8475 307.282 12.8475 293.872 16.8716 269.834L46.0902 272.273L82.0653 237.957Z" fill="#F2A98A"/>
<path d="M45.6392 272.273L39.3154 276.018" stroke="#482D1F" stroke-width="1.92612" stroke-linecap="round" stroke-linejoin="round"/>
<path d="M77.1618 288.91L61.1108 308.813" stroke="#482D1F" stroke-width="1.92612" stroke-linecap="round" stroke-linejoin="round"/>
</g>
</svg>
