<svg width="32" height="32" viewBox="0 0 32 32" fill="none" xmlns="http://www.w3.org/2000/svg">
<path d="M15.9998 2.66663C11.8532 2.66663 8.15338 4.55282 5.71338 7.51949L9.57926 14.22C10.3659 11.4067 12.9398 9.33329 15.9998 9.33329H27.5402C25.2402 5.34663 20.9332 2.66663 15.9998 2.66663ZM4.45296 9.3398C3.31296 11.2998 2.6665 13.5733 2.6665 16C2.6665 22.6133 7.47281 28.1004 13.7928 29.1471L17.6665 22.4466C17.1332 22.5866 16.5732 22.6666 15.9998 22.6666C13.5398 22.6666 11.3862 21.3201 10.2329 19.3268L10.2264 19.3333L4.45296 9.3398ZM15.9998 11.3333C15.387 11.3333 14.7802 11.454 14.214 11.6885C13.6478 11.923 13.1333 12.2668 12.7 12.7001C12.2667 13.1335 11.9229 13.6479 11.6884 14.2141C11.4539 14.7803 11.3332 15.3871 11.3332 16C11.3332 16.6128 11.4539 17.2196 11.6884 17.7858C11.9229 18.352 12.2667 18.8664 12.7 19.2998C13.1333 19.7331 13.6478 20.0769 14.214 20.3114C14.7802 20.5459 15.387 20.6666 15.9998 20.6666C16.6127 20.6666 17.2195 20.5459 17.7857 20.3114C18.3519 20.0769 18.8663 19.7331 19.2997 19.2998C19.733 18.8664 20.0768 18.352 20.3113 17.7858C20.5458 17.2196 20.6665 16.6128 20.6665 16C20.6665 15.3871 20.5458 14.7803 20.3113 14.2141C20.0768 13.6479 19.733 13.1335 19.2997 12.7001C18.8663 12.2668 18.3519 11.923 17.7857 11.6885C17.2195 11.454 16.6127 11.3333 15.9998 11.3333ZM20.7537 11.3333C21.9337 12.54 22.6665 14.1866 22.6665 16C22.6665 17.2133 22.3334 18.3468 21.7668 19.3268L21.7733 19.3333L15.9998 29.3333C23.3665 29.3333 29.3332 23.3666 29.3332 16C29.3332 14.36 29.0333 12.7866 28.4933 11.3333H20.7537Z" fill="white"/>
</svg>
