<svg width="1164" height="880" viewBox="0 0 1164 880" fill="none" xmlns="http://www.w3.org/2000/svg">
<g clip-path="url(#clip0_1101_3735)">
<path d="M1154 33H10C4.47715 33 0 37.8555 0 43.8451V869.155C0 875.144 4.47715 880 10 880H1154C1159.52 880 1164 875.144 1164 869.155V43.8451C1164 37.8555 1159.52 33 1154 33Z" fill="white"/>
<path d="M1082 137L82.0001 137C75.3727 137 70.0001 142.373 70.0001 149L70 281C70 287.627 75.1236 293 81.751 293H1082.12C1088.74 293 1094 287.627 1094 281V149C1094 142.373 1088.63 137 1082 137Z" fill="#F2F6FB"/>
<rect x="239" y="181" width="232" height="14" rx="7" fill="#E1E5F0"/>
<rect x="239" y="210" width="341" height="14" rx="7" fill="#E1E5F0"/>
<rect x="239" y="239" width="388" height="14" rx="7" fill="#E1E5F0"/>
<g clip-path="url(#clip1_1101_3735)">
<path d="M106 215C106 243.167 128.834 266 157 266C185.167 266 208 243.167 208 215C208 186.833 185.167 164 157 164C128.834 164 106 186.833 106 215Z" fill="#EEDDD4"/>
<path d="M134.933 219.2C132.131 218.82 129.186 218.96 126.243 219.698C114.532 222.588 107.273 233.786 110.01 244.701C111.349 250.037 114.847 254.314 119.442 256.941L116.629 295.012C116.23 301.023 117.901 306.723 121.11 311.288C121.562 311.941 122.058 312.586 122.546 313.186C123.087 313.822 123.673 314.449 124.251 315.032C124.881 315.65 125.556 316.26 126.267 316.816L174.858 307.327C175.128 306.578 175.399 305.83 175.607 305.002C175.833 304.262 176.006 303.487 176.134 302.72C176.271 301.998 176.354 301.24 176.437 300.482C176.456 300.34 176.474 300.197 176.493 300.054L180.507 253.527L189.924 252.743C190.745 252.675 191.399 251.991 191.339 251.215L191.13 248.011C191.119 247.868 191.086 247.732 191.034 247.607C192.369 246.39 193.541 245.014 194.465 243.512C195.803 241.351 196.677 238.955 196.956 236.351C198.086 226.025 189.314 216.938 177.387 216.115C172.586 215.784 167.995 216.831 164.149 218.874C162.18 218.007 160.098 217.451 157.94 217.275L147.601 216.281C142.971 216.492 138.674 217.492 134.933 219.2V219.2Z" fill="#474961"/>
<path opacity="0.176986" d="M181.456 253.727L190.773 252.95C191.591 252.883 192.242 252.197 192.184 251.418L191.976 248.204C191.965 248.061 191.932 247.925 191.881 247.799C193.212 246.579 194.38 245.199 195.302 243.693C196.636 241.525 197.508 239.122 197.787 236.511C198.917 226.153 190.177 217.034 178.291 216.203C173.48 215.867 168.88 216.929 165.033 218.999C175.466 223.546 182.792 236.889 181.9 248.564L181.456 253.727Z" fill="#444444"/>
<path d="M182.684 217.23C182.684 217.23 184.203 220.424 179.473 220.361C174.742 220.299 173.349 220.105 173.349 220.105L173.917 216.835L182.684 217.23Z" fill="#482D1F"/>
<path d="M165.186 211.758C165.34 211.768 165.493 211.777 165.645 211.783L165.174 211.807L165.186 211.758ZM151.841 206.884L150.631 206.65L147.058 217.041L156.5 218.093L155.885 261.271C155.885 261.271 154.56 258.423 152.556 253.211C152.514 253.234 152.47 253.256 152.425 253.276L128.834 263.59C128.735 263.633 128.633 263.665 128.531 263.687C130.068 266.968 131.798 270.937 133.618 275.037C138.324 285.617 139.729 290.676 145.219 297.208C151.49 304.654 155.815 304.041 157.632 304.335C161.711 305.068 165.458 304.104 167.709 303.061C170.411 301.819 175.389 299.696 178.23 290.807L177.408 300.331C177.39 300.473 177.371 300.616 177.353 300.759C177.27 301.517 177.186 302.275 177.05 302.998C176.922 303.765 176.749 304.54 176.523 305.28C176.315 306.109 176.044 306.858 175.774 307.606L170.061 308.723L244.102 294.35C244.31 294.309 244.487 294.202 244.615 294.053C255.44 284.224 260.413 277.364 259.532 273.474C255.708 273.634 250.257 273.892 243.177 274.25C238.778 274.473 234.435 275.335 230.285 276.808L217.234 281.442C206.546 280.18 192.296 278.562 188.802 278.487L189.813 253.085L181.422 253.784L180.195 268.02C179.332 251.616 175.499 235.097 174.408 218.684L179.123 217.869C182.106 218.445 188.271 219.188 188.119 215.091C188.119 215.091 179.828 213.419 173.977 212.151L173.506 211.872C173.088 211.629 172.741 211.511 172.269 211.464C172.171 211.437 172.082 211.455 171.993 211.472L169.791 211.578L169.483 211.593C170.2 211.489 170.692 211.374 170.867 211.321C174.541 210.325 177.552 202.641 177.575 192.388C177.595 191.55 177.482 190.737 177.414 189.916L176.207 181.851C175.946 180.047 175.242 178.33 174.094 176.931C173.608 176.33 173.131 175.774 172.636 175.361C166.863 170.09 158.567 172.407 157.094 172.88C156.917 172.915 156.748 172.994 156.571 173.029C154.964 173.76 153.482 174.189 151.877 174.456C151.167 174.595 150.704 175.288 150.799 176.011L152.812 187.49C152.977 188.57 147.164 187.573 147.155 187.528C144.174 186.071 142.985 197.293 144.621 198.597C145.807 199.478 148.853 200.459 149.704 200.571C150.227 200.655 150.66 200.987 150.836 201.417C150.974 203.738 151.309 205.561 151.841 206.884Z" fill="#DB9E75"/>
<path opacity="0.2" d="M189.271 254.189L180.812 254.876L176.719 300.965C176.701 301.107 176.682 301.248 176.663 301.389C176.578 302.14 176.494 302.891 176.355 303.606C176.225 304.365 176.051 305.133 175.822 305.866C175.611 306.687 175.338 307.428 175.064 308.169L169.304 309.27L243.955 295.092C244.164 295.053 244.343 294.946 244.473 294.799C255.395 285.074 260.414 278.285 259.53 274.432C255.675 274.587 250.18 274.839 243.043 275.189C238.608 275.406 234.23 276.256 230.044 277.712L216.884 282.291C206.111 281.033 191.748 279.42 188.226 279.343L189.271 254.189Z" fill="#8C2A00"/>
<path d="M134.273 187.414C129.248 192.248 124.829 198.783 126.524 202.214C127.866 204.99 131.048 205.988 134.284 207.022C136.895 207.845 141.641 208.983 147.995 208.194C147.996 208.198 147.996 208.203 147.997 208.208C149.523 208.145 151.005 208.09 152.532 208.027C153.313 207.969 153.927 207.3 153.823 206.539C153.283 204.988 152.743 203.437 152.203 201.885C151.844 201.129 151.432 200.165 151.09 199.113C150.339 199.08 148.649 198.93 147.142 197.754C145.487 196.463 144.304 194.254 144.756 191.823C145.136 189.498 147.05 187.385 149.242 187.148C150.472 187.004 151.547 187.487 151.7 187.55C152.818 188.091 153.827 188.931 154.386 189.443C156.341 188.228 159.281 185.872 161.316 181.937C161.794 181.049 162.303 179.771 162.844 178.105C167.517 178.247 171.227 177.275 173.973 175.189C173.062 174.07 171.803 173.14 170.196 172.402C167.785 171.293 167.516 171.155 164.706 170.929C162.948 170.787 159.765 171.245 157.553 171.904L157.47 171.92C154.961 172.677 152.867 173.17 151.474 173.437C144.67 174.88 141.844 174.503 138.717 176.849C138.149 177.279 136.824 178.361 135.818 180.116C134.392 182.597 134.124 185.206 134.273 187.414ZM177.987 194.835C177.47 201.143 176.097 203.692 176.327 203.648C176.557 203.603 177.217 203.799 181.591 201.627C183.76 200.568 185.795 199.534 186.424 197.529C187.309 194.693 182.109 190.183 177.723 187.347C178.242 189.97 178.193 192.032 177.987 194.835ZM177.174 182.649C177.606 182.474 177.681 181.908 177.305 181.659C176.83 181.382 176.069 181.068 175.161 181.196C173.302 181.461 171.49 182.912 173.589 183.153C174.935 183.354 176.347 182.945 177.174 182.649ZM168.625 184.711C169.057 184.536 169.132 183.97 168.711 183.729C168.237 183.452 167.475 183.139 166.523 183.276C164.663 183.54 162.86 185.035 164.951 185.232C166.386 185.416 167.753 185.016 168.625 184.711Z" fill="#482D1F"/>
<path d="M175.978 186.107C176.175 186.853 176.555 188.061 177.141 188.418C177.999 188.962 178.565 186.528 177.732 185.298C177.37 184.76 177.003 184.706 176.659 184.836C176.144 185.031 175.864 185.571 175.978 186.107ZM168.233 188.749C168.387 189.511 168.767 190.719 169.396 191.06C170.254 191.604 170.82 189.17 169.987 187.94C169.625 187.402 169.258 187.348 168.914 187.478C168.399 187.673 168.119 188.213 168.233 188.749Z" fill="#482D1F"/>
<path d="M155.698 260.793C155.734 260.418 155.458 260.085 155.083 260.049C154.708 260.014 154.376 260.289 154.34 260.664L152.848 276.485C152.813 276.86 153.088 277.193 153.463 277.228C153.838 277.264 154.171 276.989 154.206 276.613L155.698 260.793ZM123.976 258.998C123.98 259.079 123.999 259.161 124.034 259.239L125.446 262.437C125.932 263.55 127.232 264.044 128.347 263.557C128.692 263.407 128.85 263.005 128.699 262.659C128.548 262.314 128.146 262.156 127.801 262.307C127.37 262.495 126.877 262.307 126.695 261.889L125.48 259.139C125.587 259.053 125.669 258.934 125.709 258.791C125.809 258.428 125.596 258.052 125.233 257.951C123.142 257.37 121.124 256.46 119.327 255.288C119.012 255.082 118.589 255.171 118.384 255.486C118.178 255.802 118.267 256.225 118.583 256.431C120.24 257.512 122.07 258.383 123.976 258.998ZM150.379 247.65C150.388 247.679 150.399 247.708 150.411 247.737L151.823 250.935C152.012 251.366 151.825 251.859 151.409 252.04C151.064 252.191 150.906 252.593 151.057 252.939C151.208 253.284 151.61 253.442 151.955 253.291C153.067 252.805 153.56 251.504 153.072 250.386L151.659 247.186C151.604 247.062 151.517 246.962 151.412 246.892C151.813 246.153 152.1 245.517 152.32 244.886C152.517 244.319 152.663 243.749 152.799 243.045C152.891 242.565 152.944 242.245 153.126 241.079C153.185 240.707 152.93 240.357 152.558 240.299C152.186 240.24 151.837 240.494 151.779 240.867C151.599 242.015 151.548 242.329 151.46 242.786C151.336 243.429 151.205 243.937 151.032 244.436C150.799 245.104 150.476 245.79 149.981 246.656C149.794 246.984 149.908 247.4 150.235 247.588C150.282 247.614 150.33 247.635 150.379 247.65ZM161.188 210.997C162.988 211.433 164.372 212.557 166.998 212.312C169.146 212.403 170.773 211.482 171.578 210.861C171.48 210.834 171.391 210.852 171.301 210.869L169.099 210.975C168.072 211.175 166.389 211.319 164.365 211.158L161.188 210.997Z" fill="#482D1F"/>
<path d="M172.228 199.868C171.895 199.839 171.076 199.719 170.845 199.26C170.827 199.172 170.756 199.048 170.784 198.951C170.912 198.653 171.525 198.675 172.354 198.61C173.823 198.47 174.97 198.117 174.97 198.117C174.97 198.117 174.783 199.067 174.601 199.329C174.244 200.128 172.714 199.959 172.228 199.868Z" fill="#482D1F"/>
<path d="M174.068 190.754L174.054 190.689L174.063 190.721L174.068 190.754ZM175.491 195.41L175.503 195.46C175.596 195.952 175.352 196.474 174.887 196.65C174.801 196.676 174.752 196.689 174.703 196.702C174.242 196.824 173.908 196.894 172.706 197.13C172.462 197.177 172.226 197.014 172.179 196.765C172.133 196.516 172.292 196.275 172.536 196.228C173.717 195.997 174.042 195.928 174.477 195.813C174.522 195.801 174.567 195.789 174.613 195.776C174.603 195.778 174.63 195.719 174.623 195.651L173.195 190.961L173.18 190.896L172.768 188.219C172.73 187.968 172.897 187.733 173.142 187.694C173.388 187.655 173.618 187.826 173.656 188.077L174.063 190.721L175.491 195.41Z" fill="#482D1F"/>
</g>
<g filter="url(#filter0_d_1101_3735)">
<rect x="86" y="153" width="54" height="54" rx="27" fill="white"/>
<path d="M108.061 169.12C106.225 169.12 104.288 169.772 102.752 171.219C101.217 172.667 100.159 174.961 100.159 177.788C100.159 181.462 101.884 184.433 104.203 186.422C103.809 186.769 102.721 187.878 102.721 187.878C102.247 188.204 101.981 188.8 102.035 189.414C102.089 190.028 102.455 190.552 102.98 190.773C103.505 190.993 104.099 190.87 104.512 190.451C104.512 190.451 106.078 188.91 106.981 188.081C108.883 189.037 110.889 189.681 112.877 189.706C112.888 189.706 112.896 189.706 112.907 189.706C112.938 189.706 112.969 189.706 113 189.706C113.05 189.706 113.104 189.706 113.154 189.706C113.166 189.706 113.174 189.706 113.185 189.706C115.149 189.668 117.136 189.025 119.019 188.081C119.922 188.91 121.488 190.451 121.488 190.451C121.901 190.87 122.495 190.993 123.02 190.773C123.545 190.552 123.911 190.028 123.965 189.414C124.019 188.8 123.753 188.204 123.279 187.878C123.279 187.878 122.191 186.769 121.797 186.422C124.116 184.433 125.841 181.462 125.841 177.788C125.841 174.961 124.783 172.667 123.248 171.219C121.712 169.772 119.775 169.12 117.939 169.12C116.268 169.12 114.605 169.603 113.278 170.678C113.177 170.758 113.096 170.86 113 170.948C112.904 170.86 112.823 170.758 112.722 170.678C111.395 169.603 109.732 169.12 108.061 169.12ZM108.061 172.371C109.2 172.371 110.276 172.726 110.963 173.285C111.098 173.395 111.225 173.505 111.333 173.623C111.14 174.245 111.025 174.91 111.025 175.621C111.025 176.374 111.148 177.115 111.364 177.822C111.179 178.224 110.978 178.643 110.716 179.074C109.875 180.458 108.698 181.923 107.506 183.239C107.008 183.789 106.996 183.738 106.518 184.221C106.445 184.166 106.344 184.145 106.271 184.086C104.365 182.562 103.123 180.509 103.123 177.788C103.123 175.803 103.775 174.563 104.697 173.691C105.619 172.819 106.892 172.371 108.061 172.371ZM117.939 172.371C119.108 172.371 120.381 172.819 121.303 173.691C122.225 174.563 122.877 175.803 122.877 177.788C122.877 180.509 121.635 182.562 119.729 184.086C119.656 184.145 119.555 184.166 119.482 184.221C119.004 183.738 118.992 183.789 118.494 183.239C117.302 181.923 116.125 180.458 115.284 179.074C115.022 178.643 114.821 178.224 114.636 177.822C114.852 177.115 114.975 176.374 114.975 175.621C114.975 174.91 114.86 174.245 114.667 173.623C114.775 173.505 114.902 173.395 115.037 173.285C115.724 172.726 116.8 172.371 117.939 172.371ZM113 181.14C113.98 182.697 115.192 184.212 116.395 185.541C116.519 185.677 116.519 185.647 116.642 185.778C115.458 186.206 114.239 186.443 113.093 186.456C113.062 186.456 113.031 186.456 113 186.456C112.95 186.456 112.896 186.456 112.846 186.456C111.715 186.434 110.519 186.197 109.358 185.778C109.481 185.647 109.481 185.677 109.605 185.541C110.808 184.212 112.02 182.697 113 181.14Z" fill="#DED9D6"/>
</g>
<path d="M1082 313L82.0001 313C75.3727 313 70.0001 318.373 70.0001 325L70 457C70 463.627 75.1236 469 81.751 469H1082.12C1088.74 469 1094 463.627 1094 457V325C1094 318.373 1088.63 313 1082 313Z" fill="#F2F6FB"/>
<rect x="239" y="357" width="260" height="14" rx="7" fill="#E1E5F0"/>
<rect x="239" y="386" width="351" height="14" rx="7" fill="#E1E5F0"/>
<rect x="239" y="415" width="372" height="14" rx="7" fill="#E1E5F0"/>
<g clip-path="url(#clip2_1101_3735)">
<path d="M157 442C128.833 442 106 419.167 106 391C106 362.833 128.833 340 157 340C185.167 340 208 362.833 208 391C208 419.167 185.167 442 157 442Z" fill="#88807B"/>
<g clip-path="url(#clip3_1101_3735)">
<path d="M146.585 395.522C142.942 395.589 137.21 396.279 131.546 399.567C130.57 400.124 129.129 401.052 127.549 402.398C126.201 403.558 122.249 407.41 118.484 418.27C117.136 422.076 113.185 429.502 110.907 433.586C110.163 434.932 111.047 436.602 112.627 436.742C117.609 437.099 123.754 439.142 129.561 439.153C129.083 447.835 128.746 458.19 128.618 469.739C128.618 469.739 127.874 483.485 132.151 487.94C132.891 488.724 146.778 487.908 161.529 488.376C177.347 488.878 194.198 490.507 198.119 486.4C204.46 479.759 200.835 477.961 195.016 440.129C195.927 440.222 196.776 440.305 197.532 440.374C203.409 440.933 215.72 440.56 221.643 440.328C223.217 440.281 224.235 438.514 223.587 437.025C221.643 432.513 218.219 424.373 217.2 420.233C214.285 408.418 210.629 404.091 209.379 402.789C207.945 401.301 206.505 400.288 205.631 399.579C202.701 397.205 193.46 395.492 177.909 394.44C171.207 392.159 163.554 392.814 158.6 393.255C155.137 393.57 150.769 393.958 146.585 395.522Z" fill="#F69A66"/>
<path opacity="0.176986" d="M146.433 395.536C142.772 395.656 137.283 396.425 131.857 399.578C130.879 400.136 129.436 401.067 127.853 402.416C126.502 403.579 122.545 407.44 118.773 418.327C117.423 422.142 113.186 429.484 110.904 433.578C110.159 434.927 111.044 436.602 112.627 436.742C114.082 436.846 115.72 437.149 117.278 437.407C117.895 437.508 119.598 437.706 120.357 437.866C124.027 438.64 126.165 439.153 129.586 439.153C129.603 439.153 129.621 439.153 129.638 439.153C130.376 425.766 131.447 416.352 132.604 412.659C133.395 410.147 134.543 407.262 134.543 407.262C135.102 405.634 136.003 403.959 137.818 401.679C140.266 398.642 143.291 396.75 146.433 395.536V395.536ZM157.392 400.497C158.231 405.428 159.767 406.884 159.767 406.884C163.306 404.837 175.924 398.45 174.76 394.96C174.667 394.728 174.481 394.263 173.27 393.518C168.707 390.727 163.12 392.076 161.164 392.634C161.164 392.634 152.178 391.611 150.455 396.868C148.732 402.125 150.781 405.847 150.781 405.847C152.271 404.947 154.475 403.164 157.392 400.497Z" fill="#444444"/>
<path d="M128.676 476.65L129.586 439.153L117.249 437.406L113.479 483.385C113.155 483.553 112.842 483.719 112.537 483.882C109.869 485.311 107.658 487.912 105.903 491.686C105.814 491.876 105.77 492.084 105.773 492.294C105.784 493.064 106.419 493.68 107.19 493.669L205.243 492.251C228.651 487.614 222.283 455.89 217.7 440.475C211.267 440.677 202.18 440.838 197.371 440.384C192.828 439.971 184.938 439.061 180.298 438.367L188.618 463.273C166.276 464.381 144.336 470.599 128.676 476.65ZM154.79 389.606L155 398.188C163.907 401.47 170.226 396.42 170.226 396.42C170.226 396.42 169.892 390.024 169.223 377.232C169.331 377.001 169.436 376.756 169.538 376.497C170.376 374.403 173.392 367.53 172.741 365.157C172.621 364.656 175.109 357.199 171.466 353.438C168.005 349.866 158.412 349.967 158.027 349.99C156.397 350.037 154.767 349.99 152.998 349.618C152.812 349.618 152.625 349.571 152.439 349.571C150.856 349.432 141.963 349.013 137.4 355.619C136.981 356.178 136.608 356.782 136.282 357.527C135.584 359.248 135.258 361.109 135.398 362.97L136.049 371.251C136.143 372.088 136.282 372.926 136.469 373.717C137.819 379.579 140.007 384.37 142.335 387.394C144.058 389.674 145.921 390.977 147.55 391.023C148.016 391.07 150.53 391.023 153.464 390.139C153.655 390.076 153.606 390.121 154.79 389.606Z" fill="#F2A98A"/>
<path d="M179.131 438.29C179.284 438.643 179.696 438.805 180.05 438.651C180.403 438.498 180.566 438.087 180.412 437.733C179.51 435.662 179.148 434.504 178.45 431.481C178.363 431.105 177.988 430.871 177.612 430.958C177.236 431.044 177.002 431.419 177.089 431.795C177.805 434.896 178.192 436.132 179.131 438.29ZM188.125 462.299C187.741 462.263 187.4 462.545 187.364 462.929C187.328 463.312 187.61 463.653 187.994 463.689C188.084 463.697 188.262 463.717 188.514 463.751C188.937 463.808 189.41 463.882 189.92 463.977C191.376 464.248 192.831 464.626 194.182 465.127C194.98 465.422 195.718 465.752 196.383 466.118C196.721 466.303 197.146 466.18 197.332 465.843C197.518 465.505 197.394 465.081 197.056 464.895C196.327 464.494 195.527 464.136 194.667 463.818C193.234 463.287 191.705 462.89 190.176 462.605C189.642 462.506 189.145 462.427 188.699 462.368C188.542 462.347 188.402 462.329 188.28 462.316C188.206 462.307 188.154 462.302 188.125 462.299Z" fill="#482D1F"/>
<path opacity="0.2" d="M113.559 483.433C117.402 481.426 122.59 479.066 128.76 476.676L129.671 439.153L117.334 437.406L113.559 483.433Z" fill="#8C2A00"/>
<path d="M154.777 389.619L154.907 394.373L161.336 386.665C161.244 386.71 161.15 386.756 161.053 386.803C160.122 387.268 158.958 387.78 157.468 388.431C156.163 389.013 155.325 389.382 154.777 389.619Z" fill="#482D1F"/>
<path d="M159.941 367.493L159.982 366.599C159.982 366.599 160.169 364.924 161.333 363.249C161.426 363.156 162.217 362.133 163.428 361.621C165.616 360.783 168.503 361.76 170.086 363.761C171.762 365.808 171.762 368.553 170.878 370.646C169.993 372.74 168.27 373.717 167.665 373.996L164.964 374.833L164.953 374.828C167.313 378.286 169.368 381.3 169.368 381.3C169.368 381.3 173.252 377.718 174.975 374.88C175.813 373.484 178.793 370.088 179.305 364.738C179.445 362.97 180.004 356.969 176 352.549C174.603 351.014 173.02 350.269 172.368 349.944C168.689 348.315 165.989 349.292 158.911 349.432C158.353 349.432 157.421 349.478 156.211 349.432C154.022 349.385 152.486 349.292 152.067 349.292C148.575 349.153 140.985 350.223 137.633 355.387C137.446 355.759 137.214 356.085 137.027 356.364C138.005 356.689 139.076 357.294 140.38 357.527C143.918 358.085 146.945 357.387 148.761 356.736C152.3 360.086 155.885 363.389 159.424 366.738C159.585 366.974 159.758 367.227 159.941 367.493Z" fill="#332117"/>
<path d="M138.738 372.706C138.598 372.148 138.04 371.729 137.481 371.822C137.108 371.869 136.829 372.148 136.689 372.799C136.55 374.428 138.319 376.475 138.831 375.498C139.157 374.846 138.878 373.497 138.738 372.706ZM148.575 371.437C148.435 370.879 147.876 370.46 147.318 370.553C146.945 370.6 146.666 370.879 146.526 371.53C146.386 373.159 148.156 375.206 148.668 374.229C149.04 373.577 148.761 372.228 148.575 371.437Z" fill="#482D1F"/>
<path d="M141.916 373.024L141.87 377.676C141.87 377.693 141.941 377.764 141.963 377.764C142.217 377.764 142.478 377.748 142.884 377.708C142.963 377.701 143.045 377.692 143.164 377.68C143.314 377.665 143.396 377.657 143.475 377.649C143.743 377.622 143.966 377.601 144.204 377.58C144.46 377.558 144.686 377.747 144.708 378.003C144.73 378.259 144.541 378.485 144.285 378.507C144.051 378.527 143.833 378.548 143.568 378.575C143.49 378.582 143.409 378.591 143.258 378.606C143.138 378.618 143.054 378.627 142.974 378.634C142.54 378.676 142.254 378.695 141.963 378.695C141.426 378.695 140.938 378.207 140.938 377.671L140.985 373.014C140.988 372.757 141.198 372.551 141.455 372.554C141.712 372.556 141.919 372.767 141.916 373.024Z" fill="#482D1F"/>
<path d="M145.176 381.161C145.502 381.021 146.293 380.649 146.34 380.184C146.34 380.091 146.386 379.951 146.293 379.904C146.06 379.672 145.502 379.904 144.664 380.137C143.174 380.509 141.963 380.602 141.963 380.602C141.963 380.602 142.429 381.347 142.708 381.533C143.267 382.045 144.71 381.393 145.176 381.161Z" fill="#482D1F"/>
<path d="M143.109 373.533C143.852 376.369 146.434 378.462 149.506 378.462C153.158 378.462 156.118 375.505 156.118 371.856C156.118 371.047 155.972 370.272 155.706 369.556L159.397 367.968C159.765 367.853 159.971 367.462 159.857 367.094C159.742 366.726 159.351 366.52 158.982 366.635L155.086 368.311C153.913 366.471 151.852 365.25 149.506 365.25C145.854 365.25 142.894 368.207 142.894 371.856C142.894 371.955 142.896 372.054 142.901 372.152L141.448 372.302C140.818 369.31 138.161 367.064 134.979 367.064C131.327 367.064 128.367 370.022 128.367 373.67C128.367 377.319 131.327 380.277 134.979 380.277C138.624 380.277 141.58 377.33 141.59 373.69L143.109 373.533ZM154.234 369.655C154.547 370.324 154.721 371.07 154.721 371.856C154.721 374.734 152.386 377.067 149.506 377.067C146.626 377.067 144.291 374.734 144.291 371.856C144.291 368.978 146.626 366.645 149.506 366.645C151.483 366.645 153.204 367.745 154.088 369.366C154.092 369.381 154.096 369.396 154.1 369.411C154.129 369.504 154.175 369.586 154.234 369.655ZM140.179 373.274C140.189 373.405 140.194 373.537 140.194 373.67C140.194 376.548 137.859 378.881 134.979 378.881C132.099 378.881 129.764 376.548 129.764 373.67C129.764 370.793 132.099 368.46 134.979 368.46C137.63 368.46 139.819 370.437 140.15 372.996C140.146 373.042 140.146 373.09 140.151 373.137C140.156 373.185 140.165 373.23 140.179 373.274Z" fill="#482D1F"/>
</g>
</g>
<g filter="url(#filter1_d_1101_3735)">
<rect x="86" y="329" width="54" height="54" rx="27" fill="white"/>
<path d="M108.061 345.12C106.225 345.12 104.288 345.772 102.752 347.219C101.217 348.667 100.159 350.961 100.159 353.788C100.159 357.462 101.884 360.433 104.203 362.422C103.809 362.769 102.721 363.878 102.721 363.878C102.247 364.204 101.981 364.8 102.035 365.414C102.089 366.028 102.455 366.552 102.98 366.773C103.505 366.993 104.099 366.87 104.512 366.451C104.512 366.451 106.078 364.91 106.981 364.081C108.883 365.037 110.889 365.681 112.877 365.706C112.888 365.706 112.896 365.706 112.907 365.706C112.938 365.706 112.969 365.706 113 365.706C113.05 365.706 113.104 365.706 113.154 365.706C113.166 365.706 113.174 365.706 113.185 365.706C115.149 365.668 117.136 365.025 119.019 364.081C119.922 364.91 121.488 366.451 121.488 366.451C121.901 366.87 122.495 366.993 123.02 366.773C123.545 366.552 123.911 366.028 123.965 365.414C124.019 364.8 123.753 364.204 123.279 363.878C123.279 363.878 122.191 362.769 121.797 362.422C124.116 360.433 125.841 357.462 125.841 353.788C125.841 350.961 124.783 348.667 123.248 347.219C121.712 345.772 119.775 345.12 117.939 345.12C116.268 345.12 114.605 345.603 113.278 346.678C113.177 346.758 113.096 346.86 113 346.948C112.904 346.86 112.823 346.758 112.722 346.678C111.395 345.603 109.732 345.12 108.061 345.12ZM108.061 348.371C109.2 348.371 110.276 348.726 110.963 349.285C111.098 349.395 111.225 349.505 111.333 349.623C111.14 350.245 111.025 350.91 111.025 351.621C111.025 352.374 111.148 353.115 111.364 353.822C111.179 354.224 110.978 354.643 110.716 355.074C109.875 356.458 108.698 357.923 107.506 359.239C107.008 359.789 106.996 359.738 106.518 360.221C106.445 360.166 106.344 360.145 106.271 360.086C104.365 358.562 103.123 356.509 103.123 353.788C103.123 351.803 103.775 350.563 104.697 349.691C105.619 348.819 106.892 348.371 108.061 348.371ZM117.939 348.371C119.108 348.371 120.381 348.819 121.303 349.691C122.225 350.563 122.877 351.803 122.877 353.788C122.877 356.509 121.635 358.562 119.729 360.086C119.656 360.145 119.555 360.166 119.482 360.221C119.004 359.738 118.992 359.789 118.494 359.239C117.302 357.923 116.125 356.458 115.284 355.074C115.022 354.643 114.821 354.224 114.636 353.822C114.852 353.115 114.975 352.374 114.975 351.621C114.975 350.91 114.86 350.245 114.667 349.623C114.775 349.505 114.902 349.395 115.037 349.285C115.724 348.726 116.8 348.371 117.939 348.371ZM113 357.14C113.98 358.697 115.192 360.212 116.395 361.541C116.519 361.677 116.519 361.647 116.642 361.778C115.458 362.206 114.239 362.443 113.093 362.456C113.062 362.456 113.031 362.456 113 362.456C112.95 362.456 112.896 362.456 112.846 362.456C111.715 362.434 110.519 362.197 109.358 361.778C109.481 361.647 109.481 361.677 109.605 361.541C110.808 360.212 112.02 358.697 113 357.14Z" fill="#F69A66"/>
</g>
<path d="M1082 489L82.0001 489C75.3727 489 70.0001 494.373 70.0001 501L70 633C70 639.627 75.1236 645 81.751 645H1082.12C1088.74 645 1094 639.627 1094 633V501C1094 494.373 1088.63 489 1082 489Z" fill="#F2F6FB"/>
<rect x="239" y="533" width="222" height="14" rx="7" fill="#E1E5F0"/>
<rect x="239" y="562" width="388" height="14" rx="7" fill="#E1E5F0"/>
<rect x="239" y="591" width="359" height="14" rx="7" fill="#E1E5F0"/>
<g clip-path="url(#clip4_1101_3735)">
<path d="M106 567C106 595.167 128.833 618 157 618C185.167 618 208 595.167 208 567C208 538.833 185.167 516 157 516C128.833 516 106 538.833 106 567Z" fill="#EEDDD4"/>
<g clip-path="url(#clip5_1101_3735)">
<path d="M196.433 644.187C200.628 643.742 206.615 643.138 214.394 642.376C216.254 642.146 218.019 640.203 217.899 638.181C218.277 633.271 215.004 623.558 214.292 621.501C212.662 616.895 209.728 608.009 208.658 603.915C205.678 592.331 201.999 588.005 200.742 586.749C199.299 585.26 197.902 584.236 196.971 583.585C190.685 579.258 184.026 578.607 180.627 578.514C180.534 578.467 180.441 578.467 180.348 578.467L172.735 578.36C168.774 577.439 164.882 577.142 161.707 576.904C157.061 576.58 152.264 576.239 147.533 576.843L134.578 577.025C134.485 577.025 134.391 577.025 134.298 577.072C130.899 577.165 124.241 577.816 117.955 582.143C117.024 582.794 115.627 583.818 114.184 585.306C112.926 586.562 109.248 590.889 106.268 602.473C105.197 606.567 102.264 615.453 100.634 620.059C100.129 621.518 99.048 626.227 97.392 634.186C97.2532 634.399 97.1559 634.632 97.1084 634.88C97.0746 635.091 97.0795 635.3 97.1189 635.502C97.0302 635.931 96.9399 636.369 96.8482 636.816C97.2293 636.823 97.609 636.831 97.9873 636.839C98.5154 637.263 99.2405 637.56 100.066 637.642L112.697 638.98C110.659 651.575 110.419 662.139 111.561 668.743C111.561 668.889 111.613 669.084 111.664 669.23C111.923 670.742 192.312 672.545 192.881 672.009C198.051 667.378 196.913 656.313 196.913 656.313C196.751 651.978 196.591 647.942 196.433 644.187Z" fill="#8D6047"/>
<path d="M165.541 588.721L157.872 584.144L152.652 589.637L152.658 589.686C152.79 590.784 153.544 591.656 154.524 591.993L155.23 639.833C155.231 639.965 155.289 640.09 155.389 640.177L162.688 646.543C162.879 646.71 163.17 646.692 163.34 646.503L169.953 639.161C170.044 639.06 170.086 638.924 170.068 638.789L163.784 591.033C164.752 590.654 165.435 589.758 165.541 588.721Z" fill="#F69A66"/>
<path opacity="0.176986" d="M157.047 576.23C159.706 576.702 169.515 576.813 169.795 580.007C169.982 582.136 169.881 585.827 169.494 591.08L157.872 584.144L149.33 593.133C144.33 585.155 143.532 580.174 146.934 578.19C152.037 575.214 154.388 575.757 157.047 576.23Z" fill="#8C2A00"/>
<path d="M147.97 566.216L150.255 580.551C150.318 580.871 150.517 581.164 150.818 581.248C152.148 581.748 153.999 582.241 156.191 582.29C160.153 582.42 163.274 581.151 164.996 580.248C165.343 580.085 165.547 579.667 165.476 579.301L164.095 571.262C166.678 571.689 166.525 571.626 166.776 571.659C169.798 571.83 172.248 571.259 172.687 571.079C174.306 570.623 175.776 568.915 176.877 566.284C178.376 562.771 179.308 557.566 179.185 551.571C179.208 550.713 179.094 549.882 178.979 549.051L177.572 540.841C177.262 539.006 176.459 537.313 175.262 535.792C174.754 535.133 174.273 534.61 173.718 534.196C170.272 531.196 166.03 530.747 162.737 531.014C160.979 531.128 159.418 531.442 158.318 531.781C157.915 531.907 156.488 532.374 154.413 532.919C153.288 533.232 152.373 533.41 151.834 533.562C145.077 535.159 142.22 534.86 139.148 537.353C138.57 537.797 137.267 538.903 136.299 540.75C133.567 545.972 135.573 551.649 136.139 553.34C137.975 558.387 141.613 560.997 142.785 562.144C144.187 563.539 146.407 565.146 147.97 566.216ZM215.362 661.313L212.784 642.516L201.153 643.636L196.23 644.178L196.528 654.871C194.621 654.582 192.902 654.482 191.372 654.571C180.14 651.917 147.5 644.346 128.998 641.519L129.096 640.589L99.7407 637.481C98.915 637.398 98.1899 637.101 97.6618 636.677C97.4983 636.674 97.3346 636.67 97.1706 636.667C95.3805 650.593 96.8197 668.013 113.505 672.888H188.711C188.704 672.911 188.698 672.933 188.69 672.955H223.194C223.384 668.416 220.773 664.535 215.362 661.313Z" fill="#DB9E75"/>
<path d="M127.983 640.688C127.904 641.065 128.146 641.435 128.523 641.514C128.901 641.593 129.271 641.351 129.35 640.974C130.084 637.476 132.966 625.822 135.674 615.112C135.768 614.739 135.542 614.359 135.168 614.265C134.794 614.17 134.414 614.397 134.319 614.77C131.603 625.512 128.723 637.161 127.983 640.688ZM195.68 643.635C195.741 644.015 196.1 644.274 196.481 644.213C196.861 644.151 197.12 643.793 197.059 643.412C196.489 639.884 195 627.972 193.687 617.004C193.641 616.622 193.293 616.349 192.91 616.394C192.527 616.44 192.254 616.787 192.3 617.17C193.617 628.17 195.105 640.077 195.68 643.635Z" fill="#482D1F"/>
<path d="M164.198 571.3L157.108 569.695L164.84 575.392L164.198 571.3Z" fill="#482D1F"/>
<path d="M174.978 552.673C175.175 553.44 175.561 554.692 176.107 555.06C177.017 555.595 177.579 553.116 176.709 551.815C176.365 551.266 176.027 551.237 175.67 551.354C175.14 551.552 174.872 552.125 174.978 552.673ZM166.77 554.125C166.876 554.91 167.124 556.189 167.688 556.648C168.525 557.291 169.378 554.851 168.637 553.478C168.338 552.92 167.992 552.845 167.626 552.916C167.078 553.023 166.709 553.568 166.77 554.125Z" fill="#482D1F"/>
<path d="M171.475 560.886C171.137 560.857 170.315 560.779 170.081 560.304C170.063 560.212 169.99 560.084 170.018 559.984C170.139 559.629 170.723 559.705 171.555 559.591C173.035 559.398 174.197 559.03 174.197 559.03C174.197 559.03 174.054 560.006 173.879 560.324C173.51 561.107 171.958 560.934 171.475 560.886Z" fill="#482D1F"/>
<path d="M172.797 551.103L172.78 551.041L172.791 551.071L172.797 551.103ZM174.416 555.794C174.603 556.292 174.301 556.876 173.797 557.064C173.685 557.096 173.685 557.096 173.612 557.116C172.853 557.325 172.375 557.441 171.547 557.602C171.295 557.651 171.05 557.486 171.001 557.234C170.952 556.982 171.117 556.738 171.369 556.689C172.171 556.533 172.627 556.423 173.365 556.219L173.511 556.179C173.512 556.177 173.543 556.116 173.54 556.108L171.899 551.343L171.883 551.281L171.359 548.586C171.309 548.334 171.474 548.09 171.727 548.041C171.979 547.992 172.224 548.157 172.273 548.409L172.791 551.071L174.416 555.794Z" fill="#482D1F"/>
<path d="M143.647 552.951C143.698 554.33 144.223 555.74 145.059 556.794C146.085 558.126 147.281 558.729 148.745 559.088C148.995 559.149 149.148 559.401 149.087 559.651C149.025 559.9 148.773 560.053 148.524 559.992C147.88 559.834 147.36 559.662 146.735 559.347C145.815 558.884 144.995 558.237 144.325 557.366C143.37 556.163 142.775 554.563 142.717 552.986C142.707 552.729 142.908 552.513 143.165 552.504C143.422 552.494 143.638 552.695 143.647 552.951Z" fill="#482D1F"/>
<path d="M143.622 552.792C143.625 551.948 143.794 551.09 144.174 550.264C145.236 547.925 147.757 546.251 150.093 546.555C151.407 546.726 152.416 547.526 152.525 547.599C152.961 547.972 153.321 548.367 153.613 548.741L177.843 542.201C177.309 536.946 174.645 533.463 169.85 531.751C168.555 531.288 165.063 530.607 162.023 531.001C157.33 531.61 152.819 532.899 151.551 533.242C150.518 533.537 148.755 533.714 148.279 533.854C143.102 534.348 139.18 536.641 137.836 537.84C137.332 538.269 136.158 539.351 135.336 541.169C132.76 546.693 134.755 552.419 135.426 553.711C135.896 554.615 136.546 555.152 136.546 555.152C138.483 554.675 140.841 553.888 143.622 552.792ZM177.362 547.944C177.801 547.764 177.823 547.144 177.441 546.886C176.959 546.601 176.156 546.378 175.242 546.555C173.368 546.919 171.597 548.543 173.806 548.682C175.111 548.808 176.538 548.341 177.362 547.944ZM168.009 550.093C168.448 549.913 168.47 549.292 168.042 549.044C167.559 548.758 166.757 548.535 165.797 548.721C163.923 549.085 162.161 550.754 164.361 550.849C165.767 551.002 167.13 550.453 168.009 550.093Z" fill="#482D1F"/>
</g>
</g>
<g filter="url(#filter2_d_1101_3735)">
<rect x="86" y="505" width="54" height="54" rx="27" fill="white"/>
<path d="M108.061 521.12C106.225 521.12 104.288 521.772 102.752 523.219C101.217 524.667 100.159 526.961 100.159 529.788C100.159 533.462 101.884 536.433 104.203 538.422C103.809 538.769 102.721 539.878 102.721 539.878C102.247 540.204 101.981 540.8 102.035 541.414C102.089 542.028 102.455 542.552 102.98 542.773C103.505 542.993 104.099 542.87 104.512 542.451C104.512 542.451 106.078 540.91 106.981 540.081C108.883 541.037 110.889 541.681 112.877 541.706C112.888 541.706 112.896 541.706 112.907 541.706C112.938 541.706 112.969 541.706 113 541.706C113.05 541.706 113.104 541.706 113.154 541.706C113.166 541.706 113.174 541.706 113.185 541.706C115.149 541.668 117.136 541.025 119.019 540.081C119.922 540.91 121.488 542.451 121.488 542.451C121.901 542.87 122.495 542.993 123.02 542.773C123.545 542.552 123.911 542.028 123.965 541.414C124.019 540.8 123.753 540.204 123.279 539.878C123.279 539.878 122.191 538.769 121.797 538.422C124.116 536.433 125.841 533.462 125.841 529.788C125.841 526.961 124.783 524.667 123.248 523.219C121.712 521.772 119.775 521.12 117.939 521.12C116.268 521.12 114.605 521.603 113.278 522.678C113.177 522.758 113.096 522.86 113 522.948C112.904 522.86 112.823 522.758 112.722 522.678C111.395 521.603 109.732 521.12 108.061 521.12ZM108.061 524.371C109.2 524.371 110.276 524.726 110.963 525.285C111.098 525.395 111.225 525.505 111.333 525.623C111.14 526.245 111.025 526.91 111.025 527.621C111.025 528.374 111.148 529.115 111.364 529.822C111.179 530.224 110.978 530.643 110.716 531.074C109.875 532.458 108.698 533.923 107.506 535.239C107.008 535.789 106.996 535.738 106.518 536.221C106.445 536.166 106.344 536.145 106.271 536.086C104.365 534.562 103.123 532.509 103.123 529.788C103.123 527.803 103.775 526.563 104.697 525.691C105.619 524.819 106.892 524.371 108.061 524.371ZM117.939 524.371C119.108 524.371 120.381 524.819 121.303 525.691C122.225 526.563 122.877 527.803 122.877 529.788C122.877 532.509 121.635 534.562 119.729 536.086C119.656 536.145 119.555 536.166 119.482 536.221C119.004 535.738 118.992 535.789 118.494 535.239C117.302 533.923 116.125 532.458 115.284 531.074C115.022 530.643 114.821 530.224 114.636 529.822C114.852 529.115 114.975 528.374 114.975 527.621C114.975 526.91 114.86 526.245 114.667 525.623C114.775 525.505 114.902 525.395 115.037 525.285C115.724 524.726 116.8 524.371 117.939 524.371ZM113 533.14C113.98 534.697 115.192 536.212 116.395 537.541C116.519 537.677 116.519 537.647 116.642 537.778C115.458 538.206 114.239 538.443 113.093 538.456C113.062 538.456 113.031 538.456 113 538.456C112.95 538.456 112.896 538.456 112.846 538.456C111.715 538.434 110.519 538.197 109.358 537.778C109.481 537.647 109.481 537.677 109.605 537.541C110.808 536.212 112.02 534.697 113 533.14Z" fill="#DED9D6"/>
</g>
<path d="M1082 665L82.0001 665C75.3727 665 70.0001 670.373 70.0001 677L70 809C70 815.627 75.1236 821 81.751 821H1082.12C1088.74 821 1094 815.627 1094 809V677C1094 670.373 1088.63 665 1082 665Z" fill="#F2F6FB"/>
<rect x="239" y="709" width="222" height="14" rx="7" fill="#E1E5F0"/>
<rect x="239" y="738" width="388" height="14" rx="7" fill="#E1E5F0"/>
<rect x="239" y="767" width="359" height="14" rx="7" fill="#E1E5F0"/>
<g clip-path="url(#clip6_1101_3735)">
<path d="M106 743C106 771.167 128.833 794 157 794C185.167 794 208 771.167 208 743C208 714.833 185.167 692 157 692C128.833 692 106 714.833 106 743Z" fill="#E2DED8"/>
<path d="M149.16 754.205L159.945 750.989C175.629 748.664 189.432 755.343 193.39 769.79L210.662 842.814L210.805 843.418H187.297H146.247L131.052 792.103C127.045 777.607 134.911 758.262 149.16 754.205Z" fill="#88807B"/>
<path d="M140.698 759.368C140.698 759.368 139.758 763.128 144.755 762.089C149.752 761.05 151.186 760.555 151.186 760.555L149.9 757.141L140.698 759.368Z" fill="#482D1F"/>
<path d="M197.1 836.548C200.959 829.127 205.033 811.089 209.32 782.436L182.458 784.261C179.587 795.042 178.152 800.432 178.152 800.432L168.059 752.491C165.585 748.038 160.539 750.611 155.195 755.361C154.899 755.657 148.615 752.392 148.516 752.491C152.177 773.567 150.594 795.88 154.255 816.956C156.482 828.802 160.55 838.033 166.46 844.65C168.347 846.763 170.817 848.27 173.56 848.981C183.591 851.582 191.438 847.438 197.1 836.548Z" fill="#DB9E75"/>
<path d="M167.02 758.23C166.823 758.329 166.526 758.428 166.278 758.379L153.365 758.725L144.312 758.923C141.244 760.16 134.813 762.238 134.12 757.834C134.12 757.834 142.629 754.322 148.616 751.749L149.061 751.353C149.457 751.007 149.803 750.809 150.298 750.661C150.397 750.611 150.496 750.611 150.595 750.611L152.97 750.265L158.115 749.523L161.479 749.028L163.953 748.682C166.229 748.335 168.257 750.166 168.208 752.442L168.158 755.46C168.505 756.548 168.01 757.834 167.02 758.23Z" fill="#DB9E75"/>
<path d="M211.138 774.773C210.603 786.079 208.459 790.064 197.609 789.421C192.019 789.099 181.579 792.036 178.167 787.945C176.605 786.061 166.728 751.419 177.578 752.063C188.512 752.66 211.672 763.421 211.138 774.773Z" fill="#88807B"/>
<path d="M154.702 756.937C154.702 756.937 156.281 760.477 151.18 760.322C146.078 760.166 144.579 759.928 144.579 759.928L145.253 756.343L154.702 756.937Z" fill="#482D1F"/>
<path d="M118.858 841.044C113.335 837.11 114.376 820.071 121.981 789.924C123.574 782.181 125.475 781.632 127.685 788.275C130.999 798.241 126.789 801.133 126.789 801.133L130.707 752.761C132.37 747.946 135.483 749.011 141.57 752.761C141.914 753.001 147.535 748.695 147.649 748.775C147.704 770.167 153.138 791.866 153.192 813.257C153.089 822.44 152.633 829.939 151.824 835.754V835.754C151.076 841.137 147.026 845.468 141.706 846.576C133.927 848.196 126.311 846.352 118.858 841.044Z" fill="#DB9E75"/>
<path d="M131.294 760.428C131.506 760.491 131.816 760.537 132.051 760.445L144.827 758.544L153.778 757.167C157.014 757.852 163.708 758.782 163.626 754.325C163.626 754.325 154.636 752.343 148.293 750.849L147.786 750.537C147.336 750.265 146.961 750.13 146.448 750.07C146.342 750.038 146.244 750.055 146.147 750.072L143.748 750.144L138.552 750.306L135.153 750.403L132.657 750.492C130.355 750.546 128.676 752.701 129.119 754.934L129.692 757.897C129.54 759.029 130.251 760.21 131.294 760.428Z" fill="#DB9E75"/>
<path d="M145.752 752.581C140.651 752.426 138.299 749.949 138.741 750.188L153.002 750.188C151.57 751.887 149.153 752.685 145.752 752.581Z" fill="#482D1F"/>
<path d="M127.643 791.12C124.649 791.12 119.408 790.003 117.598 788.376C115.688 786.665 117.692 762.022 130.206 758.912L127.643 791.12Z" fill="#88807B"/>
<path d="M180.345 726.673C186.02 732.445 191.431 741.117 189.131 745.111C187.487 747.999 184.015 748.913 180.4 749.788C177.002 750.619 170.359 751.708 161.69 749.078C159.222 748.16 156.67 747.169 154.214 746.204" fill="#482D1F"/>
<path d="M135.142 725.06C130.199 727.833 124.791 732.531 125.53 735.7C126.056 737.941 128.219 739.237 130.429 740.546C132.509 741.769 136.757 743.881 143.106 743.892C144.98 743.779 146.819 743.606 148.706 743.446" fill="#482D1F"/>
<path d="M167.834 739.148C166.475 740.013 165.079 740.253 164.142 740.31C163.565 740.36 163.068 740.688 162.844 741.14L160.54 749.542C160.54 749.542 158.971 749.475 158.646 749.542C157.766 749.767 155.634 750.271 150.993 750.769C146.543 751.319 146.821 751.239 146.508 751.258C143.28 751.264 140.712 750.524 140.247 750.349C136.31 748.986 133.586 740.42 134.313 729.295C134.352 728.384 134.535 727.511 134.67 726.625L136.579 717.968C136.996 716.031 137.891 714.222 139.247 712.793C139.821 712.178 140.383 711.612 140.954 711.201C147.643 705.925 156.531 709.075 158.104 709.701C158.296 709.753 158.474 709.852 158.665 709.903C160.366 710.82 161.952 711.398 163.685 711.812C164.45 712.016 164.905 712.804 164.748 713.582L161.709 725.879C161.449 727.039 162.621 728.019 163.721 727.545C163.721 727.545 163.769 727.558 163.781 727.51C163.95 727.453 165.146 727.005 166.462 727.256C168.807 727.679 170.71 730.135 170.943 732.707C171.22 735.496 169.764 737.872 167.834 739.148Z" fill="#DB9E75"/>
<path d="M136.461 728.876C136.519 728.277 136.156 727.719 135.583 727.566C135.2 727.463 134.815 727.565 134.492 728.195C133.748 729.635 134.64 732.23 135.492 731.536C136.123 731.091 136.338 729.714 136.461 728.876Z" fill="#482D1F"/>
<path d="M145.037 729.608C145.095 729.009 144.733 728.45 144.159 728.297C143.777 728.194 143.391 728.296 143.069 728.926C142.324 730.366 143.217 732.961 144.068 732.268C144.713 731.774 144.976 730.411 145.037 729.608Z" fill="#482D1F"/>
<path d="M140.061 738.62C140.421 738.614 141.31 738.545 141.594 738.058C141.62 737.962 141.706 737.832 141.684 737.724C141.57 737.386 140.91 737.362 140.024 737.228C138.457 736.961 137.253 736.485 137.253 736.485C137.253 736.485 137.379 737.543 137.554 737.846C137.827 738.739 139.497 738.623 140.061 738.62Z" fill="#482D1F"/>
<path d="M133.557 724.874C133.073 724.732 132.927 724.123 133.302 723.808C133.781 723.453 134.563 723.025 135.553 723.062C137.582 723.14 139.697 724.517 137.468 725.017C136.045 725.389 134.48 725.103 133.557 724.874Z" fill="#482D1F"/>
<path d="M180.824 720.297C179.874 718.3 178.527 717.018 177.948 716.504C174.755 713.702 171.679 713.902 164.454 711.813C162.972 711.416 160.752 710.718 158.105 709.702C157.901 709.698 157.722 709.599 157.531 709.548C155.958 708.921 147.34 706.1 140.989 711.262C140.963 711.357 139.946 711.904 140.016 712.025C140.016 712.025 140.025 712.182 140.118 712.411C140.095 712.303 140.086 712.147 140.064 712.038C140.917 712.677 141.885 713.653 143.111 714.238C146.564 715.88 149.824 716.139 151.841 716.065C152.107 717.365 152.526 718.86 153.197 720.372C155.113 724.881 158.15 727.692 160.166 729.154C159.59 730.536 159.015 731.919 158.453 733.253C158.691 733.317 158.883 733.369 159.134 733.385C159.134 733.385 163 733.294 163.833 735.156C164.017 735.615 163.998 736.071 163.921 736.358C163.292 740.235 159.523 744.552 160.292 745.885C161.071 747.375 167.619 746.261 172.935 742.666C174.38 741.67 178.278 738.975 180.515 733.685C181.097 731.894 183.562 725.947 180.824 720.297Z" fill="#482D1F"/>
<path d="M143.242 725.873C142.79 725.65 142.753 725.025 143.225 724.793C143.757 724.526 144.602 724.24 145.618 724.461C147.603 724.891 149.434 726.661 147.165 726.719C145.651 726.826 144.16 726.273 143.242 725.873Z" fill="#482D1F"/>
<path d="M156.586 734.289L160.113 729.344C160.113 729.344 161.192 727.994 163.089 727.222C163.258 727.165 164.454 726.717 165.77 726.967C168.115 727.391 170.018 729.847 170.251 732.419C170.553 735.112 169.11 737.44 167.228 738.729C165.346 740.017 163.32 739.935 162.66 739.912L160.188 739.198" fill="#DB9E75"/>
<path d="M139.974 725.946L139.314 728.791L137.37 733.751C137.293 734.038 137.408 734.376 137.682 734.5C138.29 734.715 138.863 734.868 139.963 735.163" stroke="#482D1F" stroke-width="0.698464" stroke-linecap="round" stroke-linejoin="round"/>
<path d="M167.02 746.203L166.604 750.24L160.639 749.563C159.788 749.489 159.237 748.676 159.359 747.838L159.677 746.079L161.064 742.814L167.02 746.203Z" fill="#482D1F"/>
</g>
<g filter="url(#filter3_d_1101_3735)">
<rect x="86" y="681" width="54" height="54" rx="27" fill="#F69A66"/>
<path d="M108.061 697.12C106.225 697.12 104.288 697.772 102.752 699.219C101.217 700.667 100.159 702.961 100.159 705.788C100.159 709.462 101.884 712.433 104.203 714.422C103.809 714.769 102.721 715.878 102.721 715.878C102.247 716.204 101.981 716.8 102.035 717.414C102.089 718.028 102.455 718.552 102.98 718.773C103.505 718.993 104.099 718.87 104.512 718.451C104.512 718.451 106.078 716.91 106.981 716.081C108.883 717.037 110.889 717.681 112.877 717.706C112.888 717.706 112.896 717.706 112.907 717.706C112.938 717.706 112.969 717.706 113 717.706C113.05 717.706 113.104 717.706 113.154 717.706C113.166 717.706 113.174 717.706 113.185 717.706C115.149 717.668 117.136 717.025 119.019 716.081C119.922 716.91 121.488 718.451 121.488 718.451C121.901 718.87 122.495 718.993 123.02 718.773C123.545 718.552 123.911 718.028 123.965 717.414C124.019 716.8 123.753 716.204 123.279 715.878C123.279 715.878 122.191 714.769 121.797 714.422C124.116 712.433 125.841 709.462 125.841 705.788C125.841 702.961 124.783 700.667 123.248 699.219C121.712 697.772 119.775 697.12 117.939 697.12C116.268 697.12 114.605 697.603 113.278 698.678C113.177 698.758 113.096 698.86 113 698.948C112.904 698.86 112.823 698.758 112.722 698.678C111.395 697.603 109.732 697.12 108.061 697.12ZM108.061 700.371C109.2 700.371 110.276 700.726 110.963 701.285C111.098 701.395 111.225 701.505 111.333 701.623C111.14 702.245 111.025 702.91 111.025 703.621C111.025 704.374 111.148 705.115 111.364 705.822C111.179 706.224 110.978 706.643 110.716 707.074C109.875 708.458 108.698 709.923 107.506 711.239C107.008 711.789 106.996 711.738 106.518 712.221C106.445 712.166 106.344 712.145 106.271 712.086C104.365 710.562 103.123 708.509 103.123 705.788C103.123 703.803 103.775 702.563 104.697 701.691C105.619 700.819 106.892 700.371 108.061 700.371ZM117.939 700.371C119.108 700.371 120.381 700.819 121.303 701.691C122.225 702.563 122.877 703.803 122.877 705.788C122.877 708.509 121.635 710.562 119.729 712.086C119.656 712.145 119.555 712.166 119.482 712.221C119.004 711.738 118.992 711.789 118.494 711.239C117.302 709.923 116.125 708.458 115.284 707.074C115.022 706.643 114.821 706.224 114.636 705.822C114.852 705.115 114.975 704.374 114.975 703.621C114.975 702.91 114.86 702.245 114.667 701.623C114.775 701.505 114.902 701.395 115.037 701.285C115.724 700.726 116.8 700.371 117.939 700.371ZM113 709.14C113.98 710.697 115.192 712.212 116.395 713.541C116.519 713.677 116.519 713.647 116.642 713.778C115.458 714.206 114.239 714.443 113.093 714.456C113.062 714.456 113.031 714.456 113 714.456C112.95 714.456 112.896 714.456 112.846 714.456C111.715 714.434 110.519 714.197 109.358 713.778C109.481 713.647 109.481 713.677 109.605 713.541C110.808 712.212 112.02 710.697 113 709.14Z" fill="white"/>
</g>
<path d="M1082 841L82.0001 841C75.3727 841 70.0001 846.373 70.0001 853L70 985C70 991.627 75.1236 997 81.751 997H1082.12C1088.74 997 1094 991.627 1094 985V853C1094 846.373 1088.63 841 1082 841Z" fill="#F2F6FB"/>
<rect x="199" y="868" width="222" height="14" rx="7" fill="#E1E5F0"/>
<g clip-path="url(#clip7_1101_3735)">
<path d="M106 919C106 947.167 128.833 970 157 970C185.167 970 208 947.167 208 919C208 890.833 185.167 868 157 868C128.833 868 106 890.833 106 919Z" fill="#EEDDD4"/>
</g>
<g filter="url(#filter4_d_1101_3735)">
<rect x="86" y="857" width="54" height="54" rx="27" fill="white"/>
<path d="M108.061 873.12C106.225 873.12 104.288 873.772 102.752 875.219C101.217 876.667 100.159 878.961 100.159 881.788C100.159 885.462 101.884 888.433 104.203 890.422C103.809 890.769 102.721 891.878 102.721 891.878C102.247 892.204 101.981 892.8 102.035 893.414C102.089 894.028 102.455 894.552 102.98 894.773C103.505 894.993 104.099 894.87 104.512 894.451C104.512 894.451 106.078 892.91 106.981 892.081C108.883 893.037 110.889 893.681 112.877 893.706C112.888 893.706 112.896 893.706 112.907 893.706C112.938 893.706 112.969 893.706 113 893.706C113.05 893.706 113.104 893.706 113.154 893.706C113.166 893.706 113.174 893.706 113.185 893.706C115.149 893.668 117.136 893.025 119.019 892.081C119.922 892.91 121.488 894.451 121.488 894.451C121.901 894.87 122.495 894.993 123.02 894.773C123.545 894.552 123.911 894.028 123.965 893.414C124.019 892.8 123.753 892.204 123.279 891.878C123.279 891.878 122.191 890.769 121.797 890.422C124.116 888.433 125.841 885.462 125.841 881.788C125.841 878.961 124.783 876.667 123.248 875.219C121.712 873.772 119.775 873.12 117.939 873.12C116.268 873.12 114.605 873.603 113.278 874.678C113.177 874.758 113.096 874.86 113 874.948C112.904 874.86 112.823 874.758 112.722 874.678C111.395 873.603 109.732 873.12 108.061 873.12ZM108.061 876.371C109.2 876.371 110.276 876.726 110.963 877.285C111.098 877.395 111.225 877.505 111.333 877.623C111.14 878.245 111.025 878.91 111.025 879.621C111.025 880.374 111.148 881.115 111.364 881.822C111.179 882.224 110.978 882.643 110.716 883.074C109.875 884.458 108.698 885.923 107.506 887.239C107.008 887.789 106.996 887.738 106.518 888.221C106.445 888.166 106.344 888.145 106.271 888.086C104.365 886.562 103.123 884.509 103.123 881.788C103.123 879.803 103.775 878.563 104.697 877.691C105.619 876.819 106.892 876.371 108.061 876.371ZM117.939 876.371C119.108 876.371 120.381 876.819 121.303 877.691C122.225 878.563 122.877 879.803 122.877 881.788C122.877 884.509 121.635 886.562 119.729 888.086C119.656 888.145 119.555 888.166 119.482 888.221C119.004 887.738 118.992 887.789 118.494 887.239C117.302 885.923 116.125 884.458 115.284 883.074C115.022 882.643 114.821 882.224 114.636 881.822C114.852 881.115 114.975 880.374 114.975 879.621C114.975 878.91 114.86 878.245 114.667 877.623C114.775 877.505 114.902 877.395 115.037 877.285C115.724 876.726 116.8 876.371 117.939 876.371ZM113 885.14C113.98 886.697 115.192 888.212 116.395 889.541C116.519 889.677 116.519 889.647 116.642 889.778C115.458 890.206 114.239 890.443 113.093 890.456C113.062 890.456 113.031 890.456 113 890.456C112.95 890.456 112.896 890.456 112.846 890.456C111.715 890.434 110.519 890.197 109.358 889.778C109.481 889.647 109.481 889.677 109.605 889.541C110.808 888.212 112.02 886.697 113 885.14Z" fill="#DED9D6"/>
</g>
<path d="M0 20.0044C0 8.95627 8.94834 0 20.0043 0H1144C1155.04 0 1164 8.95709 1164 20.0044V44H0V20.0044Z" fill="#D8DEED"/>
<path d="M29.5 32C34.7467 32 39 27.7467 39 22.5C39 17.2533 34.7467 13 29.5 13C24.2533 13 20 17.2533 20 22.5C20 27.7467 24.2533 32 29.5 32Z" fill="#FF5645"/>
<path d="M60.5 32C65.7467 32 70 27.7467 70 22.5C70 17.2533 65.7467 13 60.5 13C55.2533 13 51 17.2533 51 22.5C51 27.7467 55.2533 32 60.5 32Z" fill="#FFCB3D"/>
<path d="M92.5 32C97.7467 32 102 27.7467 102 22.5C102 17.2533 97.7467 13 92.5 13C87.2533 13 83 17.2533 83 22.5C83 27.7467 87.2533 32 92.5 32Z" fill="#3ABF7C"/>
<rect y="44" width="1164" height="60" fill="#F2F6FB"/>
<path d="M70 68C70 62.4772 74.4772 58 80 58H92C97.5228 58 102 62.4772 102 68V80C102 85.5228 97.5228 90 92 90H80C74.4772 90 70 85.5228 70 80V68Z" fill="#508BFF"/>
<path d="M81.7245 71.1296H78.5125C78.3699 71.1296 78.2544 71.2452 78.2544 71.3877V81.7066C78.2544 81.8491 78.3699 81.9646 78.5125 81.9646H81.7245C81.867 81.9646 81.9825 81.8491 81.9825 81.7066V71.3877C81.9825 71.2452 81.867 71.1296 81.7245 71.1296Z" fill="white"/>
<path d="M80.1195 66C78.9508 66 78 66.9498 78 68.1172C78 69.2852 78.9508 70.2353 80.1195 70.2353C81.2873 70.2353 82.2374 69.2851 82.2374 68.1172C82.2374 66.9498 81.2873 66 80.1195 66Z" fill="white"/>
<path d="M89.8943 70.8733C88.6043 70.8733 87.6506 71.4279 87.0722 72.058V71.3878C87.0722 71.2453 86.9567 71.1298 86.8141 71.1298H83.738C83.5955 71.1298 83.48 71.2453 83.48 71.3878V81.7067C83.48 81.8492 83.5955 81.9647 83.738 81.9647H86.943C87.0856 81.9647 87.2011 81.8492 87.2011 81.7067V76.6012C87.2011 74.8808 87.6684 74.2106 88.8677 74.2106C90.1738 74.2106 90.2776 75.2851 90.2776 76.6898V81.7067C90.2776 81.8493 90.3931 81.9648 90.5357 81.9648H93.7419C93.8844 81.9648 93.9999 81.8493 93.9999 81.7067V76.0467C93.9999 73.4885 93.5121 70.8733 89.8943 70.8733Z" fill="white"/>
<rect x="1060" y="57.0005" width="34" height="34" rx="17" fill="#F69A66"/>
<path d="M1073.18 65.5823C1071.76 65.5823 1070.26 66.0866 1069.07 67.2065C1067.88 68.3264 1067.06 70.1013 1067.06 72.2887C1067.06 75.1311 1068.4 77.4299 1070.19 78.9689C1069.89 79.2375 1069.05 80.0954 1069.05 80.0954C1068.68 80.3476 1068.47 80.8093 1068.52 81.2841C1068.56 81.7589 1068.84 82.165 1069.25 82.3353C1069.65 82.5055 1070.11 82.4106 1070.43 82.0864C1070.43 82.0864 1071.64 80.8944 1072.34 80.2526C1073.81 80.9927 1075.37 81.4904 1076.9 81.5101C1076.91 81.5101 1076.92 81.5101 1076.93 81.5101C1076.95 81.5101 1076.98 81.5101 1077 81.5101C1077.04 81.5101 1077.08 81.5101 1077.12 81.5101C1077.13 81.5101 1077.13 81.5101 1077.14 81.5101C1078.66 81.4806 1080.2 80.9828 1081.66 80.2526C1082.36 80.8944 1083.57 82.0864 1083.57 82.0864C1083.89 82.4106 1084.35 82.5055 1084.75 82.3353C1085.16 82.165 1085.44 81.7589 1085.48 81.2841C1085.53 80.8093 1085.32 80.3476 1084.95 80.0954C1084.95 80.0954 1084.11 79.2375 1083.81 78.9689C1085.6 77.4299 1086.93 75.1311 1086.93 72.2887C1086.93 70.1013 1086.12 68.3264 1084.93 67.2065C1083.74 66.0866 1082.24 65.5823 1080.82 65.5823C1079.53 65.5823 1078.24 65.9556 1077.21 66.7873C1077.14 66.8496 1077.07 66.9281 1077 66.9969C1076.93 66.9281 1076.86 66.8496 1076.79 66.7873C1075.76 65.9556 1074.47 65.5823 1073.18 65.5823ZM1073.18 68.0972C1074.06 68.0972 1074.89 68.3723 1075.42 68.8045C1075.53 68.8896 1075.63 68.9748 1075.71 69.0665C1075.56 69.5478 1075.47 70.062 1075.47 70.6121C1075.47 71.195 1075.57 71.768 1075.73 72.3149C1075.59 72.626 1075.44 72.9502 1075.23 73.2842C1074.58 74.355 1073.67 75.488 1072.75 76.5064C1072.36 76.9321 1072.35 76.8928 1071.98 77.2661C1071.93 77.2236 1071.85 77.2072 1071.79 77.1614C1070.32 75.9825 1069.36 74.3943 1069.36 72.2887C1069.36 70.7529 1069.86 69.7934 1070.58 69.1189C1071.29 68.4443 1072.27 68.0972 1073.18 68.0972ZM1080.82 68.0972C1081.73 68.0972 1082.71 68.4443 1083.42 69.1189C1084.14 69.7934 1084.64 70.7529 1084.64 72.2887C1084.64 74.3943 1083.68 75.9825 1082.21 77.1614C1082.15 77.2072 1082.07 77.2236 1082.02 77.2661C1081.65 76.8928 1081.64 76.9321 1081.25 76.5064C1080.33 75.488 1079.42 74.355 1078.77 73.2842C1078.56 72.9502 1078.41 72.626 1078.27 72.3149C1078.43 71.768 1078.53 71.195 1078.53 70.6121C1078.53 70.062 1078.44 69.5478 1078.29 69.0665C1078.37 68.9748 1078.47 68.8896 1078.58 68.8045C1079.11 68.3723 1079.94 68.0972 1080.82 68.0972ZM1077 74.8822C1077.76 76.0873 1078.7 77.2596 1079.63 78.2878C1079.72 78.3926 1079.72 78.3697 1079.82 78.4712C1078.9 78.8019 1077.96 78.9853 1077.07 78.9951C1077.05 78.9951 1077.02 78.9951 1077 78.9951C1076.96 78.9951 1076.92 78.9951 1076.88 78.9951C1076.01 78.9788 1075.08 78.7954 1074.18 78.4712C1074.28 78.3697 1074.28 78.3926 1074.37 78.2878C1075.3 77.2596 1076.24 76.0873 1077 74.8822Z" fill="white"/>
<path d="M122 68C122 62.4772 126.477 58 132 58H377C382.523 58 387 62.4772 387 68V80C387 85.5228 382.523 90 377 90H132C126.477 90 122 85.5228 122 80V68Z" fill="#E4EAF1"/>
<g filter="url(#filter5_d_1101_3735)">
<path d="M97.1044 389.617C96.7369 389.145 96.2775 388.187 95.4769 386.992C95.0175 386.336 93.8888 385.089 93.5475 384.446C93.3015 384.055 93.2301 383.579 93.3506 383.134C93.5567 382.286 94.3607 381.724 95.2275 381.821C95.8979 381.956 96.5141 382.284 96.9994 382.766C97.3383 383.085 97.65 383.432 97.9313 383.803C98.1413 384.066 98.1938 384.171 98.43 384.472C98.6663 384.774 98.8238 385.076 98.7056 384.63C98.6138 383.974 98.4563 382.871 98.2331 381.887C98.0625 381.139 98.0231 381.021 97.8656 380.456C97.7081 379.892 97.6163 379.419 97.4456 378.776C97.2897 378.144 97.167 377.505 97.0781 376.86C96.9127 376.035 97.0331 375.179 97.4194 374.432C97.878 374 98.5507 373.887 99.1256 374.143C99.7039 374.57 100.135 375.166 100.359 375.849C100.703 376.69 100.933 377.573 101.042 378.474C101.252 379.787 101.659 381.703 101.672 382.097C101.672 381.611 101.58 380.587 101.672 380.128C101.763 379.649 102.096 379.252 102.551 379.078C102.942 378.958 103.356 378.931 103.759 378.999C104.166 379.084 104.526 379.318 104.769 379.656C105.073 380.421 105.242 381.234 105.268 382.057C105.303 381.336 105.427 380.622 105.636 379.931C105.855 379.622 106.175 379.399 106.541 379.301C106.975 379.222 107.42 379.222 107.854 379.301C108.21 379.42 108.521 379.644 108.746 379.944C109.024 380.64 109.192 381.375 109.245 382.123C109.245 382.307 109.337 381.611 109.626 381.152C109.776 380.706 110.152 380.375 110.613 380.282C111.074 380.189 111.549 380.349 111.86 380.702C112.17 381.055 112.269 381.546 112.119 381.992C112.119 382.845 112.119 382.806 112.119 383.383C112.119 383.961 112.119 384.472 112.119 384.958C112.072 385.726 111.966 386.489 111.804 387.242C111.576 387.907 111.258 388.539 110.859 389.119C110.222 389.827 109.696 390.628 109.298 391.494C109.199 391.925 109.155 392.366 109.166 392.807C109.165 393.214 109.218 393.621 109.324 394.014C108.787 394.071 108.246 394.071 107.709 394.014C107.198 393.936 106.568 392.912 106.397 392.597C106.312 392.428 106.14 392.321 105.951 392.321C105.762 392.321 105.589 392.428 105.504 392.597C105.216 393.096 104.573 394.001 104.126 394.054C103.247 394.159 101.436 394.054 100.005 394.054C100.005 394.054 100.241 392.741 99.7031 392.269C99.165 391.796 98.6138 391.245 98.2069 390.877L97.1044 389.617Z" fill="white"/>
<path fill-rule="evenodd" clip-rule="evenodd" d="M97.1044 389.617C96.7369 389.145 96.2775 388.187 95.4769 386.992C95.0175 386.336 93.8888 385.089 93.5475 384.446C93.3015 384.055 93.2301 383.579 93.3506 383.134C93.5567 382.286 94.3607 381.724 95.2275 381.821C95.8979 381.956 96.5141 382.284 96.9994 382.766C97.3383 383.085 97.65 383.432 97.9313 383.803C98.1413 384.066 98.1938 384.171 98.43 384.472C98.6663 384.774 98.8238 385.076 98.7056 384.63C98.6138 383.974 98.4563 382.871 98.2331 381.887C98.0625 381.139 98.0231 381.021 97.8656 380.456C97.7081 379.892 97.6163 379.419 97.4456 378.776C97.2897 378.144 97.167 377.505 97.0781 376.86C96.9127 376.035 97.0331 375.179 97.4194 374.432C97.878 374 98.5507 373.887 99.1256 374.143C99.7039 374.57 100.135 375.166 100.359 375.849C100.703 376.69 100.933 377.573 101.042 378.474C101.252 379.787 101.659 381.703 101.672 382.097C101.672 381.611 101.58 380.587 101.672 380.128C101.763 379.649 102.096 379.252 102.551 379.078C102.942 378.958 103.356 378.931 103.759 378.999C104.166 379.084 104.526 379.318 104.769 379.656C105.073 380.421 105.242 381.234 105.268 382.057C105.303 381.336 105.427 380.622 105.636 379.931C105.855 379.622 106.175 379.399 106.541 379.301C106.975 379.222 107.42 379.222 107.854 379.301C108.21 379.42 108.521 379.644 108.746 379.944C109.024 380.64 109.192 381.375 109.245 382.123C109.245 382.307 109.337 381.611 109.626 381.152C109.776 380.706 110.152 380.375 110.613 380.282C111.074 380.189 111.549 380.349 111.86 380.702C112.17 381.055 112.269 381.546 112.119 381.992C112.119 382.845 112.119 382.806 112.119 383.383C112.119 383.961 112.119 384.472 112.119 384.958C112.072 385.726 111.966 386.489 111.804 387.242C111.576 387.907 111.258 388.539 110.859 389.119C110.222 389.827 109.696 390.628 109.298 391.494C109.199 391.925 109.155 392.366 109.166 392.807C109.165 393.214 109.218 393.621 109.324 394.014C108.787 394.071 108.246 394.071 107.709 394.014C107.198 393.936 106.568 392.912 106.397 392.597C106.312 392.428 106.14 392.321 105.951 392.321C105.762 392.321 105.589 392.428 105.504 392.597C105.216 393.096 104.573 394.001 104.126 394.054C103.247 394.159 101.436 394.054 100.005 394.054C100.005 394.054 100.241 392.741 99.7031 392.269C99.165 391.796 98.6138 391.245 98.2069 390.877L97.1044 389.617Z" stroke="black" stroke-width="0.75" stroke-linecap="round" stroke-linejoin="round"/>
<path d="M108.234 390.334V385.804C108.234 385.532 108.014 385.312 107.742 385.312C107.47 385.312 107.25 385.532 107.25 385.804V390.334C107.25 390.605 107.47 390.825 107.742 390.825C108.014 390.825 108.234 390.605 108.234 390.334Z" fill="black"/>
<path d="M105.636 390.332L105.609 385.8C105.608 385.529 105.386 385.311 105.114 385.313C104.843 385.314 104.623 385.535 104.625 385.805L104.651 390.338C104.653 390.609 104.874 390.827 105.146 390.825C105.418 390.823 105.637 390.603 105.636 390.332Z" fill="black"/>
<path d="M102 385.81L102.026 390.333C102.028 390.606 102.249 390.827 102.521 390.825C102.793 390.823 103.012 390.601 103.011 390.328L102.984 385.804C102.983 385.531 102.761 385.311 102.489 385.313C102.217 385.314 101.998 385.537 102 385.81Z" fill="black"/>
</g>
</g>
<defs>
<filter id="filter0_d_1101_3735" x="80" y="149" width="66" height="66" filterUnits="userSpaceOnUse" color-interpolation-filters="sRGB">
<feFlood flood-opacity="0" result="BackgroundImageFix"/>
<feColorMatrix in="SourceAlpha" type="matrix" values="0 0 0 0 0 0 0 0 0 0 0 0 0 0 0 0 0 0 127 0" result="hardAlpha"/>
<feOffset dy="2"/>
<feGaussianBlur stdDeviation="3"/>
<feComposite in2="hardAlpha" operator="out"/>
<feColorMatrix type="matrix" values="0 0 0 0 0 0 0 0 0 0 0 0 0 0 0 0 0 0 0.1 0"/>
<feBlend mode="normal" in2="BackgroundImageFix" result="effect1_dropShadow_1101_3735"/>
<feBlend mode="normal" in="SourceGraphic" in2="effect1_dropShadow_1101_3735" result="shape"/>
</filter>
<filter id="filter1_d_1101_3735" x="80" y="325" width="66" height="66" filterUnits="userSpaceOnUse" color-interpolation-filters="sRGB">
<feFlood flood-opacity="0" result="BackgroundImageFix"/>
<feColorMatrix in="SourceAlpha" type="matrix" values="0 0 0 0 0 0 0 0 0 0 0 0 0 0 0 0 0 0 127 0" result="hardAlpha"/>
<feOffset dy="2"/>
<feGaussianBlur stdDeviation="3"/>
<feComposite in2="hardAlpha" operator="out"/>
<feColorMatrix type="matrix" values="0 0 0 0 0 0 0 0 0 0 0 0 0 0 0 0 0 0 0.1 0"/>
<feBlend mode="normal" in2="BackgroundImageFix" result="effect1_dropShadow_1101_3735"/>
<feBlend mode="normal" in="SourceGraphic" in2="effect1_dropShadow_1101_3735" result="shape"/>
</filter>
<filter id="filter2_d_1101_3735" x="80" y="501" width="66" height="66" filterUnits="userSpaceOnUse" color-interpolation-filters="sRGB">
<feFlood flood-opacity="0" result="BackgroundImageFix"/>
<feColorMatrix in="SourceAlpha" type="matrix" values="0 0 0 0 0 0 0 0 0 0 0 0 0 0 0 0 0 0 127 0" result="hardAlpha"/>
<feOffset dy="2"/>
<feGaussianBlur stdDeviation="3"/>
<feComposite in2="hardAlpha" operator="out"/>
<feColorMatrix type="matrix" values="0 0 0 0 0 0 0 0 0 0 0 0 0 0 0 0 0 0 0.1 0"/>
<feBlend mode="normal" in2="BackgroundImageFix" result="effect1_dropShadow_1101_3735"/>
<feBlend mode="normal" in="SourceGraphic" in2="effect1_dropShadow_1101_3735" result="shape"/>
</filter>
<filter id="filter3_d_1101_3735" x="80" y="677" width="66" height="66" filterUnits="userSpaceOnUse" color-interpolation-filters="sRGB">
<feFlood flood-opacity="0" result="BackgroundImageFix"/>
<feColorMatrix in="SourceAlpha" type="matrix" values="0 0 0 0 0 0 0 0 0 0 0 0 0 0 0 0 0 0 127 0" result="hardAlpha"/>
<feOffset dy="2"/>
<feGaussianBlur stdDeviation="3"/>
<feComposite in2="hardAlpha" operator="out"/>
<feColorMatrix type="matrix" values="0 0 0 0 0 0 0 0 0 0 0 0 0 0 0 0 0 0 0.1 0"/>
<feBlend mode="normal" in2="BackgroundImageFix" result="effect1_dropShadow_1101_3735"/>
<feBlend mode="normal" in="SourceGraphic" in2="effect1_dropShadow_1101_3735" result="shape"/>
</filter>
<filter id="filter4_d_1101_3735" x="80" y="853" width="66" height="66" filterUnits="userSpaceOnUse" color-interpolation-filters="sRGB">
<feFlood flood-opacity="0" result="BackgroundImageFix"/>
<feColorMatrix in="SourceAlpha" type="matrix" values="0 0 0 0 0 0 0 0 0 0 0 0 0 0 0 0 0 0 127 0" result="hardAlpha"/>
<feOffset dy="2"/>
<feGaussianBlur stdDeviation="3"/>
<feComposite in2="hardAlpha" operator="out"/>
<feColorMatrix type="matrix" values="0 0 0 0 0 0 0 0 0 0 0 0 0 0 0 0 0 0 0.1 0"/>
<feBlend mode="normal" in2="BackgroundImageFix" result="effect1_dropShadow_1101_3735"/>
<feBlend mode="normal" in="SourceGraphic" in2="effect1_dropShadow_1101_3735" result="shape"/>
</filter>
<filter id="filter5_d_1101_3735" x="92.1183" y="373.633" width="21.2449" height="22.6428" filterUnits="userSpaceOnUse" color-interpolation-filters="sRGB">
<feFlood flood-opacity="0" result="BackgroundImageFix"/>
<feColorMatrix in="SourceAlpha" type="matrix" values="0 0 0 0 0 0 0 0 0 0 0 0 0 0 0 0 0 0 127 0" result="hardAlpha"/>
<feOffset dy="1"/>
<feGaussianBlur stdDeviation="0.4"/>
<feColorMatrix type="matrix" values="0 0 0 0 0 0 0 0 0 0 0 0 0 0 0 0 0 0 0.5 0"/>
<feBlend mode="normal" in2="BackgroundImageFix" result="effect1_dropShadow_1101_3735"/>
<feBlend mode="normal" in="SourceGraphic" in2="effect1_dropShadow_1101_3735" result="shape"/>
</filter>
<clipPath id="clip0_1101_3735">
<rect width="1164" height="880" fill="white"/>
</clipPath>
<clipPath id="clip1_1101_3735">
<rect x="106" y="164" width="102" height="102" rx="51" fill="white"/>
</clipPath>
<clipPath id="clip2_1101_3735">
<rect x="106" y="340" width="102" height="102" rx="51" fill="white"/>
</clipPath>
<clipPath id="clip3_1101_3735">
<rect width="243.053" height="351.712" fill="white" transform="matrix(-1 0 0 1 261.441 314.586)"/>
</clipPath>
<clipPath id="clip4_1101_3735">
<rect x="106" y="516" width="102" height="102" rx="51" fill="white"/>
</clipPath>
<clipPath id="clip5_1101_3735">
<rect width="243.053" height="351.712" fill="white" transform="matrix(-1 0 0 1 339.161 490.586)"/>
</clipPath>
<clipPath id="clip6_1101_3735">
<rect x="106" y="692" width="102" height="102" rx="51" fill="white"/>
</clipPath>
<clipPath id="clip7_1101_3735">
<rect x="106" y="868" width="102" height="102" rx="51" fill="white"/>
</clipPath>
</defs>
</svg>
