<svg width="536" height="364" viewBox="0 0 536 364" fill="none" xmlns="http://www.w3.org/2000/svg">
<mask id="mask0_1040_4456" style="mask-type:alpha" maskUnits="userSpaceOnUse" x="296" y="4" width="240" height="240">
<path d="M415.999 244C482.272 244 535.997 190.274 535.997 124C535.997 57.7258 482.272 4 415.999 4C349.725 4 296 57.7258 296 124C296 190.274 349.725 244 415.999 244Z" fill="white"/>
</mask>
<g mask="url(#mask0_1040_4456)">
<path d="M415.999 244C482.272 244 535.997 190.274 535.997 124C535.997 57.7258 482.272 4 415.999 4C349.725 4 296 57.7258 296 124C296 190.274 349.725 244 415.999 244Z" fill="#F2F6FB"/>
<path d="M393.735 117.03L411.847 111.641C438.185 107.744 461.365 118.937 468.012 143.147L497.017 265.521L497.257 266.533H457.779H388.842L363.326 180.539C356.597 156.246 369.807 123.829 393.735 117.03Z" fill="#88807B"/>
<path d="M379.524 125.681C379.524 125.681 377.946 131.983 386.337 130.241C394.729 128.5 397.138 127.671 397.138 127.671L394.978 121.95L379.524 125.681Z" fill="#482D1F"/>
<path d="M474.242 255.02C480.723 242.584 487.563 212.357 494.764 164.338L449.654 167.397C444.832 185.463 442.421 194.496 442.421 194.496L425.472 114.157C421.318 106.695 412.843 111.006 403.87 118.966C403.372 119.463 392.82 113.991 392.654 114.157C398.802 149.476 396.144 186.869 402.292 222.188C406.031 242.039 412.862 257.509 422.787 268.598C425.956 272.139 430.105 274.664 434.71 275.855C451.556 280.214 464.733 273.269 474.242 255.02Z" fill="#DB9E75"/>
<path d="M442.754 194.58L450.98 222.271" stroke="#482D1F" stroke-width="2.47797" stroke-linecap="round" stroke-linejoin="round"/>
<path d="M423.728 123.775C423.396 123.94 422.898 124.106 422.482 124.023L400.797 124.604L385.593 124.935C380.442 127.008 369.641 130.49 368.478 123.111C368.478 123.111 382.768 117.225 392.821 112.913L393.569 112.25C394.234 111.67 394.815 111.338 395.646 111.089C395.812 111.007 395.978 111.007 396.145 111.007L400.133 110.426L408.773 109.183L414.423 108.353L418.577 107.773C422.399 107.193 425.805 110.26 425.722 114.074L425.639 119.132C426.221 120.956 425.39 123.111 423.728 123.775Z" fill="#DB9E75"/>
<path d="M497.816 151.497C496.919 170.444 493.318 177.123 475.096 176.044C465.709 175.505 448.176 180.427 442.448 173.572C439.825 170.414 423.237 112.361 441.459 113.439C459.819 114.44 498.713 132.473 497.816 151.497Z" fill="#88807B"/>
<path d="M403.042 121.608C403.042 121.608 405.693 127.54 397.126 127.28C388.56 127.019 386.042 126.62 386.042 126.62L387.174 120.612L403.042 121.608Z" fill="#482D1F"/>
<path d="M342.848 262.554C333.573 255.963 335.322 227.408 348.092 176.888C350.767 163.913 353.96 162.992 357.671 174.125C363.237 190.825 356.167 195.673 356.167 195.673L362.746 114.609C365.539 106.541 370.767 108.326 380.989 114.609C381.567 115.013 391.006 107.795 391.198 107.93C391.29 143.778 400.415 180.142 400.506 215.99C400.332 231.379 399.567 243.946 398.209 253.69V253.69C396.952 262.711 390.151 269.97 381.216 271.826C368.154 274.54 355.364 271.45 342.848 262.554Z" fill="#DB9E75"/>
<path d="M355.854 195.812L352.573 224.509" stroke="#482D1F" stroke-width="2.47797" stroke-linecap="round" stroke-linejoin="round"/>
<path d="M363.732 127.458C364.089 127.564 364.608 127.641 365.003 127.487L386.459 124.301L401.49 121.993C406.924 123.142 418.167 124.699 418.028 117.231C418.028 117.231 402.931 113.91 392.28 111.406L391.428 110.883C390.673 110.426 390.042 110.201 389.181 110.1C389.003 110.047 388.839 110.076 388.675 110.104L384.647 110.224L375.921 110.496L370.213 110.659L366.021 110.807C362.156 110.898 359.335 114.509 360.081 118.251L361.043 123.217C360.787 125.114 361.981 127.093 363.732 127.458Z" fill="#DB9E75"/>
<path d="M388.012 114.308C379.445 114.047 375.495 109.897 376.238 110.297L400.188 110.297C397.782 113.145 393.723 114.482 388.012 114.308Z" fill="#482D1F"/>
<path d="M357.602 178.892C352.574 178.892 343.772 177.019 340.733 174.293C337.525 171.426 340.89 130.13 361.905 124.917L357.602 178.892Z" fill="#88807B"/>
<path d="M446.104 70.8912C455.635 80.5639 464.721 95.0961 460.86 101.789C458.098 106.629 452.268 108.161 446.197 109.627C440.49 111.02 429.335 112.844 414.778 108.436C410.632 106.898 406.347 105.238 402.222 103.62" fill="#482D1F"/>
<path d="M370.194 68.1886C361.893 72.8358 352.812 80.7078 354.053 86.0179C354.937 89.7735 358.568 91.9462 362.28 94.1403C365.772 96.1899 372.907 99.7286 383.568 99.7467C386.715 99.5582 389.804 99.2682 392.972 98.9996" fill="#482D1F"/>
<path d="M425.109 91.8324C422.828 93.2816 420.484 93.6838 418.911 93.7773C417.943 93.8612 417.108 94.4101 416.733 95.168L412.872 109.25C412.872 109.25 410.237 109.138 409.692 109.249C408.215 109.626 404.635 110.469 396.844 111.3C389.374 112.218 389.839 112.085 389.315 112.116C383.895 112.123 379.583 110.882 378.802 110.587C372.191 108.3 367.611 93.9385 368.823 75.2913C368.888 73.7636 369.195 72.3003 369.42 70.8156L372.62 56.3064C373.318 53.0596 374.818 50.0278 377.094 47.6329C378.058 46.6035 379 45.6542 379.959 44.9666C391.185 36.1279 406.109 41.4145 408.752 42.4659C409.073 42.5519 409.372 42.718 409.693 42.804C412.549 44.3419 415.213 45.3132 418.123 46.0071C419.407 46.3511 420.171 47.6719 419.908 48.9749L414.815 69.587C414.38 71.5308 416.348 73.174 418.194 72.3811C418.194 72.3811 418.275 72.4026 418.296 72.3225C418.58 72.2268 420.587 71.4769 422.796 71.8972C426.733 72.6089 429.93 76.7275 430.323 81.0392C430.79 85.7143 428.347 89.6955 425.109 91.8324Z" fill="#DB9E75"/>
<path d="M372.409 74.5836C372.506 73.5797 371.897 72.6443 370.934 72.3868C370.292 72.2151 369.644 72.3853 369.103 73.4421C367.853 75.8546 369.351 80.2037 370.782 79.0411C371.842 78.2947 372.204 75.988 372.409 74.5836Z" fill="#482D1F"/>
<path d="M386.812 75.8087C386.909 74.8048 386.3 73.8694 385.337 73.6119C384.695 73.4402 384.048 73.6104 383.506 74.6672C382.256 77.0797 383.755 81.4288 385.185 80.2662C386.267 79.4397 386.709 77.1544 386.812 75.8087Z" fill="#482D1F"/>
<path d="M378.455 90.9127C379.06 90.9028 380.553 90.787 381.03 89.9705C381.073 89.8103 381.218 89.5915 381.181 89.4099C380.989 88.8436 379.881 88.8048 378.393 88.5788C375.761 88.1323 373.739 87.3342 373.739 87.3342C373.739 87.3342 373.951 89.1075 374.244 89.6152C374.703 91.1112 377.508 90.9169 378.455 90.9127Z" fill="#482D1F"/>
<path d="M367.533 67.8761C366.719 67.6386 366.475 66.6186 367.105 66.091C367.908 65.4953 369.222 64.7778 370.885 64.8397C374.293 64.9708 377.843 67.2782 374.1 68.1166C371.71 68.7402 369.083 68.2612 367.533 67.8761Z" fill="#482D1F"/>
<path d="M446.91 60.2053C445.314 56.8601 443.052 54.7105 442.079 53.8495C436.717 49.1539 431.552 49.4896 419.418 45.9876C416.93 45.3224 413.201 44.1537 408.756 42.45C408.414 42.4443 408.114 42.2784 407.793 42.1925C405.15 41.1426 390.679 36.4148 380.013 45.0647C379.97 45.2248 378.262 46.1414 378.379 46.3445C378.379 46.3445 378.395 46.6062 378.55 46.9909C378.513 46.8093 378.497 46.5476 378.46 46.3659C379.893 47.4358 381.518 49.072 383.577 50.0518C389.375 52.8038 394.85 53.2376 398.238 53.1135C398.684 55.293 399.388 57.7987 400.514 60.3315C403.732 67.8871 408.832 72.5983 412.217 75.0484C411.251 77.3651 410.285 79.6818 409.34 81.9184C409.742 82.0257 410.063 82.1115 410.485 82.1387C410.485 82.1387 416.977 81.9863 418.376 85.1069C418.685 85.8763 418.652 86.64 418.523 87.1205C417.466 93.6189 411.137 100.853 412.43 103.087C413.738 105.583 424.733 103.716 433.662 97.6918C436.088 96.0231 442.634 91.5073 446.391 82.6409C447.368 79.6406 451.506 69.6745 446.91 60.2053Z" fill="#482D1F"/>
<path d="M383.797 69.5512C383.038 69.1764 382.975 68.1296 383.767 67.7406C384.662 67.2931 386.081 66.8141 387.787 67.1847C391.121 67.9043 394.195 70.8721 390.384 70.969C387.842 71.1475 385.338 70.2206 383.797 69.5512Z" fill="#482D1F"/>
<path d="M406.206 83.655L412.13 75.368C412.13 75.368 413.941 73.1057 417.127 71.8117C417.411 71.7159 419.419 70.9653 421.629 71.3845C425.567 72.0942 428.762 76.2103 429.153 80.5207C429.662 85.0342 427.238 88.9354 424.078 91.0946C420.917 93.2538 417.514 93.1162 416.406 93.0775L412.254 91.8816" fill="#DB9E75"/>
<path d="M378.308 69.673L377.2 74.4409L373.936 82.7524C373.807 83.2329 373.999 83.7993 374.459 84.0081C375.481 84.3672 376.444 84.6247 378.29 85.1182" stroke="#482D1F" stroke-width="1.65198" stroke-linecap="round" stroke-linejoin="round"/>
<path d="M423.727 103.619L423.029 110.385L413.011 109.251C411.582 109.127 410.658 107.764 410.863 106.36L411.397 103.412L413.726 97.9407L423.727 103.619Z" fill="#482D1F"/>
</g>
<mask id="mask1_1040_4456" style="mask-type:alpha" maskUnits="userSpaceOnUse" x="6" y="124" width="240" height="240">
<path d="M126.001 364C59.728 364 6.00276 310.274 6.00276 244C6.00276 177.726 59.728 124 126.001 124C192.275 124 246 177.726 246 244C246 310.274 192.275 364 126.001 364Z" fill="white"/>
</mask>
<g mask="url(#mask1_1040_4456)">
<path d="M126.001 364C59.728 364 6.00276 310.274 6.00276 244C6.00276 177.726 59.728 124 126.001 124C192.275 124 246 177.726 246 244C246 310.274 192.275 364 126.001 364Z" fill="#F2F6FB"/>
<path d="M187.539 324.771C187.596 328.492 187.643 332.332 187.643 336.217C187.643 336.217 189.302 352.849 181.761 359.809C180.932 360.615 179.951 361.201 179.122 361.714C177.388 362.74 175.879 363.18 175.879 363.18C175.879 363.18 175.804 363.253 175.729 363.253C163.664 366.477 153.785 365.524 148.582 365.671C131.842 366.037 118.268 365.964 106.505 365.597C99.3411 365.378 68.952 367.356 65.1062 361.787C65.0308 361.641 64.9554 361.494 64.88 361.348C64.2013 359.809 63.6735 357.904 63.2964 355.633C63.221 355.413 63.1456 355.12 63.1456 354.9C61.8996 347.505 61.7815 336.763 63.0468 323.896L26.8353 320.931C24.465 320.736 22.6499 318.744 22.6813 316.371C22.8428 304.184 23.5043 295.835 24.6659 291.326C30.0365 270.476 40.2996 261.457 41.2061 258.228C46.3591 239.578 51.4813 232.959 53.5526 230.963C55.9319 228.596 58.2228 226.981 59.7491 225.954C70.0499 219.134 80.85 218.268 86.3565 218.214C86.5086 218.141 86.6594 218.144 86.8102 218.146L113.582 218.236C115.761 218.182 116.204 218.097 115.774 218.59C119.048 218.142 122.791 217.691 126.865 217.304C132.926 217.395 138.426 217.725 143.365 218.292L165.88 218.608C166.031 218.608 166.182 218.608 166.333 218.683C171.837 218.834 182.621 219.887 192.801 226.886C194.309 227.939 196.571 229.594 198.909 232.002C200.945 234.034 205.95 240.741 210.776 259.478C211.626 262.722 221.73 271.918 226.735 292.859C227.818 297.388 228.333 305.747 228.281 317.935C228.271 320.308 226.422 322.269 224.048 322.421L187.539 324.771H187.539Z" fill="#474961"/>
<path d="M58.2442 361.192L59.677 360.439L84.7122 347.12C84.7122 347.12 145.415 332.988 180.329 326.516C186.361 322.227 222.255 323.191 223.235 322.213C225.724 346.142 228.889 370.032 198.59 370.032L46.5561 367.437L58.2442 361.192Z" fill="#F2A98A"/>
<path d="M82.149 300.766C83.6572 295.875 90.8962 273.375 92.6306 268.709" stroke="#482D1F" stroke-width="2.24902" stroke-linecap="round" stroke-linejoin="round"/>
<path d="M170.472 268.709L180.864 324.22" stroke="#482D1F" stroke-width="2.24902" stroke-linecap="round" stroke-linejoin="round"/>
<path d="M120.427 191.104L138.023 198.051L138.174 201.738V201.813L137.722 222.281C137.722 222.883 137.269 223.485 136.666 223.635C133.65 224.538 128.296 225.592 122.037 224.162C118.568 223.41 115.778 222.055 113.817 220.851C113.365 220.625 113.139 220.099 113.139 219.572L113.942 196.033C111.787 193.852 108.754 190.615 106.955 187.967C105.447 185.785 100.47 180.517 99.113 171.939C98.736 169.079 97.3032 159.448 103.26 151.998C105.372 149.364 107.785 148.01 108.841 147.483C114.496 144.473 118.945 145.827 130.181 145.376C131.086 145.301 132.594 145.301 134.479 145.15C137.948 144.924 140.361 144.623 141.039 144.548C146.62 143.946 158.76 145 164.566 153.051C164.868 153.578 165.245 154.105 165.622 154.556C164.114 155.234 162.38 156.287 160.419 156.739C154.839 157.943 150.013 157.115 146.997 156.287C141.643 162.006 136.289 167.725 130.935 173.369C128.08 177.358 123.638 185.228 120.427 191.104Z" fill="#F2A98A"/>
<path d="M139.234 206.63L127.395 204.447L137.651 216.939L139.234 206.63Z" fill="#482D1F"/>
<path d="M168.792 165.017L168.49 178.487C168.415 179.841 168.339 181.196 168.038 182.55C166.379 192.107 163.287 200.083 159.818 205.2C157.254 209.038 154.389 211.296 151.674 211.521C150.92 211.672 146.848 211.822 142.098 210.618C141.645 210.468 142.022 210.694 135.613 208.286C133.124 207.383 131.164 206.63 129.655 205.953C126.941 204.824 125.508 204.072 124.754 203.62C124.226 203.394 124.075 203.244 124.075 203.244C120.531 196.471 117.515 190.301 114.951 184.883C113.443 181.647 111.859 178.412 112.689 174.423C112.99 172.843 113.82 168.93 117.289 166.898C120.682 164.942 124.452 165.92 125.508 166.221C126.941 166.597 128.072 167.199 128.75 167.651L128.675 148.387C128.675 147.183 129.655 146.13 130.862 146.13C133.501 146.054 136.14 145.829 138.93 145.076C139.232 145.001 139.534 145.001 139.835 144.926C142.399 144.549 156.727 143.044 164.72 153.278C165.474 154.106 166.077 155.084 166.68 156.288C168.113 159.073 168.867 162.007 168.792 165.017Z" fill="#F2A98A"/>
<path d="M165.624 154.556C164.116 155.233 162.381 156.287 160.345 156.738C154.69 157.942 149.713 157.115 146.697 156.287C141.267 162.006 133.877 169.606 128.373 175.325C118.117 175.776 109.822 174.271 99.567 174.723C99.567 174.723 98.5868 173.669 98.0589 172.089C97.3048 169.832 95.7213 160.125 102.282 152.148C104.393 149.514 106.882 148.16 107.937 147.633C113.668 144.623 118.193 145.978 129.655 145.526C130.559 145.451 132.068 145.451 134.028 145.3C137.572 145.075 139.985 144.774 140.739 144.698C146.395 144.096 158.762 145.15 164.643 153.202C164.87 153.578 165.247 154.105 165.624 154.556Z" fill="#482D1F"/>
<path d="M130.334 182.85L129.354 173.218C129.354 173.218 128.901 170.509 126.865 167.951C126.714 167.8 125.357 166.22 123.321 165.543C119.702 164.339 115.177 166.22 112.764 169.606C110.276 173.068 110.502 177.508 112.161 180.819C113.82 184.13 116.685 185.484 117.666 185.936L121.662 186.763L130.334 182.85Z" fill="#F2A98A"/>
<path d="M162.821 176.295C162.821 175.393 163.425 174.565 164.33 174.414C164.933 174.339 165.461 174.49 165.838 175.468C166.818 177.8 165.159 181.563 163.877 180.434C163.123 179.682 162.897 177.575 162.821 176.295Z" fill="#482D1F"/>
<path d="M149.324 176.146C149.399 175.243 150.153 174.49 151.058 174.49C151.661 174.49 152.189 174.716 152.491 175.694C153.245 178.102 151.133 181.714 150.002 180.435C149.248 179.532 149.248 177.425 149.324 176.146Z" fill="#482D1F"/>
<path d="M152.957 194.89C152.429 194.74 151.147 194.363 150.921 193.536C150.921 193.385 150.846 193.159 150.921 193.009C151.223 192.482 152.127 192.783 153.485 192.858C155.898 193.009 157.858 192.783 157.858 192.783C157.858 192.783 157.331 194.288 156.954 194.74C156.124 195.868 153.711 195.116 152.957 194.89Z" fill="#482D1F"/>
<path d="M166.466 172.569C167.22 172.419 167.446 171.44 166.918 170.914C166.239 170.312 165.033 169.71 163.525 169.71C160.433 169.71 157.115 171.741 160.584 172.644C162.62 173.246 165.033 172.87 166.466 172.569Z" fill="#482D1F"/>
<path d="M150.931 173.096C151.685 172.946 151.911 171.967 151.308 171.441C150.629 170.839 149.423 170.237 147.839 170.237C144.747 170.237 141.43 172.344 144.898 173.171C147.085 173.773 149.423 173.397 150.931 173.096Z" fill="#482D1F"/>
<path d="M157.331 175.25V179.69L158.462 187.741C158.537 188.193 158.16 188.644 157.708 188.72C156.727 188.795 155.823 188.87 154.088 188.87" stroke="#482D1F" stroke-width="1.49935" stroke-linecap="round" stroke-linejoin="round"/>
<path d="M110.426 173.594C110.049 176.002 110.501 178.56 111.557 180.592C113.216 183.903 116.081 185.257 117.062 185.709" stroke="#482D1F" stroke-width="1.49935" stroke-linecap="round" stroke-linejoin="round"/>
<path d="M102.388 283.348C108.897 256.534 113.278 240.642 115.529 235.67C117.754 230.758 118.076 234.352 119.637 236.393C120.446 237.451 120.119 234.84 121.377 235.061C123.834 235.494 125.281 237.151 125.718 240.035C127.895 241.294 128.812 242.893 128.469 244.833C128.221 246.239 130.188 249.151 126.043 266.434C124.571 272.574 128.479 280.969 126.966 287.546L127.028 287.557C123.297 301.547 111.077 323.041 90.3683 352.039C59.3047 395.536 32.908 372.75 25.8185 367.859C21.0921 364.598 21.0921 348.881 25.8185 320.708L60.1356 323.567L102.388 283.348Z" fill="#F2A98A"/>
<path d="M59.6055 323.567L52.1782 327.957" stroke="#482D1F" stroke-width="2.24902" stroke-linecap="round" stroke-linejoin="round"/>
<path d="M96.6287 343.066L77.7769 366.393" stroke="#482D1F" stroke-width="2.24902" stroke-linecap="round" stroke-linejoin="round"/>
</g>
<g filter="url(#filter0_d_1040_4456)">
<rect x="296" y="4" width="64" height="64" rx="32" fill="#FF0C46"/>
<path d="M321.774 22C319.459 22 317.017 22.8217 315.081 24.6464C313.145 26.4711 311.812 29.363 311.812 32.9271C311.812 40.316 323.333 50 328 50C332.667 50 344.187 40.3183 344.187 32.9271C344.187 29.363 342.855 26.4711 340.919 24.6464C338.983 22.8217 336.541 22 334.226 22C331.929 22 329.694 22.7436 328 24.3049C326.306 22.7436 324.071 22 321.774 22Z" fill="white"/>
</g>
<g filter="url(#filter1_d_1040_4456)">
<rect x="6" y="124" width="64" height="64" rx="32" fill="#FF0C46"/>
<path d="M31.774 142C29.4588 142 27.017 142.822 25.0811 144.646C23.1452 146.471 21.8125 149.363 21.8125 152.927C21.8125 160.316 33.3333 170 38 170C42.6667 170 54.1875 160.318 54.1875 152.927C54.1875 149.363 52.8547 146.471 50.9189 144.646C48.983 142.822 46.5412 142 44.226 142C41.9295 142 39.6944 142.744 38 144.305C36.3055 142.744 34.0705 142 31.774 142Z" fill="white"/>
</g>
<defs>
<filter id="filter0_d_1040_4456" x="290" y="0" width="76" height="76" filterUnits="userSpaceOnUse" color-interpolation-filters="sRGB">
<feFlood flood-opacity="0" result="BackgroundImageFix"/>
<feColorMatrix in="SourceAlpha" type="matrix" values="0 0 0 0 0 0 0 0 0 0 0 0 0 0 0 0 0 0 127 0" result="hardAlpha"/>
<feOffset dy="2"/>
<feGaussianBlur stdDeviation="3"/>
<feComposite in2="hardAlpha" operator="out"/>
<feColorMatrix type="matrix" values="0 0 0 0 0 0 0 0 0 0 0 0 0 0 0 0 0 0 0.1 0"/>
<feBlend mode="normal" in2="BackgroundImageFix" result="effect1_dropShadow_1040_4456"/>
<feBlend mode="normal" in="SourceGraphic" in2="effect1_dropShadow_1040_4456" result="shape"/>
</filter>
<filter id="filter1_d_1040_4456" x="0" y="120" width="76" height="76" filterUnits="userSpaceOnUse" color-interpolation-filters="sRGB">
<feFlood flood-opacity="0" result="BackgroundImageFix"/>
<feColorMatrix in="SourceAlpha" type="matrix" values="0 0 0 0 0 0 0 0 0 0 0 0 0 0 0 0 0 0 127 0" result="hardAlpha"/>
<feOffset dy="2"/>
<feGaussianBlur stdDeviation="3"/>
<feComposite in2="hardAlpha" operator="out"/>
<feColorMatrix type="matrix" values="0 0 0 0 0 0 0 0 0 0 0 0 0 0 0 0 0 0 0.1 0"/>
<feBlend mode="normal" in2="BackgroundImageFix" result="effect1_dropShadow_1040_4456"/>
<feBlend mode="normal" in="SourceGraphic" in2="effect1_dropShadow_1040_4456" result="shape"/>
</filter>
</defs>
</svg>
