<svg width="167" height="202" viewBox="0 0 167 202" fill="none" xmlns="http://www.w3.org/2000/svg">
<line x1="32.4007" y1="31.7009" x2="135.401" y2="169.701" stroke="#88807B"/>
<g clip-path="url(#clip0)">
<circle cx="32" cy="32" r="32" fill="#EEDDD4"/>
<g clip-path="url(#clip1)">
<path d="M57.9957 87.7891C60.9645 87.474 65.2014 87.0464 70.7063 86.5063C72.0224 86.3435 73.2719 84.9674 73.1865 83.5356C73.4544 80.0578 71.1382 73.1785 70.6339 71.7218C69.4807 68.4598 67.4048 62.1663 66.647 59.2667C64.5382 51.0621 61.9351 47.9977 61.0454 47.108C60.024 46.0536 59.0355 45.3287 58.3765 44.8674C53.9282 41.8031 49.2163 41.3417 46.811 41.2758C46.7451 41.2429 46.6792 41.2429 46.6133 41.2429L41.2257 41.167C38.4226 40.5143 35.6687 40.3043 33.422 40.1353C30.134 39.9062 26.7394 39.6646 23.391 40.0923L14.2232 40.2214C14.1573 40.2214 14.0914 40.2214 14.0255 40.2544C11.6201 40.3203 6.90827 40.7816 2.45999 43.846C1.80099 44.3073 0.812485 45.0322 -0.208969 46.0866C-1.09863 46.9762 -3.70169 50.0406 -5.8105 58.2452C-6.56835 61.1448 -8.64421 67.4383 -9.79747 70.7004C-10.1551 71.7336 -10.9199 75.0687 -12.0918 80.7059C-12.19 80.8571 -12.2589 81.0219 -12.2925 81.1974C-12.3164 81.3469 -12.3129 81.4949 -12.285 81.6384C-12.3478 81.9423 -12.4117 82.2523 -12.4766 82.5685C-12.2069 82.5735 -11.9382 82.579 -11.6705 82.5851C-11.2967 82.8852 -10.7837 83.0956 -10.1993 83.1541L-1.26079 84.1012C-2.70332 93.0219 -2.87284 100.504 -2.06493 105.181C-2.06493 105.285 -2.02835 105.423 -1.99177 105.527C-1.80885 106.597 55.08 107.874 55.4825 107.495C59.1409 104.215 58.3361 96.3773 58.3361 96.3773C58.2215 93.3072 58.108 90.4489 57.9957 87.7891Z" fill="#8D6047"/>
<path d="M36.1349 48.5049L30.7079 45.2632L27.0137 49.1541L27.0178 49.1884C27.1114 49.9662 27.6446 50.5838 28.3388 50.8226L28.8377 84.7055C28.8391 84.7989 28.8801 84.8874 28.9505 84.9489L34.1156 89.4577C34.2512 89.5761 34.4568 89.5637 34.5772 89.4299L39.2567 84.2296C39.3212 84.158 39.3511 84.0618 39.3385 83.9663L34.8912 50.1426C35.5763 49.8739 36.0599 49.2397 36.1349 48.5049Z" fill="#F69A66"/>
<path opacity="0.176986" d="M30.1239 39.6582C32.0058 39.9929 38.9473 40.0712 39.1452 42.3334C39.2772 43.8415 39.2062 46.4557 38.9322 50.176L30.7077 45.2633L24.6627 51.63C21.1248 45.9793 20.5596 42.4514 22.967 41.0463C26.5782 38.9386 28.242 39.3234 30.1239 39.6582Z" fill="#8C2A00"/>
<path d="M23.7007 32.5655L25.3177 42.7187C25.3617 42.9451 25.5027 43.1527 25.7157 43.212C26.6572 43.5661 27.9672 43.9156 29.5179 43.9499C32.322 44.0426 34.5304 43.1434 35.7488 42.5037C35.995 42.3888 36.1387 42.0923 36.0884 41.8335L35.1114 36.1396C36.939 36.4423 36.8314 36.3973 37.0086 36.4204C39.147 36.5418 40.881 36.1376 41.1919 36.0101C42.3374 35.6867 43.3779 34.4774 44.157 32.6141C45.2173 30.1254 45.877 26.4391 45.7901 22.193C45.8063 21.5857 45.7255 20.9972 45.6447 20.4087L44.6487 14.5938C44.4295 13.2937 43.8609 12.0951 43.0137 11.0178C42.6543 10.5506 42.3138 10.1804 41.9212 9.88751C39.4824 7.76248 36.4808 7.44422 34.1506 7.63352C32.9065 7.71404 31.8019 7.93645 31.0232 8.17704C30.7384 8.26597 29.7285 8.59654 28.2595 8.98279C27.4635 9.20466 26.8166 9.3304 26.4347 9.43819C21.6531 10.5691 19.6316 10.3578 17.4572 12.1231C17.0484 12.4376 16.1265 13.221 15.4409 14.5291C13.5081 18.2279 14.9274 22.2486 15.328 23.4462C16.627 27.0204 19.2019 28.8696 20.0311 29.6818C21.0236 30.6696 22.5941 31.8076 23.7007 32.5655ZM71.3911 99.9186L69.567 86.6056L61.3359 87.399L57.852 87.7832L58.0629 95.3563C56.7135 95.1514 55.4974 95.0805 54.4146 95.1437C46.4659 93.2642 23.368 87.9017 10.2742 85.8995L10.3442 85.2408L-10.4298 83.0395C-11.0141 82.981 -11.5272 82.7706 -11.901 82.4706C-12.0167 82.4679 -12.1325 82.4654 -12.2486 82.463C-13.5154 92.3263 -12.4969 104.665 -0.689125 108.117H52.5312C52.5267 108.133 52.5219 108.149 52.5166 108.164H76.9336C77.0683 104.95 75.2209 102.201 71.3911 99.9186Z" fill="#DB9E75"/>
<path d="M35.1846 36.1662L30.1674 35.0298L35.6384 39.0645L35.1846 36.1662Z" fill="#482D1F"/>
<path d="M42.8132 22.9737C42.9525 23.5173 43.2255 24.4041 43.6119 24.6647C44.256 25.043 44.6533 23.2874 44.0379 22.3665C43.7944 21.9774 43.5554 21.9567 43.303 22.0394C42.9274 22.1795 42.7378 22.5856 42.8132 22.9737ZM37.0047 24.0021C37.0792 24.5583 37.2552 25.4639 37.6541 25.7892C38.2462 26.2447 38.8501 24.5161 38.3254 23.544C38.1143 23.1486 37.869 23.0956 37.6103 23.1459C37.2221 23.2214 36.9616 23.6077 37.0047 24.0021Z" fill="#482D1F"/>
<path d="M40.3336 28.7907C40.0946 28.77 39.5133 28.7152 39.3471 28.3783C39.3346 28.3136 39.2834 28.2228 39.3031 28.1518C39.3885 27.9003 39.8018 27.9542 40.3903 27.8734C41.4379 27.7369 42.26 27.4764 42.26 27.4764C42.26 27.4764 42.1593 28.1673 42.0353 28.3928C41.7738 28.9471 40.6759 28.8249 40.3336 28.7907Z" fill="#482D1F"/>
<path d="M41.2697 21.862L41.2578 21.8177L41.2653 21.8395L41.2697 21.862ZM42.4157 25.1843C42.5475 25.5372 42.3343 25.9504 41.9776 26.0835C41.8983 26.1067 41.8983 26.1067 41.8468 26.1209C41.3092 26.2689 40.971 26.3509 40.3853 26.4647C40.2067 26.4995 40.0337 26.3828 39.999 26.2042C39.9643 26.0255 40.0809 25.8526 40.2596 25.8179C40.8269 25.7076 41.1493 25.6294 41.6718 25.4856L41.7749 25.4572C41.7755 25.4556 41.7976 25.4127 41.7954 25.4067L40.6346 22.0321L40.6228 21.9878L40.2518 20.0794C40.2171 19.9008 40.3338 19.7278 40.5124 19.6931C40.691 19.6584 40.864 19.775 40.8987 19.9537L41.2653 21.8395L42.4157 25.1843Z" fill="#482D1F"/>
<path d="M20.6412 23.1709C20.6774 24.1474 21.0485 25.146 21.64 25.8921C22.3661 26.8361 23.213 27.2633 24.249 27.5173C24.4257 27.5606 24.5339 27.739 24.4906 27.9158C24.4472 28.0925 24.2688 28.2007 24.0921 28.1573C23.6365 28.0456 23.2685 27.9239 22.8265 27.701C22.1755 27.3725 21.595 26.9145 21.1207 26.2977C20.4453 25.4459 20.024 24.3125 19.9827 23.1952C19.9759 23.0134 20.1179 22.8605 20.2998 22.8538C20.4816 22.8471 20.6345 22.989 20.6412 23.1709Z" fill="#482D1F"/>
<path d="M20.6237 23.0583C20.6254 22.4601 20.7456 21.8523 21.014 21.2676C21.7661 19.6109 23.5496 18.425 25.2027 18.6407C26.1326 18.7621 26.8469 19.3282 26.9241 19.3803C27.2325 19.6441 27.4872 19.9237 27.6939 20.1889L44.8408 15.5568C44.4629 11.8352 42.5775 9.36812 39.1844 8.15554C38.2677 7.82793 35.7968 7.34545 33.6452 7.62461C30.324 8.05551 27.1318 8.96886 26.2348 9.21133C25.5034 9.42063 24.2561 9.54581 23.919 9.6449C20.2558 9.99477 17.4801 11.6192 16.529 12.468C16.1724 12.7723 15.3413 13.5381 14.7602 14.8259C12.9371 18.7383 14.3491 22.794 14.8238 23.7087C15.1562 24.349 15.6162 24.7295 15.6162 24.7295C16.9867 24.3915 18.6559 23.8344 20.6237 23.0583ZM44.5004 19.6246C44.8112 19.4971 44.8265 19.0577 44.5561 18.8753C44.2147 18.6732 43.6469 18.515 43 18.6407C41.6739 18.8985 40.4204 20.0485 41.9838 20.1474C42.9074 20.2364 43.9172 19.9058 44.5004 19.6246ZM37.8813 21.1462C38.1922 21.0187 38.2075 20.5793 37.9047 20.4032C37.5633 20.201 36.9955 20.0429 36.3163 20.1749C34.9902 20.4327 33.743 21.615 35.3 21.6815C36.2946 21.7903 37.2596 21.4013 37.8813 21.1462Z" fill="#482D1F"/>
</g>
</g>
<circle cx="135" cy="170" r="32" fill="#EEDDD4"/>
<defs>
<clipPath id="clip0">
<rect width="64" height="64" rx="32" fill="white"/>
</clipPath>
<clipPath id="clip1">
<rect width="172" height="249.103" fill="white" transform="matrix(-1 0 0 1 159 -21)"/>
</clipPath>
</defs>
</svg>
