<svg width="278" height="304" viewBox="0 0 278 304" fill="none" xmlns="http://www.w3.org/2000/svg">
<line x1="47.6237" y1="255.671" x2="229.624" y2="47.6707" stroke="#F69A66"/>
<circle cx="230" cy="48" r="48" fill="#88807B"/>
<g clip-path="url(#clip0)">
<circle cx="48" cy="256" r="48" fill="#EEDDD4"/>
<path d="M24.0528 264.454C21.6026 264.076 19.019 264.151 16.4273 264.751C6.11476 267.096 -0.432718 276.791 1.78724 286.397C2.87358 291.093 5.87014 294.896 9.85413 297.27L6.76421 330.579C6.31552 335.839 7.68639 340.859 10.4243 344.909C10.8099 345.489 11.2347 346.062 11.6525 346.595C12.1166 347.161 12.6199 347.72 13.1162 348.239C13.6588 348.791 14.2406 349.336 14.8547 349.835L57.603 342.297C57.8524 341.646 58.1019 340.995 58.2983 340.272C58.5085 339.628 58.6725 338.952 58.7973 338.282C58.929 337.652 59.0145 336.989 59.1001 336.326C59.1186 336.202 59.1371 336.077 59.1555 335.952L63.4383 295.255L71.7056 294.718C72.426 294.672 73.0103 294.083 72.9711 293.402L72.8399 290.592C72.8327 290.467 72.8059 290.347 72.7626 290.237C73.9528 289.192 75.0024 288.005 75.8376 286.704C77.0454 284.832 77.8516 282.747 78.1382 280.47C79.2986 271.442 71.7584 263.341 61.3171 262.43C57.1145 262.063 53.0729 262.907 49.668 264.635C47.9556 263.844 46.1405 263.324 44.2516 263.135L35.2049 262.099C31.1432 262.21 27.3599 263.017 24.0528 264.454V264.454Z" fill="#474961"/>
<path opacity="0.176986" d="M63.4983 295.251L71.7055 294.718C72.426 294.672 73.0102 294.083 72.9711 293.402L72.8399 290.592C72.8326 290.467 72.8059 290.347 72.7626 290.236C73.9528 289.192 75.0023 288.005 75.8375 286.704C77.0454 284.832 77.8516 282.747 78.1382 280.47C79.2986 271.442 71.7584 263.341 61.3171 262.429C57.0912 262.061 53.0281 262.916 49.6114 264.664C58.7146 268.798 64.9443 280.566 63.9722 290.749L63.4983 295.251Z" fill="#444444"/>
<path d="M64.931 263.576C64.931 263.576 66.2029 266.428 62.0928 266.303C57.9828 266.177 56.7752 265.986 56.7752 265.986L57.3182 263.097L64.931 263.576Z" fill="#482D1F"/>
<path d="M49.8882 258.193C50.0236 258.205 50.1576 258.215 50.2901 258.223L49.8773 258.236L49.8882 258.193ZM38.2652 253.713L37.208 253.489L33.9048 262.531L42.1677 263.602L40.9212 301.404C40.9212 301.404 39.8051 298.889 38.1335 294.292C38.0961 294.312 38.0574 294.331 38.0174 294.347L17.161 303.003C17.0731 303.04 16.9835 303.066 16.8934 303.084C18.1877 305.981 19.6399 309.484 21.168 313.104C25.1221 322.444 26.2714 326.896 30.9787 332.704C36.3556 339.325 40.1586 338.857 41.7472 339.143C45.3122 339.85 48.6143 339.066 50.6048 338.188C52.9946 337.144 57.3951 335.364 60.0318 327.625L59.1555 335.952C59.137 336.077 59.1185 336.202 59.1 336.326C59.0145 336.989 58.9289 337.652 58.7972 338.282C58.6725 338.952 58.5084 339.628 58.2982 340.272C58.1018 340.995 57.8524 341.646 57.6029 342.297L52.5746 343.184L117.74 331.778C117.923 331.746 118.08 331.655 118.195 331.527C127.849 323.092 132.322 317.164 131.614 313.743C128.258 313.822 123.472 313.962 117.258 314.162C113.397 314.287 109.574 314.972 105.91 316.197L94.39 320.047C85.0374 318.77 72.5675 317.127 69.5049 317.005L70.8079 294.777L63.4382 295.255L62.1283 307.702C61.6403 293.323 58.5495 278.796 57.8625 264.406L62.0103 263.767C64.6171 264.32 70.0109 265.069 69.9444 261.478C69.9444 261.478 62.7012 259.881 57.5915 258.678L57.1828 258.426C56.8203 258.207 56.5178 258.098 56.1045 258.049C56.0191 258.024 55.9406 258.038 55.8621 258.052L53.9294 258.109L53.6591 258.118C54.29 258.038 54.7234 257.945 54.8779 257.901C58.1154 257.088 60.8821 250.407 61.07 241.429C61.1015 240.695 61.016 239.982 60.9695 239.261L60.0428 232.18C59.844 230.596 59.2548 229.08 58.2709 227.837C57.8548 227.304 57.4456 226.809 57.0181 226.439C52.0421 221.731 44.7289 223.628 43.4294 224.019C43.2732 224.046 43.124 224.113 42.9678 224.141C41.5467 224.755 40.2402 225.107 38.828 225.316C38.2034 225.426 37.7859 226.026 37.8576 226.661L39.4344 236.744C39.5615 237.693 34.4806 236.727 34.4736 236.688C31.8834 235.364 30.6567 245.173 32.07 246.34C33.0949 247.131 35.7506 248.039 36.4948 248.15C36.9519 248.232 37.3264 248.53 37.4737 248.909C37.5566 250.944 37.8205 252.545 38.2652 253.713Z" fill="#DB9E75"/>
<path opacity="0.2" d="M70.8146 294.809L63.4449 295.287L59.1622 335.984C59.1437 336.109 59.1252 336.234 59.1067 336.358C59.0212 337.021 58.9356 337.684 58.8039 338.314C58.6791 338.984 58.5151 339.66 58.3049 340.304C58.1085 341.027 57.8591 341.678 57.6096 342.329L52.5813 343.216L117.747 331.81C117.929 331.778 118.087 331.687 118.202 331.559C127.856 323.124 132.329 317.196 131.62 313.775C128.264 313.854 123.479 313.994 117.265 314.194C113.404 314.319 109.581 315.004 105.917 316.229L94.3967 320.079C85.0441 318.803 72.5742 317.159 69.5115 317.037L70.8146 294.809Z" fill="#8C2A00"/>
<path d="M22.9467 237.357C18.4949 241.551 14.5444 247.256 15.9653 250.313C17.0895 252.786 19.844 253.717 22.6448 254.68C24.9048 255.447 29.0188 256.525 34.5625 255.925C34.563 255.93 34.5634 255.934 34.5638 255.938C35.8938 255.906 37.1846 255.88 38.5146 255.848C39.1958 255.809 39.7408 255.227 39.6624 254.553C39.2169 253.174 38.7715 251.796 38.326 250.417C38.0255 249.743 37.6824 248.886 37.4012 247.951C36.7478 247.91 35.2786 247.752 33.9856 246.69C32.5657 245.524 31.5707 243.554 32.0028 241.414C32.3702 239.365 34.07 237.528 35.9819 237.352C37.0556 237.244 37.9838 237.688 38.1154 237.745C39.0805 238.24 39.9451 238.998 40.4243 239.459C42.1455 238.416 44.7424 236.38 46.5763 232.934C47.0059 232.157 47.4694 231.037 47.9669 229.573C52.0332 229.77 55.2783 228.969 57.7021 227.168C56.9265 226.165 55.8452 225.325 54.4579 224.647C52.3771 223.631 52.145 223.505 49.7024 223.262C48.1736 223.11 45.3955 223.465 43.4591 224.013L43.3865 224.026C41.1905 224.656 39.3594 225.06 38.1425 225.274C32.1966 226.444 29.7421 226.067 26.9825 228.092C26.4814 228.464 25.3106 229.399 24.4075 230.934C23.1267 233.104 22.8513 235.404 22.9467 237.357ZM60.885 244.586C60.3343 250.15 59.0985 252.38 59.2997 252.345C59.5008 252.309 60.0723 252.492 63.9148 250.641C65.8198 249.738 67.6072 248.857 68.187 247.095C69.0024 244.604 64.5467 240.539 60.7741 237.966C61.184 240.291 61.1083 242.112 60.885 244.586ZM60.3706 233.807C60.7493 233.66 60.8232 233.161 60.5 232.934C60.0913 232.683 59.4333 232.394 58.6413 232.493C57.018 232.698 55.4177 233.952 57.2418 234.197C58.4101 234.396 59.6455 234.057 60.3706 233.807ZM52.8955 235.497C53.2742 235.35 53.3482 234.851 52.9857 234.631C52.577 234.38 51.919 234.091 51.0877 234.197C49.4644 234.402 47.871 235.695 49.6882 235.901C50.9351 236.086 52.1312 235.753 52.8955 235.497Z" fill="#482D1F"/>
<path d="M59.127 236.598C59.2838 237.262 59.5906 238.338 60.0913 238.665C60.8237 239.162 61.3577 237.016 60.6593 235.913C60.356 235.43 60.0393 235.375 59.7396 235.484C59.2902 235.648 59.0383 236.121 59.127 236.598ZM52.378 238.8C52.4974 239.478 52.8042 240.554 53.3423 240.867C54.0746 241.364 54.6087 239.218 53.9102 238.115C53.607 237.631 53.2903 237.577 52.9906 237.686C52.5411 237.85 52.2893 238.323 52.378 238.8Z" fill="#482D1F"/>
<path d="M41.4043 301.532C41.4414 301.204 41.2056 300.908 40.8775 300.87C40.5494 300.833 40.2532 301.069 40.2161 301.397L38.6486 315.233C38.6114 315.561 38.8473 315.857 39.1754 315.894C39.5035 315.931 39.7996 315.696 39.8368 315.367L41.4043 301.532ZM13.6264 299.453C13.6287 299.524 13.6437 299.596 13.6729 299.665L14.8584 302.489C15.2661 303.472 16.3979 303.925 17.3829 303.517C17.688 303.39 17.8327 303.04 17.7061 302.735C17.5796 302.43 17.2298 302.286 16.9248 302.412C16.5443 302.57 16.1153 302.398 15.9619 302.029L14.9427 299.6C15.0377 299.527 15.1114 299.423 15.1483 299.299C15.2424 298.983 15.0622 298.65 14.7457 298.556C12.9216 298.013 11.1677 297.184 9.61211 296.128C9.3389 295.943 8.96708 296.014 8.78161 296.287C8.59615 296.56 8.66728 296.932 8.94049 297.117C10.3752 298.091 11.9658 298.883 13.6264 299.453ZM36.9576 289.932C36.9645 289.958 36.9733 289.984 36.984 290.009L38.1694 292.834C38.3273 293.214 38.1554 293.643 37.7881 293.795C37.4831 293.922 37.3384 294.272 37.4649 294.577C37.5915 294.882 37.9413 295.026 38.2463 294.9C39.2293 294.492 39.6826 293.36 39.273 292.373L38.0866 289.547C38.0406 289.437 37.9658 289.348 37.8747 289.286C38.2385 288.645 38.5008 288.092 38.7037 287.542C38.886 287.049 39.0236 286.552 39.154 285.937C39.2429 285.519 39.294 285.239 39.4734 284.22C39.5306 283.895 39.3134 283.585 38.9882 283.528C38.663 283.47 38.3529 283.688 38.2957 284.013C38.1192 285.016 38.069 285.29 37.9843 285.689C37.865 286.25 37.7424 286.693 37.5819 287.128C37.3673 287.71 37.0724 288.305 36.6247 289.056C36.4555 289.34 36.5483 289.707 36.8319 289.876C36.8724 289.9 36.9145 289.919 36.9576 289.932ZM47.034 257.996C48.6041 258.407 49.7989 259.413 52.1049 259.241C53.9868 259.354 55.4277 258.574 56.1436 258.043C56.0582 258.017 55.9797 258.031 55.9012 258.045L53.9685 258.103C53.0656 258.262 51.5872 258.361 49.8162 258.187L47.034 257.996Z" fill="#482D1F"/>
<path d="M55.8373 248.504C55.5487 248.474 54.8398 248.356 54.6459 247.945C54.6321 247.867 54.5721 247.756 54.5975 247.67C54.713 247.407 55.2441 247.435 55.9645 247.389C57.2414 247.285 58.2412 246.987 58.2412 246.987C58.2412 246.987 58.0656 247.828 57.904 248.059C57.5829 248.763 56.2576 248.592 55.8373 248.504Z" fill="#482D1F"/>
<path d="M57.4828 240.618L57.4705 240.562L57.4787 240.589L57.4828 240.618ZM58.6822 244.679L58.6923 244.722C58.7679 245.15 58.5449 245.6 58.13 245.747C58.0529 245.768 58.0097 245.779 57.9663 245.789C57.5559 245.89 57.2586 245.946 56.1891 246.135C55.9723 246.173 55.7656 246.028 55.7274 245.812C55.6891 245.595 55.8339 245.388 56.0507 245.35C57.1013 245.164 57.3903 245.109 57.7772 245.015C57.8175 245.005 57.8577 244.995 57.8981 244.985C57.8893 244.986 57.9141 244.935 57.9092 244.876L56.7057 240.787L56.6934 240.73L56.3636 238.4C56.3327 238.182 56.4844 237.98 56.7024 237.95C56.9203 237.919 57.122 238.07 57.1529 238.288L57.4787 240.589L58.6822 244.679Z" fill="#482D1F"/>
</g>
<defs>
<clipPath id="clip0">
<rect y="208" width="96" height="96" rx="48" fill="white"/>
</clipPath>
</defs>
</svg>
