<svg width="1164" height="880" viewBox="0 0 1164 880" fill="none" xmlns="http://www.w3.org/2000/svg">
<path d="M1154 33H10C4.47715 33 0 37.8555 0 43.8451V869.155C0 875.144 4.47715 880 10 880H1154C1159.52 880 1164 875.144 1164 869.155V43.8451C1164 37.8555 1159.52 33 1154 33Z" fill="white"/>
<path d="M1082 137L81.9999 137C75.3724 137 69.9999 142.373 69.9999 149L69.9998 251C69.9998 257.627 75.1234 263 81.7508 263H1082.12C1088.74 263 1094 257.627 1094 251V149C1094 142.373 1088.63 137 1082 137Z" fill="#F2F6FB"/>
<rect x="199" y="164" width="232" height="14" rx="7" fill="#E1E5F0"/>
<rect x="199" y="193" width="341" height="14" rx="7" fill="#E1E5F0"/>
<rect x="199" y="222" width="388" height="14" rx="7" fill="#E1E5F0"/>
<g clip-path="url(#clip0)">
<path d="M106 200C106 219.882 122.118 236 142 236C161.882 236 178 219.882 178 200C178 180.118 161.882 164 142 164C122.118 164 106 180.118 106 200Z" fill="#EEDDD4"/>
<path d="M126.796 202.318C124.797 202.01 122.689 202.071 120.575 202.56C112.163 204.47 106.824 212.374 108.638 220.208C109.526 224.037 111.971 227.139 115.222 229.076L112.711 256.236C112.346 260.525 113.466 264.619 115.701 267.922C116.015 268.395 116.362 268.862 116.703 269.297C117.082 269.759 117.492 270.215 117.898 270.638C118.34 271.089 118.815 271.533 119.316 271.94L154.188 265.801C154.391 265.27 154.595 264.739 154.755 264.15C154.926 263.625 155.06 263.073 155.161 262.527C155.269 262.013 155.338 261.473 155.408 260.932C155.423 260.831 155.438 260.729 155.453 260.627L158.935 227.442L165.68 227.006C166.267 226.968 166.744 226.488 166.712 225.933L166.604 223.641C166.598 223.539 166.576 223.442 166.541 223.351C167.511 222.5 168.367 221.532 169.048 220.472C170.033 218.945 170.69 217.245 170.923 215.388C171.867 208.027 165.714 201.419 157.196 200.675C153.767 200.375 150.47 201.062 147.693 202.471C146.296 201.826 144.815 201.401 143.274 201.247L135.893 200.4C132.58 200.49 129.494 201.148 126.796 202.318V202.318Z" fill="#474961"/>
<path opacity="0.176986" d="M158.996 227.437L165.691 227.004C166.278 226.966 166.755 226.486 166.723 225.931L166.615 223.64C166.609 223.537 166.587 223.44 166.552 223.35C167.522 222.498 168.378 221.53 169.059 220.47C170.044 218.943 170.701 217.243 170.934 215.387C171.878 208.025 165.725 201.418 157.207 200.673C153.76 200.372 150.446 201.069 147.659 202.493C155.086 205.866 160.171 215.463 159.381 223.766L158.996 227.437Z" fill="#444444"/>
<path d="M160.159 201.611C160.159 201.611 161.198 203.937 157.844 203.834C154.491 203.731 153.505 203.574 153.505 203.574L153.947 201.219L160.159 201.611Z" fill="#482D1F"/>
<path d="M147.883 197.216C147.993 197.225 148.103 197.233 148.211 197.24L147.874 197.251L147.883 197.216ZM138.4 193.56L137.537 193.377L134.845 200.75L141.586 201.625L140.58 232.45C140.58 232.45 139.669 230.398 138.304 226.65C138.273 226.666 138.242 226.681 138.209 226.695L121.197 233.75C121.125 233.779 121.052 233.801 120.979 233.815C122.035 236.178 123.221 239.035 124.469 241.986C127.697 249.604 128.636 253.234 132.478 257.971C136.866 263.371 139.968 262.99 141.264 263.224C144.173 263.801 146.866 263.162 148.49 262.447C150.439 261.595 154.029 260.145 156.177 253.835L155.465 260.625C155.45 260.726 155.435 260.828 155.42 260.93C155.35 261.47 155.281 262.01 155.173 262.524C155.072 263.07 154.938 263.622 154.767 264.147C154.607 264.737 154.403 265.267 154.2 265.798L150.098 266.52L203.257 257.231C203.406 257.205 203.534 257.131 203.627 257.026C211.501 250.15 215.148 245.317 214.569 242.527C211.832 242.591 207.928 242.704 202.858 242.867C199.709 242.968 196.59 243.526 193.602 244.524L184.204 247.661C176.574 246.619 166.401 245.276 163.902 245.176L164.959 227.051L158.947 227.44L157.882 237.589C157.48 225.864 154.954 214.017 154.39 202.283L157.773 201.763C159.9 202.214 164.301 202.826 164.245 199.898C164.245 199.898 158.336 198.595 154.167 197.612L153.834 197.407C153.538 197.228 153.291 197.139 152.954 197.1C152.884 197.079 152.82 197.09 152.756 197.101L151.18 197.148L150.959 197.155C151.474 197.09 151.827 197.014 151.953 196.979C154.594 196.316 156.849 190.869 157 183.548C157.026 182.949 156.956 182.367 156.918 181.78L156.16 176.005C155.997 174.714 155.516 173.478 154.713 172.464C154.373 172.029 154.039 171.625 153.69 171.324C149.63 167.484 143.664 169.029 142.604 169.348C142.477 169.37 142.355 169.425 142.228 169.447C141.069 169.948 140.003 170.235 138.851 170.405C138.341 170.494 138.001 170.983 138.06 171.501L139.349 179.724C139.453 180.498 135.307 179.709 135.302 179.677C133.188 178.597 132.19 186.595 133.344 187.547C134.18 188.192 136.347 188.933 136.954 189.024C137.327 189.091 137.632 189.334 137.753 189.643C137.821 191.302 138.037 192.608 138.4 193.56Z" fill="#DB9E75"/>
<path opacity="0.2" d="M164.957 227.067L158.944 227.456L155.461 260.645C155.446 260.747 155.431 260.849 155.416 260.95C155.347 261.491 155.277 262.031 155.17 262.545C155.068 263.091 154.934 263.643 154.763 264.168C154.603 264.758 154.4 265.289 154.196 265.82L150.094 266.542L203.26 257.252C203.409 257.226 203.537 257.151 203.631 257.047C211.505 250.17 215.153 245.336 214.574 242.546C211.836 242.61 207.932 242.723 202.862 242.885C199.712 242.986 196.593 243.544 193.604 244.542L184.205 247.68C176.574 246.638 166.399 245.295 163.9 245.195L164.957 227.067Z" fill="#8C2A00"/>
<path d="M125.902 180.23C122.271 183.649 119.049 188.301 120.209 190.794C121.127 192.812 123.375 193.571 125.66 194.357C127.504 194.983 130.861 195.863 135.384 195.375C135.385 195.379 135.385 195.382 135.385 195.385C136.47 195.359 137.524 195.339 138.609 195.313C139.164 195.281 139.609 194.807 139.545 194.257C139.181 193.133 138.817 192.008 138.453 190.884C138.208 190.334 137.928 189.635 137.698 188.872C137.165 188.839 135.966 188.71 134.911 187.843C133.752 186.892 132.94 185.285 133.292 183.54C133.591 181.87 134.977 180.371 136.537 180.229C137.413 180.141 138.171 180.502 138.278 180.549C139.066 180.953 139.771 181.571 140.162 181.947C141.566 181.097 143.685 179.437 145.18 176.628C145.53 175.994 145.908 175.08 146.313 173.886C149.631 174.048 152.279 173.395 154.256 171.927C153.623 171.109 152.74 170.423 151.608 169.87C149.91 169.041 149.721 168.938 147.728 168.74C146.48 168.615 144.214 168.905 142.634 169.351L142.575 169.362C140.783 169.875 139.289 170.204 138.297 170.379C133.446 171.332 131.443 171.024 129.192 172.675C128.783 172.978 127.828 173.74 127.092 174.992C126.047 176.762 125.823 178.638 125.902 180.23ZM156.858 186.132C156.41 190.67 155.402 192.489 155.566 192.46C155.73 192.431 156.197 192.58 159.331 191.071C160.885 190.335 162.343 189.616 162.816 188.18C163.481 186.148 159.844 182.833 156.765 180.734C157.1 182.63 157.039 184.115 156.858 186.132ZM156.435 177.342C156.744 177.221 156.804 176.815 156.54 176.63C156.207 176.425 155.67 176.189 155.024 176.27C153.699 176.437 152.394 177.459 153.882 177.659C154.835 177.821 155.843 177.545 156.435 177.342ZM150.336 178.719C150.645 178.598 150.706 178.192 150.41 178.013C150.076 177.807 149.539 177.572 148.861 177.658C147.537 177.825 146.237 178.879 147.72 179.047C148.737 179.198 149.713 178.928 150.336 178.719Z" fill="#482D1F"/>
<path d="M155.423 179.614C155.551 180.156 155.802 181.033 156.211 181.3C156.808 181.705 157.243 179.956 156.673 179.056C156.426 178.662 156.167 178.617 155.923 178.706C155.556 178.839 155.351 179.225 155.423 179.614ZM149.917 181.409C150.014 181.962 150.265 182.839 150.704 183.095C151.302 183.5 151.737 181.75 151.167 180.851C150.919 180.456 150.661 180.412 150.416 180.501C150.049 180.634 149.844 181.02 149.917 181.409Z" fill="#482D1F"/>
<path d="M140.964 232.559C140.994 232.291 140.802 232.05 140.534 232.019C140.267 231.989 140.025 232.181 139.995 232.449L138.72 243.73C138.69 243.998 138.882 244.239 139.15 244.27C139.418 244.3 139.659 244.108 139.689 243.84L140.964 232.559ZM118.302 230.858C118.304 230.916 118.317 230.975 118.34 231.031L119.308 233.334C119.641 234.136 120.565 234.506 121.368 234.173C121.617 234.07 121.735 233.785 121.632 233.536C121.528 233.287 121.243 233.169 120.994 233.272C120.684 233.401 120.334 233.261 120.209 232.959L119.376 230.979C119.454 230.919 119.514 230.835 119.544 230.733C119.621 230.475 119.474 230.204 119.215 230.127C117.727 229.684 116.296 229.008 115.027 228.147C114.804 227.995 114.5 228.053 114.349 228.276C114.198 228.499 114.256 228.802 114.479 228.953C115.65 229.748 116.948 230.393 118.302 230.858ZM137.333 223.099C137.339 223.12 137.346 223.141 137.355 223.162L138.323 225.465C138.452 225.775 138.312 226.125 138.012 226.249C137.763 226.353 137.645 226.638 137.749 226.887C137.852 227.135 138.137 227.253 138.386 227.15C139.188 226.818 139.557 225.895 139.223 225.09L138.254 222.785C138.217 222.696 138.156 222.623 138.081 222.572C138.378 222.049 138.592 221.599 138.757 221.151C138.906 220.748 139.018 220.343 139.124 219.842C139.196 219.501 139.238 219.273 139.384 218.442C139.431 218.177 139.253 217.924 138.988 217.877C138.723 217.83 138.47 218.007 138.423 218.272C138.28 219.09 138.239 219.314 138.17 219.639C138.073 220.097 137.973 220.458 137.842 220.813C137.667 221.287 137.427 221.773 137.061 222.385C136.924 222.616 136.999 222.915 137.231 223.053C137.264 223.073 137.298 223.088 137.333 223.099ZM145.545 197.059C146.826 197.394 147.801 198.215 149.682 198.075C151.217 198.168 152.392 197.532 152.976 197.099C152.907 197.078 152.843 197.089 152.778 197.101L151.202 197.147C150.465 197.277 149.259 197.357 147.814 197.215L145.545 197.059Z" fill="#482D1F"/>
<path d="M152.74 189.322C152.504 189.297 151.926 189.201 151.768 188.866C151.756 188.802 151.707 188.711 151.728 188.642C151.822 188.427 152.255 188.45 152.843 188.412C153.885 188.328 154.701 188.085 154.701 188.085C154.701 188.085 154.558 188.771 154.426 188.959C154.164 189.533 153.083 189.394 152.74 189.322Z" fill="#482D1F"/>
<path d="M154.082 182.893L154.072 182.846L154.078 182.869L154.082 182.893ZM155.061 186.204L155.069 186.239C155.131 186.588 154.949 186.955 154.611 187.074C154.548 187.092 154.513 187.1 154.477 187.109C154.143 187.191 153.9 187.237 153.028 187.39C152.851 187.421 152.683 187.303 152.651 187.127C152.62 186.95 152.738 186.781 152.915 186.75C153.772 186.599 154.007 186.554 154.323 186.478C154.356 186.469 154.389 186.461 154.421 186.453C154.414 186.454 154.435 186.412 154.431 186.364L153.448 183.03L153.438 182.983L153.168 181.084C153.143 180.906 153.267 180.742 153.444 180.716C153.622 180.691 153.787 180.815 153.812 180.993L154.078 182.869L155.061 186.204Z" fill="#482D1F"/>
</g>
<path d="M1082 429L82.0001 429C75.3727 429 70.0001 434.373 70.0001 441L70 543C70 549.627 75.1236 555 81.751 555H1082.12C1088.74 555 1094 549.627 1094 543V441C1094 434.373 1088.63 429 1082 429Z" fill="#F2F6FB"/>
<rect x="199" y="456" width="222" height="14" rx="7" fill="#E1E5F0"/>
<rect x="199" y="485" width="388" height="14" rx="7" fill="#E1E5F0"/>
<rect x="199" y="514" width="359" height="14" rx="7" fill="#E1E5F0"/>
<g clip-path="url(#clip1)">
<path d="M106 492C106 511.882 122.118 528 142 528C161.882 528 178 511.882 178 492C178 472.118 161.882 456 142 456C122.118 456 106 472.118 106 492Z" fill="#EEDDD4"/>
<g clip-path="url(#clip2)">
<path d="M169.835 546.484C172.796 546.17 177.022 545.744 182.513 545.206C183.826 545.044 185.072 543.672 184.987 542.245C185.254 538.779 182.944 531.923 182.441 530.471C181.291 527.22 179.22 520.948 178.464 518.058C176.361 509.881 173.764 506.827 172.877 505.94C171.858 504.889 170.872 504.167 170.214 503.707C165.777 500.653 161.077 500.193 158.678 500.127C158.612 500.094 158.547 500.094 158.481 500.094L153.107 500.019C150.311 499.368 147.564 499.159 145.323 498.991C142.043 498.762 138.657 498.521 135.317 498.948L126.172 499.076C126.107 499.076 126.041 499.076 125.975 499.109C123.576 499.175 118.876 499.635 114.439 502.689C113.782 503.149 112.796 503.871 111.777 504.922C110.889 505.809 108.293 508.863 106.189 517.04C105.433 519.93 103.363 526.202 102.212 529.453C101.856 530.483 101.093 533.807 99.9237 539.425C99.8258 539.576 99.7571 539.74 99.7236 539.915C99.6997 540.064 99.7032 540.211 99.731 540.354C99.6684 540.657 99.6047 540.966 99.5399 541.281C99.8089 541.286 100.077 541.292 100.344 541.298C100.717 541.597 101.229 541.807 101.811 541.865L110.727 542.809C109.289 551.7 109.119 559.156 109.925 563.818C109.925 563.922 109.962 564.059 109.998 564.162C110.181 565.229 166.926 566.502 167.328 566.124C170.977 562.855 170.174 555.044 170.174 555.044C170.06 551.984 169.947 549.135 169.835 546.484Z" fill="#8D6047"/>
<path d="M148.029 507.332L142.616 504.102L138.931 507.979L138.935 508.014C139.028 508.789 139.56 509.404 140.253 509.642L140.75 543.412C140.752 543.505 140.792 543.593 140.863 543.654L146.015 548.148C146.15 548.266 146.355 548.253 146.475 548.12L151.143 542.937C151.207 542.866 151.237 542.77 151.224 542.675L146.788 508.965C147.472 508.697 147.954 508.065 148.029 507.332Z" fill="#F69A66"/>
<path opacity="0.176986" d="M142.033 498.515C143.91 498.849 150.834 498.927 151.032 501.182C151.163 502.685 151.093 505.29 150.819 508.998L142.616 504.102L136.586 510.447C133.057 504.815 132.493 501.299 134.894 499.899C138.496 497.798 140.156 498.182 142.033 498.515Z" fill="#8C2A00"/>
<path d="M135.626 491.447L137.239 501.566C137.283 501.791 137.424 501.998 137.636 502.057C138.575 502.41 139.882 502.759 141.429 502.793C144.226 502.885 146.429 501.989 147.644 501.351C147.889 501.237 148.033 500.941 147.983 500.683L147.008 495.009C148.831 495.31 148.724 495.265 148.901 495.289C151.034 495.41 152.763 495.007 153.073 494.88C154.216 494.557 155.254 493.352 156.031 491.495C157.089 489.015 157.747 485.341 157.66 481.109C157.676 480.504 157.596 479.917 157.515 479.33L156.521 473.535C156.303 472.239 155.736 471.045 154.891 469.971C154.532 469.506 154.192 469.137 153.801 468.845C151.368 466.727 148.374 466.41 146.05 466.598C144.809 466.678 143.707 466.9 142.93 467.14C142.646 467.229 141.639 467.558 140.174 467.943C139.379 468.164 138.734 468.289 138.353 468.397C133.584 469.524 131.567 469.313 129.398 471.073C128.991 471.386 128.071 472.167 127.387 473.471C125.459 477.157 126.875 481.164 127.275 482.358C128.57 485.92 131.139 487.763 131.966 488.573C132.956 489.557 134.522 490.691 135.626 491.447ZM183.196 558.574L181.377 545.305L173.167 546.096L169.691 546.479L169.902 554.027C168.556 553.822 167.343 553.752 166.263 553.815C158.334 551.942 135.294 546.597 122.234 544.602L122.303 543.945L101.582 541.751C100.999 541.693 100.487 541.483 100.114 541.184C99.9988 541.182 99.8832 541.179 99.7675 541.177C98.5038 551.007 99.5198 563.304 111.298 566.745H164.384C164.38 566.76 164.375 566.776 164.37 566.791H188.725C188.859 563.588 187.017 560.848 183.196 558.574Z" fill="#DB9E75"/>
<path d="M121.517 544.015C121.462 544.281 121.632 544.542 121.899 544.598C122.165 544.654 122.427 544.483 122.482 544.217C123 541.747 125.035 533.521 126.946 525.962C127.013 525.698 126.853 525.43 126.589 525.363C126.325 525.297 126.057 525.456 125.99 525.72C124.073 533.302 122.04 541.525 121.517 544.015ZM169.303 546.095C169.347 546.364 169.6 546.546 169.869 546.503C170.137 546.46 170.32 546.207 170.277 545.938C169.875 543.447 168.823 535.039 167.896 527.297C167.864 527.027 167.619 526.834 167.348 526.866C167.078 526.899 166.885 527.144 166.917 527.414C167.847 535.179 168.898 543.584 169.303 546.095Z" fill="#482D1F"/>
<path d="M147.081 495.035L142.077 493.902L147.534 497.923L147.081 495.035Z" fill="#482D1F"/>
<path d="M154.691 481.887C154.83 482.429 155.102 483.313 155.487 483.572C156.13 483.949 156.526 482.2 155.912 481.282C155.669 480.894 155.431 480.873 155.179 480.956C154.805 481.095 154.615 481.5 154.691 481.887ZM148.897 482.912C148.971 483.466 149.147 484.369 149.545 484.693C150.135 485.147 150.737 483.424 150.214 482.455C150.004 482.061 149.759 482.008 149.501 482.059C149.114 482.134 148.854 482.519 148.897 482.912Z" fill="#482D1F"/>
<path d="M152.217 487.684C151.979 487.664 151.399 487.609 151.233 487.273C151.221 487.209 151.17 487.118 151.189 487.048C151.274 486.797 151.687 486.851 152.274 486.77C153.319 486.634 154.139 486.374 154.139 486.374C154.139 486.374 154.038 487.063 153.915 487.288C153.654 487.84 152.559 487.718 152.217 487.684Z" fill="#482D1F"/>
<path d="M153.151 480.779L153.139 480.735L153.146 480.756L153.151 480.779ZM154.294 484.09C154.425 484.442 154.213 484.853 153.857 484.986C153.778 485.009 153.778 485.009 153.726 485.023C153.19 485.171 152.853 485.253 152.269 485.366C152.09 485.401 151.918 485.284 151.883 485.106C151.849 484.928 151.965 484.756 152.143 484.721C152.709 484.611 153.031 484.534 153.552 484.39L153.655 484.362C153.655 484.36 153.677 484.317 153.675 484.312L152.517 480.948L152.505 480.904L152.135 479.002C152.101 478.824 152.217 478.652 152.395 478.617C152.573 478.583 152.746 478.699 152.781 478.877L153.146 480.756L154.294 484.09Z" fill="#482D1F"/>
<path d="M132.575 482.084C132.611 483.057 132.981 484.052 133.571 484.796C134.295 485.736 135.14 486.162 136.173 486.415C136.349 486.459 136.457 486.636 136.414 486.813C136.371 486.989 136.193 487.096 136.017 487.053C135.562 486.942 135.195 486.821 134.754 486.598C134.105 486.271 133.526 485.815 133.053 485.2C132.379 484.351 131.959 483.221 131.918 482.108C131.911 481.927 132.053 481.774 132.234 481.768C132.415 481.761 132.568 481.902 132.575 482.084Z" fill="#482D1F"/>
<path d="M132.557 481.971C132.559 481.375 132.678 480.769 132.946 480.186C133.696 478.535 135.475 477.353 137.124 477.568C138.052 477.689 138.764 478.253 138.841 478.305C139.149 478.568 139.403 478.847 139.609 479.111L156.713 474.495C156.336 470.786 154.455 468.327 151.071 467.118C150.156 466.792 147.692 466.311 145.546 466.589C142.233 467.019 139.048 467.929 138.154 468.171C137.424 468.379 136.18 468.504 135.844 468.603C132.19 468.951 129.421 470.57 128.472 471.416C128.117 471.72 127.288 472.483 126.708 473.766C124.89 477.666 126.298 481.708 126.772 482.619C127.103 483.257 127.562 483.637 127.562 483.637C128.929 483.3 130.594 482.745 132.557 481.971ZM156.373 478.549C156.683 478.422 156.699 477.984 156.429 477.802C156.088 477.601 155.522 477.443 154.877 477.568C153.554 477.825 152.304 478.971 153.863 479.07C154.784 479.159 155.792 478.829 156.373 478.549ZM149.771 480.065C150.081 479.938 150.096 479.5 149.794 479.325C149.454 479.123 148.887 478.966 148.21 479.097C146.887 479.354 145.643 480.533 147.196 480.599C148.188 480.707 149.151 480.32 149.771 480.065Z" fill="#482D1F"/>
</g>
</g>
<path d="M1082 283L82.0001 283C75.3727 283 70.0001 288.373 70.0001 295L70 397C70 403.627 75.1236 409 81.751 409H1082.12C1088.74 409 1094 403.627 1094 397V295C1094 288.373 1088.63 283 1082 283Z" fill="#F2F6FB"/>
<rect x="199" y="310" width="260" height="14" rx="7" fill="#E1E5F0"/>
<rect x="199" y="339" width="351" height="14" rx="7" fill="#E1E5F0"/>
<rect x="199" y="368" width="372" height="14" rx="7" fill="#E1E5F0"/>
<g clip-path="url(#clip3)">
<path d="M142 382C122.118 382 106 365.882 106 346C106 326.118 122.118 310 142 310C161.882 310 178 326.118 178 346C178 365.882 161.882 382 142 382Z" fill="#88807B"/>
<g clip-path="url(#clip4)">
<path d="M134.648 349.192C132.077 349.239 128.03 349.726 124.033 352.047C123.344 352.44 122.327 353.095 121.211 354.045C120.259 354.864 117.47 357.583 114.812 365.249C113.861 367.936 111.072 373.177 109.464 376.06C108.939 377.01 109.562 378.19 110.678 378.288C114.195 378.54 118.533 379.982 122.631 379.99C122.294 386.118 122.056 393.428 121.966 401.58C121.966 401.58 121.441 411.283 124.459 414.428C124.982 414.981 134.785 414.406 145.197 414.736C156.363 415.09 168.258 416.24 171.025 413.341C175.501 408.653 172.942 407.384 168.835 380.679C169.478 380.745 170.077 380.803 170.611 380.852C174.759 381.246 183.449 380.984 187.631 380.819C188.741 380.787 189.46 379.539 189.003 378.488C187.631 375.303 185.213 369.557 184.494 366.635C182.436 358.294 179.856 355.241 178.974 354.321C177.961 353.271 176.945 352.556 176.327 352.056C174.259 350.38 167.737 349.171 156.76 348.428C152.029 346.818 146.627 347.28 143.13 347.592C140.685 347.814 137.602 348.088 134.648 349.192Z" fill="#F69A66"/>
<path opacity="0.176986" d="M134.541 349.201C131.957 349.286 128.082 349.829 124.252 352.055C123.562 352.449 122.543 353.105 121.425 354.058C120.472 354.879 117.679 357.604 115.016 365.289C114.063 367.982 111.072 373.165 109.462 376.055C108.936 377.007 109.56 378.189 110.678 378.288C111.705 378.361 112.861 378.576 113.961 378.757C114.396 378.829 115.599 378.969 116.135 379.082C118.725 379.627 120.234 379.99 122.649 379.99C122.661 379.99 122.674 379.99 122.686 379.99C123.206 370.54 123.963 363.895 124.779 361.288C125.338 359.515 126.148 357.479 126.148 357.479C126.542 356.329 127.178 355.147 128.46 353.538C130.188 351.394 132.323 350.058 134.541 349.201V349.201ZM142.277 352.703C142.869 356.184 143.953 357.212 143.953 357.212C146.451 355.767 155.358 351.258 154.537 348.795C154.471 348.631 154.339 348.302 153.485 347.777C150.264 345.807 146.32 346.759 144.939 347.153C144.939 347.153 138.596 346.431 137.38 350.141C136.164 353.852 137.61 356.48 137.61 356.48C138.662 355.845 140.217 354.586 142.277 352.703Z" fill="#444444"/>
<path d="M122.006 406.459L122.649 379.99L113.94 378.757L111.279 411.213C111.051 411.332 110.829 411.449 110.615 411.564C108.731 412.572 107.17 414.408 105.932 417.072C105.869 417.206 105.838 417.353 105.84 417.501C105.848 418.045 106.296 418.48 106.84 418.472L176.054 417.471C192.577 414.198 188.083 391.804 184.847 380.924C180.306 381.066 173.892 381.18 170.498 380.859C167.291 380.568 161.721 379.926 158.446 379.436L164.319 397.016C148.548 397.798 133.061 402.187 122.006 406.459ZM140.44 345.016L140.588 351.074C146.876 353.39 151.336 349.826 151.336 349.826C151.336 349.826 151.1 345.311 150.628 336.281C150.704 336.118 150.778 335.945 150.85 335.762C151.442 334.284 153.571 329.433 153.111 327.758C153.027 327.404 154.783 322.141 152.211 319.486C149.769 316.964 142.997 317.036 142.725 317.052C141.574 317.085 140.424 317.052 139.175 316.789C139.044 316.789 138.912 316.756 138.781 316.756C137.663 316.658 131.386 316.362 128.165 321.025C127.869 321.419 127.606 321.846 127.376 322.372C126.883 323.587 126.653 324.9 126.751 326.214L127.211 332.059C127.277 332.651 127.376 333.242 127.507 333.8C128.46 337.938 130.005 341.32 131.649 343.455C132.865 345.064 134.179 345.983 135.33 346.016C135.658 346.049 137.433 346.016 139.504 345.392C139.639 345.347 139.604 345.379 140.44 345.016Z" fill="#F2A98A"/>
<path d="M157.622 379.381C157.73 379.63 158.021 379.744 158.27 379.636C158.52 379.527 158.634 379.237 158.526 378.988C157.89 377.526 157.634 376.708 157.141 374.574C157.08 374.309 156.815 374.144 156.55 374.205C156.284 374.266 156.119 374.531 156.18 374.796C156.686 376.985 156.959 377.858 157.622 379.381ZM163.97 396.329C163.699 396.303 163.459 396.502 163.433 396.773C163.408 397.044 163.607 397.284 163.878 397.309C163.942 397.315 164.067 397.33 164.245 397.353C164.544 397.393 164.878 397.446 165.238 397.513C166.265 397.704 167.292 397.971 168.246 398.324C168.809 398.533 169.33 398.766 169.8 399.024C170.038 399.155 170.338 399.068 170.469 398.83C170.601 398.591 170.514 398.292 170.275 398.161C169.76 397.878 169.195 397.625 168.589 397.401C167.577 397.026 166.497 396.745 165.419 396.545C165.041 396.474 164.691 396.419 164.376 396.377C164.265 396.362 164.166 396.35 164.08 396.34C164.028 396.334 163.991 396.331 163.97 396.329Z" fill="#482D1F"/>
<path opacity="0.2" d="M111.336 411.247C114.049 409.83 117.711 408.164 122.066 406.477L122.709 379.99L114 378.757L111.336 411.247Z" fill="#8C2A00"/>
<path d="M140.431 345.025L140.523 348.381L145.06 342.94C144.996 342.972 144.929 343.004 144.861 343.037C144.204 343.366 143.382 343.727 142.33 344.187C141.409 344.597 140.818 344.858 140.431 345.025Z" fill="#482D1F"/>
<path d="M144.076 329.407L144.105 328.775C144.105 328.775 144.237 327.593 145.058 326.411C145.124 326.345 145.683 325.623 146.537 325.262C148.082 324.671 150.12 325.36 151.237 326.772C152.421 328.217 152.421 330.155 151.796 331.633C151.172 333.11 149.956 333.8 149.528 333.997L147.622 334.588L147.614 334.585C149.28 337.025 150.73 339.153 150.73 339.153C150.73 339.153 153.472 336.624 154.688 334.621C155.28 333.636 157.384 331.238 157.745 327.462C157.844 326.214 158.238 321.978 155.412 318.858C154.426 317.774 153.308 317.249 152.848 317.019C150.251 315.87 148.345 316.559 143.349 316.658C142.955 316.658 142.298 316.69 141.443 316.658C139.898 316.625 138.814 316.559 138.518 316.559C136.053 316.461 130.695 317.216 128.329 320.861C128.197 321.124 128.033 321.354 127.902 321.551C128.592 321.781 129.348 322.208 130.268 322.372C132.766 322.766 134.902 322.273 136.184 321.813C138.682 324.178 141.213 326.51 143.711 328.874C143.825 329.041 143.947 329.219 144.076 329.407Z" fill="#332117"/>
<path d="M129.109 333.087C129.011 332.692 128.616 332.397 128.222 332.463C127.959 332.495 127.762 332.692 127.663 333.152C127.565 334.302 128.813 335.747 129.175 335.057C129.405 334.597 129.208 333.645 129.109 333.087ZM136.053 332.191C135.954 331.797 135.56 331.501 135.165 331.567C134.902 331.6 134.705 331.797 134.607 332.256C134.508 333.406 135.757 334.851 136.119 334.161C136.382 333.701 136.184 332.749 136.053 332.191Z" fill="#482D1F"/>
<path d="M131.353 333.311L131.32 336.595C131.32 336.607 131.37 336.657 131.386 336.657C131.565 336.657 131.749 336.645 132.036 336.618C132.092 336.612 132.15 336.606 132.234 336.598C132.339 336.587 132.397 336.581 132.453 336.576C132.642 336.556 132.8 336.542 132.968 336.527C133.148 336.511 133.308 336.645 133.323 336.826C133.339 337.006 133.205 337.166 133.024 337.181C132.86 337.196 132.706 337.21 132.518 337.229C132.463 337.235 132.406 337.24 132.3 337.251C132.215 337.26 132.156 337.266 132.099 337.271C131.793 337.301 131.591 337.314 131.386 337.314C131.007 337.314 130.662 336.97 130.662 336.591L130.695 333.304C130.697 333.123 130.846 332.977 131.027 332.979C131.209 332.981 131.354 333.129 131.353 333.311Z" fill="#482D1F"/>
<path d="M133.654 339.054C133.884 338.956 134.442 338.693 134.475 338.365C134.475 338.299 134.508 338.2 134.442 338.168C134.278 338.003 133.884 338.168 133.292 338.332C132.24 338.595 131.386 338.66 131.386 338.66C131.386 338.66 131.714 339.186 131.912 339.317C132.306 339.678 133.325 339.218 133.654 339.054Z" fill="#482D1F"/>
<path d="M132.195 333.67C132.719 335.672 134.542 337.149 136.71 337.149C139.288 337.149 141.377 335.061 141.377 332.486C141.377 331.915 141.275 331.368 141.087 330.862L143.692 329.741C143.952 329.66 144.097 329.384 144.016 329.125C143.936 328.865 143.659 328.72 143.399 328.8L140.649 329.984C139.821 328.685 138.366 327.823 136.71 327.823C134.133 327.823 132.043 329.911 132.043 332.486C132.043 332.556 132.045 332.625 132.048 332.695L131.022 332.801C130.577 330.689 128.702 329.103 126.456 329.103C123.878 329.103 121.788 331.191 121.788 333.767C121.788 336.342 123.878 338.43 126.456 338.43C129.028 338.43 131.115 336.35 131.123 333.781L132.195 333.67ZM140.048 330.933C140.268 331.404 140.391 331.931 140.391 332.486C140.391 334.517 138.743 336.164 136.71 336.164C134.677 336.164 133.029 334.517 133.029 332.486C133.029 330.455 134.677 328.808 136.71 328.808C138.106 328.808 139.32 329.584 139.945 330.728C139.947 330.739 139.95 330.75 139.953 330.76C139.974 330.826 140.006 330.884 140.048 330.933ZM130.126 333.487C130.133 333.579 130.137 333.673 130.137 333.767C130.137 335.798 128.489 337.445 126.456 337.445C124.423 337.445 122.774 335.798 122.774 333.767C122.774 331.735 124.423 330.089 126.456 330.089C128.327 330.089 129.873 331.484 130.106 333.291C130.103 333.323 130.103 333.357 130.106 333.39C130.11 333.424 130.117 333.456 130.126 333.487Z" fill="#482D1F"/>
</g>
</g>
<path d="M1082 575L82.0001 575C75.3727 575 70.0001 580.373 70.0001 587L70 689C70 695.627 75.1236 701 81.751 701H1082.12C1088.74 701 1094 695.627 1094 689V587C1094 580.373 1088.63 575 1082 575Z" fill="#F2F6FB"/>
<rect x="199" y="602" width="222" height="14" rx="7" fill="#E1E5F0"/>
<rect x="199" y="631" width="388" height="14" rx="7" fill="#E1E5F0"/>
<rect x="199" y="660" width="359" height="14" rx="7" fill="#E1E5F0"/>
<g clip-path="url(#clip5)">
<path d="M106 638C106 657.882 122.118 674 142 674C161.882 674 178 657.882 178 638C178 618.118 161.882 602 142 602C122.118 602 106 618.118 106 638Z" fill="#E2DED8"/>
<path d="M136.466 645.91L144.079 643.64C155.15 641.998 164.893 646.713 167.687 656.91L179.879 708.457L179.98 708.883H163.386H134.409L123.684 672.661C120.855 662.428 126.408 648.773 136.466 645.91Z" fill="#88807B"/>
<path d="M130.493 649.553C130.493 649.553 129.829 652.208 133.356 651.474C136.884 650.741 137.896 650.392 137.896 650.392L136.988 647.982L130.493 649.553Z" fill="#482D1F"/>
<path d="M170.306 704.034C173.03 698.795 175.905 686.063 178.932 665.837L159.971 667.125C157.944 674.735 156.93 678.54 156.93 678.54L149.806 644.699C148.06 641.556 144.498 643.372 140.726 646.725C140.517 646.934 136.081 644.63 136.011 644.699C138.596 659.577 137.478 675.327 140.063 690.204C141.634 698.566 144.506 705.082 148.678 709.753C150.01 711.244 151.753 712.308 153.689 712.81C160.77 714.646 166.309 711.721 170.306 704.034Z" fill="#DB9E75"/>
<path d="M149.073 648.75C148.933 648.82 148.724 648.89 148.549 648.855L139.434 649.1L133.043 649.239C130.878 650.112 126.338 651.579 125.849 648.471C125.849 648.471 131.856 645.992 136.082 644.176L136.396 643.896C136.675 643.652 136.92 643.512 137.269 643.407C137.339 643.372 137.409 643.372 137.479 643.372L139.155 643.128L142.787 642.604L145.162 642.255L146.908 642.01C148.514 641.766 149.946 643.058 149.911 644.664L149.876 646.795C150.121 647.563 149.772 648.471 149.073 648.75Z" fill="#DB9E75"/>
<path d="M180.215 660.428C179.838 668.409 178.324 671.222 170.665 670.768C166.719 670.54 159.35 672.613 156.941 669.726C155.839 668.396 148.866 643.943 156.526 644.397C164.243 644.819 180.592 652.414 180.215 660.428Z" fill="#88807B"/>
<path d="M140.378 647.838C140.378 647.838 141.492 650.337 137.891 650.227C134.29 650.117 133.232 649.949 133.232 649.949L133.708 647.418L140.378 647.838Z" fill="#482D1F"/>
<path d="M115.076 707.207C111.178 704.431 111.912 692.403 117.28 671.123C118.405 665.657 119.747 665.269 121.307 669.959C123.646 676.994 120.675 679.035 120.675 679.035L123.44 644.89C124.614 641.491 126.812 642.243 131.108 644.89C131.351 645.06 135.319 642.02 135.4 642.076C135.438 657.176 139.273 672.493 139.312 687.593C139.239 694.076 138.917 699.369 138.346 703.474V703.474C137.818 707.273 134.959 710.331 131.204 711.113C125.713 712.256 120.337 710.954 115.076 707.207Z" fill="#DB9E75"/>
<path d="M123.855 650.302C124.004 650.347 124.223 650.379 124.389 650.314L133.408 648.972L139.726 648C142.01 648.484 146.735 649.14 146.677 645.994C146.677 645.994 140.331 644.595 135.854 643.541L135.496 643.32C135.179 643.128 134.914 643.033 134.551 642.99C134.477 642.968 134.408 642.98 134.339 642.992L132.646 643.042L128.978 643.157L126.579 643.226L124.816 643.288C123.192 643.326 122.006 644.848 122.32 646.424L122.724 648.515C122.617 649.315 123.118 650.148 123.855 650.302Z" fill="#DB9E75"/>
<path d="M134.06 644.763C130.459 644.653 128.799 642.905 129.111 643.074L139.178 643.074C138.167 644.273 136.461 644.836 134.06 644.763Z" fill="#482D1F"/>
<path d="M121.278 671.967C119.164 671.967 115.464 671.179 114.187 670.03C112.839 668.823 114.253 651.428 123.086 649.232L121.278 671.967Z" fill="#88807B"/>
<path d="M158.479 626.475C162.485 630.55 166.304 636.671 164.681 639.49C163.52 641.529 161.069 642.174 158.518 642.792C156.119 643.378 151.43 644.147 145.311 642.29C143.568 641.642 141.767 640.943 140.033 640.261" fill="#482D1F"/>
<path d="M126.571 625.337C123.082 627.294 119.264 630.61 119.786 632.847C120.157 634.429 121.684 635.344 123.244 636.268C124.712 637.131 127.711 638.622 132.192 638.63C133.515 638.55 134.813 638.428 136.145 638.315" fill="#482D1F"/>
<path d="M149.648 635.281C148.688 635.891 147.703 636.061 147.041 636.101C146.634 636.136 146.283 636.368 146.125 636.687L144.499 642.618C144.499 642.618 143.392 642.571 143.162 642.618C142.541 642.777 141.036 643.133 137.76 643.484C134.619 643.872 134.815 643.816 134.594 643.829C132.315 643.833 130.503 643.311 130.174 643.187C127.395 642.226 125.472 636.179 125.986 628.326C126.013 627.682 126.142 627.066 126.237 626.441L127.586 620.33C127.88 618.963 128.511 617.686 129.468 616.677C129.874 616.243 130.27 615.843 130.673 615.554C135.395 611.83 141.669 614.053 142.78 614.495C142.915 614.531 143.04 614.601 143.175 614.637C144.376 615.284 145.496 615.693 146.719 615.985C147.259 616.129 147.58 616.685 147.469 617.234L145.324 625.915C145.141 626.734 145.968 627.425 146.744 627.091C146.744 627.091 146.778 627.1 146.787 627.066C146.906 627.026 147.75 626.71 148.679 626.886C150.334 627.185 151.678 628.919 151.842 630.735C152.037 632.703 151.01 634.38 149.648 635.281Z" fill="#DB9E75"/>
<path d="M127.502 628.03C127.543 627.607 127.287 627.213 126.882 627.105C126.612 627.033 126.34 627.104 126.112 627.549C125.587 628.566 126.217 630.398 126.818 629.908C127.264 629.594 127.415 628.622 127.502 628.03Z" fill="#482D1F"/>
<path d="M133.556 628.546C133.597 628.124 133.341 627.73 132.936 627.621C132.666 627.549 132.394 627.62 132.166 628.066C131.641 629.082 132.271 630.914 132.872 630.424C133.327 630.076 133.512 629.113 133.556 628.546Z" fill="#482D1F"/>
<path d="M130.043 634.908C130.297 634.904 130.925 634.855 131.125 634.511C131.144 634.444 131.204 634.352 131.189 634.275C131.108 634.037 130.642 634.02 130.017 633.925C128.911 633.737 128.061 633.401 128.061 633.401C128.061 633.401 128.15 634.148 128.273 634.362C128.466 634.992 129.645 634.91 130.043 634.908Z" fill="#482D1F"/>
<path d="M125.452 625.205C125.11 625.105 125.008 624.675 125.272 624.453C125.61 624.202 126.162 623.9 126.861 623.926C128.293 623.981 129.786 624.953 128.213 625.306C127.208 625.569 126.104 625.367 125.452 625.205Z" fill="#482D1F"/>
<path d="M158.817 621.974C158.146 620.565 157.196 619.66 156.787 619.297C154.533 617.319 152.362 617.461 147.262 615.985C146.216 615.705 144.648 615.213 142.78 614.495C142.636 614.493 142.51 614.423 142.375 614.387C141.264 613.945 135.181 611.953 130.698 615.597C130.68 615.664 129.962 616.05 130.011 616.136C130.011 616.136 130.018 616.246 130.083 616.408C130.067 616.332 130.061 616.221 130.045 616.145C130.647 616.595 131.331 617.285 132.196 617.697C134.633 618.857 136.934 619.039 138.358 618.987C138.546 619.905 138.842 620.96 139.315 622.027C140.668 625.21 142.812 627.194 144.235 628.226C143.829 629.202 143.422 630.178 143.025 631.12C143.194 631.165 143.329 631.202 143.507 631.213C143.507 631.213 146.236 631.149 146.823 632.463C146.953 632.787 146.94 633.109 146.885 633.311C146.441 636.049 143.781 639.096 144.324 640.037C144.874 641.088 149.496 640.302 153.249 637.764C154.269 637.061 157.02 635.159 158.599 631.425C159.01 630.161 160.749 625.963 158.817 621.974Z" fill="#482D1F"/>
<path d="M132.289 625.911C131.97 625.753 131.943 625.312 132.276 625.148C132.652 624.96 133.249 624.758 133.966 624.914C135.367 625.217 136.659 626.467 135.057 626.508C133.989 626.583 132.936 626.193 132.289 625.911Z" fill="#482D1F"/>
<path d="M141.708 631.851L144.198 628.361C144.198 628.361 144.959 627.408 146.298 626.863C146.418 626.822 147.262 626.506 148.191 626.683C149.846 626.982 151.189 628.715 151.353 630.531C151.567 632.432 150.548 634.075 149.22 634.985C147.892 635.894 146.461 635.836 145.995 635.82L144.25 635.316" fill="#DB9E75"/>
<path d="M129.981 625.962L129.516 627.97L128.144 631.471C128.089 631.674 128.17 631.912 128.363 632C128.793 632.151 129.198 632.26 129.974 632.468" stroke="#482D1F" stroke-width="0.698464" stroke-linecap="round" stroke-linejoin="round"/>
<path d="M149.073 640.261L148.779 643.11L144.568 642.633C143.968 642.581 143.579 642.006 143.666 641.415L143.89 640.173L144.869 637.869L149.073 640.261Z" fill="#482D1F"/>
</g>
<path d="M1082 721L82.0001 721C75.3727 721 70.0001 726.373 70.0001 733L70 835C70 841.627 75.1236 847 81.751 847H1082.12C1088.74 847 1094 841.627 1094 835V733C1094 726.373 1088.63 721 1082 721Z" fill="#F2F6FB"/>
<rect x="199" y="748" width="222" height="14" rx="7" fill="#E1E5F0"/>
<rect x="199" y="777" width="388" height="14" rx="7" fill="#E1E5F0"/>
<rect x="199" y="806" width="359" height="14" rx="7" fill="#E1E5F0"/>
<g clip-path="url(#clip6)">
<path d="M106 784C106 803.882 122.118 820 142 820C161.882 820 178 803.882 178 784C178 764.118 161.882 748 142 748C122.118 748 106 764.118 106 784Z" fill="#EEDDD4"/>
<g clip-path="url(#clip7)">
<path d="M169.835 838.484C172.796 838.17 177.022 837.744 182.513 837.206C183.826 837.044 185.072 835.672 184.987 834.245C185.254 830.779 182.944 823.923 182.441 822.471C181.291 819.22 179.22 812.948 178.464 810.058C176.361 801.881 173.764 798.827 172.877 797.94C171.858 796.889 170.872 796.167 170.214 795.707C165.777 792.653 161.077 792.193 158.678 792.127C158.612 792.094 158.547 792.094 158.481 792.094L153.107 792.019C150.311 791.368 147.564 791.159 145.323 790.991C142.043 790.762 138.657 790.521 135.317 790.948L126.172 791.076C126.107 791.076 126.041 791.076 125.975 791.109C123.576 791.175 118.876 791.635 114.439 794.689C113.782 795.149 112.796 795.871 111.777 796.922C110.889 797.809 108.293 800.863 106.189 809.04C105.433 811.93 103.363 818.202 102.212 821.453C101.856 822.483 101.093 825.807 99.9237 831.425C99.8258 831.576 99.7571 831.74 99.7236 831.915C99.6997 832.064 99.7032 832.211 99.731 832.354C99.6684 832.657 99.6047 832.966 99.5399 833.281C99.8089 833.286 100.077 833.292 100.344 833.298C100.717 833.597 101.229 833.807 101.811 833.865L110.727 834.809C109.289 843.7 109.119 851.156 109.925 855.818C109.925 855.922 109.962 856.059 109.998 856.162C110.181 857.229 166.926 858.502 167.328 858.124C170.977 854.855 170.174 847.044 170.174 847.044C170.06 843.984 169.947 841.135 169.835 838.484Z" fill="#8D6047"/>
<path d="M148.029 799.332L142.616 796.102L138.931 799.979L138.935 800.014C139.028 800.789 139.56 801.404 140.253 801.642L140.75 835.412C140.752 835.505 140.792 835.593 140.863 835.654L146.015 840.148C146.15 840.266 146.355 840.253 146.475 840.12L151.143 834.937C151.207 834.866 151.237 834.77 151.224 834.675L146.788 800.965C147.472 800.697 147.954 800.065 148.029 799.332Z" fill="#F69A66"/>
<path opacity="0.176986" d="M142.033 790.515C143.91 790.849 150.834 790.927 151.032 793.182C151.163 794.685 151.093 797.29 150.819 800.998L142.616 796.102L136.586 802.447C133.057 796.815 132.493 793.299 134.894 791.899C138.496 789.798 140.156 790.182 142.033 790.515Z" fill="#8C2A00"/>
<path d="M135.626 783.447L137.239 793.566C137.283 793.791 137.424 793.998 137.636 794.057C138.575 794.41 139.882 794.759 141.429 794.793C144.226 794.885 146.429 793.989 147.644 793.351C147.889 793.237 148.033 792.941 147.983 792.683L147.008 787.009C148.831 787.31 148.724 787.265 148.901 787.289C151.034 787.41 152.763 787.007 153.073 786.88C154.216 786.557 155.254 785.352 156.031 783.495C157.089 781.015 157.747 777.341 157.66 773.109C157.676 772.504 157.596 771.917 157.515 771.33L156.521 765.535C156.303 764.239 155.736 763.045 154.891 761.971C154.532 761.506 154.192 761.137 153.801 760.845C151.368 758.727 148.374 758.41 146.05 758.598C144.809 758.678 143.707 758.9 142.93 759.14C142.646 759.229 141.639 759.558 140.174 759.943C139.379 760.164 138.734 760.289 138.353 760.397C133.584 761.524 131.567 761.313 129.398 763.073C128.991 763.386 128.071 764.167 127.387 765.471C125.459 769.157 126.875 773.164 127.275 774.358C128.57 777.92 131.139 779.763 131.966 780.573C132.956 781.557 134.522 782.691 135.626 783.447ZM183.196 850.574L181.377 837.305L173.167 838.096L169.691 838.479L169.902 846.027C168.556 845.822 167.343 845.752 166.263 845.815C158.334 843.942 135.294 838.597 122.234 836.602L122.303 835.945L101.582 833.751C100.999 833.693 100.487 833.483 100.114 833.184C99.9988 833.182 99.8832 833.179 99.7675 833.177C98.5038 843.007 99.5198 855.304 111.298 858.745H164.384C164.38 858.76 164.375 858.776 164.37 858.791H188.725C188.859 855.588 187.017 852.848 183.196 850.574Z" fill="#DB9E75"/>
<path d="M121.517 836.015C121.462 836.281 121.632 836.542 121.899 836.598C122.165 836.654 122.427 836.483 122.482 836.217C123 833.747 125.035 825.521 126.946 817.962C127.013 817.698 126.853 817.43 126.589 817.363C126.325 817.297 126.057 817.456 125.99 817.72C124.073 825.302 122.04 833.525 121.517 836.015ZM169.303 838.095C169.347 838.364 169.6 838.546 169.869 838.503C170.137 838.46 170.32 838.207 170.277 837.938C169.875 835.447 168.823 827.039 167.896 819.297C167.864 819.027 167.619 818.834 167.348 818.866C167.078 818.899 166.885 819.144 166.917 819.414C167.847 827.179 168.898 835.584 169.303 838.095Z" fill="#482D1F"/>
<path d="M147.081 787.035L142.077 785.902L147.534 789.923L147.081 787.035Z" fill="#482D1F"/>
<path d="M154.691 773.887C154.83 774.429 155.102 775.313 155.487 775.572C156.13 775.949 156.526 774.2 155.912 773.282C155.669 772.894 155.431 772.873 155.179 772.956C154.805 773.095 154.615 773.5 154.691 773.887ZM148.897 774.912C148.971 775.466 149.147 776.369 149.545 776.693C150.135 777.147 150.737 775.424 150.214 774.455C150.004 774.061 149.759 774.008 149.501 774.059C149.114 774.134 148.854 774.519 148.897 774.912Z" fill="#482D1F"/>
<path d="M152.217 779.684C151.979 779.664 151.399 779.609 151.233 779.273C151.221 779.209 151.17 779.118 151.189 779.048C151.274 778.797 151.687 778.851 152.274 778.77C153.319 778.634 154.139 778.374 154.139 778.374C154.139 778.374 154.038 779.063 153.915 779.288C153.654 779.84 152.559 779.718 152.217 779.684Z" fill="#482D1F"/>
<path d="M153.151 772.779L153.139 772.735L153.146 772.756L153.151 772.779ZM154.294 776.09C154.425 776.442 154.213 776.853 153.857 776.986C153.778 777.009 153.778 777.009 153.726 777.023C153.19 777.171 152.853 777.253 152.269 777.366C152.09 777.401 151.918 777.284 151.883 777.106C151.849 776.928 151.965 776.756 152.143 776.721C152.709 776.611 153.031 776.534 153.552 776.39L153.655 776.362C153.655 776.36 153.677 776.317 153.675 776.312L152.517 772.948L152.505 772.904L152.135 771.002C152.101 770.824 152.217 770.652 152.395 770.617C152.573 770.583 152.746 770.699 152.781 770.877L153.146 772.756L154.294 776.09Z" fill="#482D1F"/>
<path d="M132.575 774.084C132.611 775.057 132.981 776.052 133.571 776.796C134.295 777.736 135.14 778.162 136.173 778.415C136.349 778.459 136.457 778.636 136.414 778.813C136.371 778.989 136.193 779.096 136.017 779.053C135.562 778.942 135.195 778.821 134.754 778.598C134.105 778.271 133.526 777.815 133.053 777.2C132.379 776.351 131.959 775.221 131.918 774.108C131.911 773.927 132.053 773.774 132.234 773.768C132.415 773.761 132.568 773.902 132.575 774.084Z" fill="#482D1F"/>
<path d="M132.557 773.971C132.559 773.375 132.678 772.769 132.946 772.186C133.696 770.535 135.475 769.353 137.124 769.568C138.052 769.689 138.764 770.253 138.841 770.305C139.149 770.568 139.403 770.847 139.609 771.111L156.713 766.495C156.336 762.786 154.455 760.327 151.071 759.118C150.156 758.792 147.692 758.311 145.546 758.589C142.233 759.019 139.048 759.929 138.154 760.171C137.424 760.379 136.18 760.504 135.844 760.603C132.19 760.951 129.421 762.57 128.472 763.416C128.117 763.72 127.288 764.483 126.708 765.766C124.89 769.666 126.298 773.708 126.772 774.619C127.103 775.257 127.562 775.637 127.562 775.637C128.929 775.3 130.594 774.745 132.557 773.971ZM156.373 770.549C156.683 770.422 156.699 769.984 156.429 769.802C156.088 769.601 155.522 769.443 154.877 769.568C153.554 769.825 152.304 770.971 153.863 771.07C154.784 771.159 155.792 770.829 156.373 770.549ZM149.771 772.065C150.081 771.938 150.096 771.5 149.794 771.325C149.454 771.123 148.887 770.966 148.21 771.097C146.887 771.354 145.643 772.533 147.196 772.599C148.188 772.707 149.151 772.32 149.771 772.065Z" fill="#482D1F"/>
</g>
</g>
<path d="M0 20.0044C0 8.95627 8.94834 0 20.0043 0H1144C1155.04 0 1164 8.95709 1164 20.0044V44H0V20.0044Z" fill="#D8DEED"/>
<path d="M29.5 32C34.7467 32 39 27.7467 39 22.5C39 17.2533 34.7467 13 29.5 13C24.2533 13 20 17.2533 20 22.5C20 27.7467 24.2533 32 29.5 32Z" fill="#FF5645"/>
<path d="M60.5 32C65.7467 32 70 27.7467 70 22.5C70 17.2533 65.7467 13 60.5 13C55.2533 13 51 17.2533 51 22.5C51 27.7467 55.2533 32 60.5 32Z" fill="#FFCB3D"/>
<path d="M92.5 32C97.7467 32 102 27.7467 102 22.5C102 17.2533 97.7467 13 92.5 13C87.2533 13 83 17.2533 83 22.5C83 27.7467 87.2533 32 92.5 32Z" fill="#3ABF7C"/>
<rect y="44" width="1164" height="60" fill="#F2F6FB"/>
<path d="M70 68C70 62.4772 74.4772 58 80 58H92C97.5228 58 102 62.4772 102 68V80C102 85.5228 97.5228 90 92 90H80C74.4772 90 70 85.5228 70 80V68Z" fill="#508BFF"/>
<path d="M1062 68C1062 62.4772 1066.48 58 1072 58H1084C1089.52 58 1094 62.4772 1094 68V80C1094 85.5228 1089.52 90 1084 90H1072C1066.48 90 1062 85.5228 1062 80V68Z" fill="#F69A66"/>
<path d="M1086 70.1538C1086 68.7236 1085.49 67.2151 1084.36 66.0192C1083.23 64.8233 1081.44 64 1079.23 64C1076.36 64 1074.04 65.3431 1072.48 67.149C1072.21 66.8425 1071.35 65.9952 1071.35 65.9952C1071.09 65.6256 1070.62 65.4183 1070.15 65.4603C1069.67 65.5024 1069.26 65.7879 1069.08 66.1965C1068.91 66.6052 1069.01 67.0679 1069.34 67.3894C1069.34 67.3894 1070.54 68.6094 1071.19 69.3125C1070.44 70.7939 1069.94 72.3564 1069.92 73.9038C1069.92 73.9129 1069.92 73.9189 1069.92 73.9279C1069.92 73.9519 1069.92 73.976 1069.92 74C1069.92 74.0391 1069.92 74.0811 1069.92 74.1202C1069.92 74.1292 1069.92 74.1352 1069.92 74.1442C1069.95 75.6737 1070.45 77.2212 1071.19 78.6875C1070.54 79.3906 1069.34 80.6106 1069.34 80.6106C1069.01 80.9321 1068.91 81.3948 1069.08 81.8035C1069.26 82.2121 1069.67 82.4976 1070.15 82.5397C1070.62 82.5817 1071.09 82.3744 1071.35 82.0048C1071.35 82.0048 1072.21 81.1575 1072.48 80.851C1074.04 82.6569 1076.36 84 1079.23 84C1081.44 84 1083.23 83.1767 1084.36 81.9808C1085.49 80.7849 1086 79.2764 1086 77.8462C1086 76.5451 1085.62 75.25 1084.78 74.2163C1084.72 74.1382 1084.64 74.0751 1084.57 74C1084.64 73.9249 1084.72 73.8618 1084.78 73.7837C1085.62 72.75 1086 71.4549 1086 70.1538ZM1083.46 70.1538C1083.46 71.0403 1083.18 71.8786 1082.75 72.4135C1082.66 72.5186 1082.57 72.6178 1082.48 72.7019C1082 72.5517 1081.48 72.4615 1080.92 72.4615C1080.33 72.4615 1079.75 72.5577 1079.2 72.726C1078.89 72.5817 1078.56 72.4255 1078.22 72.2212C1077.14 71.5661 1076 70.6496 1074.97 69.7212C1074.54 69.3335 1074.58 69.3245 1074.2 68.9519C1074.25 68.8948 1074.26 68.8167 1074.31 68.7596C1075.5 67.2752 1077.1 66.3077 1079.23 66.3077C1080.78 66.3077 1081.75 66.8155 1082.43 67.5337C1083.11 68.2518 1083.46 69.2434 1083.46 70.1538ZM1083.46 77.8462C1083.46 78.7566 1083.11 79.7482 1082.43 80.4663C1081.75 81.1845 1080.78 81.6923 1079.23 81.6923C1077.1 81.6923 1075.5 80.7248 1074.31 79.2404C1074.26 79.1833 1074.25 79.1052 1074.2 79.0481C1074.58 78.6755 1074.54 78.6665 1074.97 78.2788C1076 77.3504 1077.14 76.4339 1078.22 75.7788C1078.56 75.5745 1078.89 75.4183 1079.2 75.274C1079.75 75.4423 1080.33 75.5385 1080.92 75.5385C1081.48 75.5385 1082 75.4483 1082.48 75.2981C1082.57 75.3822 1082.66 75.4814 1082.75 75.5865C1083.18 76.1214 1083.46 76.9597 1083.46 77.8462ZM1076.61 74C1075.39 74.7632 1074.21 75.7067 1073.17 76.6442C1073.07 76.7404 1073.09 76.7404 1072.99 76.8365C1072.65 75.9141 1072.47 74.9645 1072.46 74.0721C1072.46 74.0481 1072.46 74.024 1072.46 74C1072.46 73.9609 1072.46 73.9189 1072.46 73.8798C1072.47 72.9994 1072.66 72.0679 1072.99 71.1635C1073.09 71.2596 1073.07 71.2596 1073.17 71.3558C1074.21 72.2933 1075.39 73.2368 1076.61 74Z" fill="white"/>
<g filter="url(#filter0_d)">
<path d="M1082 100L921 100C914.373 100 909 105.373 909 112L909 288C909 294.627 914.319 300 920.947 300H1082.05C1088.68 300 1094 294.627 1094 288V112C1094 105.373 1088.63 100 1082 100Z" fill="white"/>
</g>
<rect x="929" y="120" width="145" height="14" rx="7" fill="#E1E5F0"/>
<rect x="929" y="150" width="145" height="14" rx="7" fill="#E1E5F0"/>
<rect x="929" y="180" width="92" height="14" rx="7" fill="#E1E5F0"/>
<rect x="956" y="225" width="91.3846" height="44" rx="22" fill="#F69A66"/>
<rect x="1008" y="230.077" width="33.8462" height="33.8462" rx="16.9231" fill="white"/>
<path d="M122 68C122 62.4772 126.477 58 132 58H377C382.523 58 387 62.4772 387 68V80C387 85.5228 382.523 90 377 90H132C126.477 90 122 85.5228 122 80V68Z" fill="#E4EAF1"/>
<defs>
<filter id="filter0_d" x="879" y="74" width="245" height="260" filterUnits="userSpaceOnUse" color-interpolation-filters="sRGB">
<feFlood flood-opacity="0" result="BackgroundImageFix"/>
<feColorMatrix in="SourceAlpha" type="matrix" values="0 0 0 0 0 0 0 0 0 0 0 0 0 0 0 0 0 0 127 0" result="hardAlpha"/>
<feOffset dy="4"/>
<feGaussianBlur stdDeviation="15"/>
<feComposite in2="hardAlpha" operator="out"/>
<feColorMatrix type="matrix" values="0 0 0 0 0 0 0 0 0 0 0 0 0 0 0 0 0 0 0.04 0"/>
<feBlend mode="normal" in2="BackgroundImageFix" result="effect1_dropShadow"/>
<feBlend mode="normal" in="SourceGraphic" in2="effect1_dropShadow" result="shape"/>
</filter>
<clipPath id="clip0">
<rect x="106" y="164" width="72" height="72" rx="36" fill="white"/>
</clipPath>
<clipPath id="clip1">
<rect x="106" y="456" width="72" height="72" rx="36" fill="white"/>
</clipPath>
<clipPath id="clip2">
<rect width="171.567" height="248.268" fill="white" transform="matrix(-1 0 0 1 270.584 438.061)"/>
</clipPath>
<clipPath id="clip3">
<rect x="106" y="310" width="72" height="72" rx="36" fill="white"/>
</clipPath>
<clipPath id="clip4">
<rect width="171.567" height="248.268" fill="white" transform="matrix(-1 0 0 1 215.723 292.061)"/>
</clipPath>
<clipPath id="clip5">
<rect x="106" y="602" width="72" height="72" rx="36" fill="white"/>
</clipPath>
<clipPath id="clip6">
<rect x="106" y="748" width="72" height="72" rx="36" fill="white"/>
</clipPath>
<clipPath id="clip7">
<rect width="171.567" height="248.268" fill="white" transform="matrix(-1 0 0 1 270.584 730.061)"/>
</clipPath>
</defs>
</svg>
