<svg width="153" height="44" viewBox="0 0 153 44" fill="none" xmlns="http://www.w3.org/2000/svg">
<path d="M61.616 19.776C63.4507 20.032 64.9013 20.6827 65.968 21.728C67.0347 22.7733 67.568 24.064 67.568 25.6C67.568 27.5627 66.672 29.12 64.88 30.272C63.088 31.424 60.4107 32 56.848 32H48.08C47.568 32 47.312 31.7973 47.312 31.392V31.264C47.312 31.008 47.5253 30.624 47.952 30.112C48.3787 29.5787 48.592 29.0453 48.592 28.512V12.768C48.592 12.2347 48.3787 11.712 47.952 11.2C47.5253 10.6667 47.312 10.272 47.312 10.016V9.888C47.312 9.48267 47.568 9.28 48.08 9.28H56.944C59.696 9.28 61.776 9.81333 63.184 10.88C64.6133 11.9467 65.328 13.3333 65.328 15.04C65.328 16.2347 64.9867 17.248 64.304 18.08C63.6427 18.912 62.7467 19.4773 61.616 19.776ZM54.352 13.184V17.216C54.352 17.728 54.512 18.1333 54.832 18.432C55.152 18.7307 55.568 18.88 56.08 18.88H57.68C58.4907 18.88 59.1413 18.6133 59.632 18.08C60.1227 17.5253 60.368 16.7893 60.368 15.872C60.368 14.5067 60.0373 13.44 59.376 12.672C58.736 11.904 57.8613 11.52 56.752 11.52H55.856C54.8533 11.52 54.352 12.0747 54.352 13.184ZM58.288 29.76C59.2907 29.76 60.0693 29.4613 60.624 28.864C61.2 28.2453 61.488 27.4347 61.488 26.432C61.488 25.1093 60.9653 23.8933 59.92 22.784C58.896 21.6747 57.488 21.12 55.696 21.12H54.352V27.04C54.352 27.8293 54.5653 28.48 54.992 28.992C55.44 29.504 56.0267 29.76 56.752 29.76H58.288ZM79.4888 16.32C80.4061 16.32 81.1314 16.6187 81.6648 17.216C82.2194 17.8133 82.4968 18.5707 82.4968 19.488C82.4968 21.4933 81.6754 22.496 80.0328 22.496C79.3714 22.496 78.8701 22.3467 78.5288 22.048C78.1874 21.728 77.9848 21.376 77.9208 20.992C77.8781 20.608 77.7714 20.2667 77.6008 19.968C77.4301 19.648 77.1741 19.488 76.8328 19.488C76.0434 19.488 75.6488 20.512 75.6488 22.56V28.512C75.6488 29.0453 75.9261 29.5787 76.4808 30.112C77.0568 30.624 77.3448 31.008 77.3448 31.264V31.392C77.3448 31.7973 77.0888 32 76.5768 32H69.6968C69.1848 32 68.9288 31.7973 68.9288 31.392V31.264C68.9288 31.008 69.1421 30.624 69.5688 30.112C69.9954 29.5787 70.2088 29.0453 70.2088 28.512V22.144C70.2088 21.7173 70.0808 21.3547 69.8248 21.056C69.5688 20.7573 69.3128 20.5013 69.0568 20.288C68.8008 20.0747 68.6728 19.84 68.6728 19.584V19.488C68.6728 19.1253 68.9181 18.816 69.4088 18.56L73.9208 16.448C74.3474 16.2987 74.6461 16.288 74.8168 16.416C74.9874 16.544 75.0728 16.7893 75.0728 17.152V19.488C75.7981 17.376 77.2701 16.32 79.4888 16.32ZM96.4565 26.944C96.6912 26.7093 96.9472 26.6453 97.2245 26.752C97.5232 26.8373 97.6618 27.0507 97.6405 27.392C97.6192 27.8827 97.4698 28.3947 97.1925 28.928C96.9365 29.4613 96.5632 29.9947 96.0725 30.528C95.5818 31.04 94.8992 31.4667 94.0245 31.808C93.1712 32.1493 92.2005 32.32 91.1125 32.32C88.7232 32.32 86.7712 31.5733 85.2565 30.08C83.7632 28.5867 83.0165 26.6347 83.0165 24.224C83.0165 21.8987 83.7845 20.0107 85.3205 18.56C86.8565 17.088 88.7338 16.3413 90.9525 16.32C92.8512 16.2987 94.3872 16.7147 95.5605 17.568C96.7338 18.4213 97.3205 19.552 97.3205 20.96C97.3205 22.0693 96.8405 23.0507 95.8805 23.904C94.9418 24.7573 93.7152 25.3013 92.2005 25.536C91.1338 25.728 90.0672 25.8027 89.0005 25.76C89.8965 27.488 91.2405 28.352 93.0325 28.352C94.6112 28.352 95.7525 27.8827 96.4565 26.944ZM90.2805 18.016C89.6192 18.016 89.0858 18.3467 88.6805 19.008C88.2965 19.6693 88.1045 20.5333 88.1045 21.6C88.1045 22.4747 88.2005 23.296 88.3925 24.064C88.9898 24.0853 89.5232 24.064 89.9925 24C91.4432 23.744 92.1685 22.592 92.1685 20.544C92.1472 19.84 91.9552 19.2427 91.5925 18.752C91.2512 18.2613 90.8138 18.016 90.2805 18.016ZM105.706 32.32C104.085 32.32 102.805 31.808 101.866 30.784C100.949 29.76 100.49 28.2987 100.49 26.4V18.816H99.274C99.0607 18.816 98.8793 18.752 98.73 18.624C98.602 18.4747 98.538 18.2933 98.538 18.08V17.376C98.538 16.8853 98.7833 16.64 99.274 16.64H99.882C100.863 16.64 101.706 16.352 102.41 15.776C103.114 15.1787 103.573 14.3893 103.786 13.408C103.893 12.8533 104.181 12.576 104.65 12.576H105.386C105.962 12.576 106.25 12.8533 106.25 13.408V16.64H109.546C109.759 16.64 109.93 16.7147 110.058 16.864C110.207 16.992 110.282 17.1627 110.282 17.376V18.08C110.282 18.2933 110.207 18.4747 110.058 18.624C109.93 18.752 109.759 18.816 109.546 18.816H106.25V26.496C106.25 27.0293 106.389 27.456 106.666 27.776C106.943 28.0747 107.285 28.224 107.69 28.224C108.607 28.224 109.311 27.8293 109.802 27.04C109.951 26.848 110.122 26.7413 110.314 26.72C110.506 26.6773 110.666 26.7093 110.794 26.816C110.943 26.9227 111.018 27.072 111.018 27.264C111.018 28.608 110.538 29.792 109.578 30.816C108.639 31.8187 107.349 32.32 105.706 32.32ZM126.487 26.88C127.127 26.88 127.351 27.2107 127.159 27.872L126.199 31.232C126.05 31.744 125.783 32 125.399 32H112.567C112.354 32 112.162 31.9253 111.991 31.776C111.821 31.6267 111.735 31.4453 111.735 31.232V30.816C111.735 30.5813 111.97 30.144 112.439 29.504L119.959 18.048H117.239C116.77 18.048 116.311 18.2293 115.863 18.592C115.415 18.9333 115.053 19.3173 114.775 19.744C114.498 20.1707 114.167 20.5653 113.783 20.928C113.399 21.2693 113.015 21.44 112.631 21.44H112.439C112.098 21.44 111.863 21.3227 111.735 21.088C111.607 20.8533 111.597 20.5653 111.703 20.224L112.567 17.632C112.695 17.248 112.823 16.992 112.951 16.864C113.101 16.7147 113.346 16.64 113.687 16.64H125.591C125.805 16.64 125.975 16.704 126.103 16.832C126.253 16.9387 126.327 17.0773 126.327 17.248V17.568C126.327 17.7813 125.997 18.4107 125.335 19.456L118.039 30.592H121.111C121.666 30.592 122.199 30.4 122.711 30.016C123.245 29.632 123.671 29.2053 123.991 28.736C124.333 28.2667 124.706 27.84 125.111 27.456C125.517 27.072 125.901 26.88 126.263 26.88H126.487ZM141.457 26.944C141.691 26.7093 141.947 26.6453 142.225 26.752C142.523 26.8373 142.662 27.0507 142.641 27.392C142.619 27.8827 142.47 28.3947 142.193 28.928C141.937 29.4613 141.563 29.9947 141.073 30.528C140.582 31.04 139.899 31.4667 139.025 31.808C138.171 32.1493 137.201 32.32 136.113 32.32C133.723 32.32 131.771 31.5733 130.257 30.08C128.763 28.5867 128.017 26.6347 128.017 24.224C128.017 21.8987 128.785 20.0107 130.321 18.56C131.857 17.088 133.734 16.3413 135.953 16.32C137.851 16.2987 139.387 16.7147 140.561 17.568C141.734 18.4213 142.321 19.552 142.321 20.96C142.321 22.0693 141.841 23.0507 140.881 23.904C139.942 24.7573 138.715 25.3013 137.201 25.536C136.134 25.728 135.067 25.8027 134.001 25.76C134.897 27.488 136.241 28.352 138.033 28.352C139.611 28.352 140.753 27.8827 141.457 26.944ZM135.281 18.016C134.619 18.016 134.086 18.3467 133.681 19.008C133.297 19.6693 133.105 20.5333 133.105 21.6C133.105 22.4747 133.201 23.296 133.393 24.064C133.99 24.0853 134.523 24.064 134.993 24C136.443 23.744 137.169 22.592 137.169 20.544C137.147 19.84 136.955 19.2427 136.593 18.752C136.251 18.2613 135.814 18.016 135.281 18.016ZM144.689 32C144.199 32 143.953 31.7973 143.953 31.392V31.264C143.953 31.008 144.156 30.624 144.561 30.112C144.988 29.5787 145.201 29.0453 145.201 28.512V13.888C145.201 13.3333 144.988 12.8 144.561 12.288C144.156 11.7547 143.953 11.3813 143.953 11.168V11.04C143.953 10.8053 144.188 10.56 144.657 10.304L149.489 7.936C149.937 7.744 150.289 7.73333 150.545 7.904C150.823 8.05333 150.961 8.288 150.961 8.608V28.512C150.961 29.0453 151.196 29.5787 151.665 30.112C152.135 30.624 152.369 31.008 152.369 31.264V31.392C152.369 31.7973 152.113 32 151.601 32H144.689Z" fill="#312F2E"/>
<path d="M31 15.2573C31 12.6409 30.0715 9.8815 28.0094 7.6938C25.9473 5.5061 22.6793 4 18.6516 4C13.418 4 9.18526 6.45704 6.35139 9.76057C5.85697 9.19991 4.27724 7.64983 4.27724 7.64983C3.81297 6.97373 2.96281 6.59446 2.08853 6.67141C1.21425 6.74836 0.466595 7.27055 0.153061 8.01811C-0.160473 8.76566 0.0143814 9.61216 0.611303 10.2003C0.611303 10.2003 2.80604 12.432 3.98783 13.7182C2.62516 16.4281 1.70867 19.2864 1.67249 22.1172C1.67249 22.1337 1.67249 22.1447 1.67249 22.1612C1.67249 22.2052 1.67249 22.2491 1.67249 22.2931C1.67249 22.3646 1.67249 22.4415 1.67249 22.513C1.67249 22.5295 1.67249 22.5405 1.67249 22.557C1.72676 25.3548 2.64325 28.1856 3.98783 30.868C2.80604 32.1542 0.611303 34.3859 0.611303 34.3859C0.0143814 34.9741 -0.160473 35.8206 0.153061 36.5681C0.466595 37.3157 1.21425 37.8379 2.08853 37.9148C2.96281 37.9918 3.81297 37.6125 4.27724 36.9364C4.27724 36.9364 5.85697 35.3863 6.35139 34.8257C9.18526 38.1292 13.418 40.5862 18.6516 40.5862C22.6793 40.5862 25.9473 39.0801 28.0094 36.8924C30.0715 34.7047 31 31.9454 31 29.3289C31 26.9488 30.3126 24.5798 28.7811 22.6889C28.6666 22.546 28.5219 22.4305 28.3953 22.2931C28.5219 22.1557 28.6666 22.0403 28.7811 21.8973C30.3126 20.0065 31 17.6374 31 15.2573ZM26.3693 15.2573C26.3693 16.8788 25.8629 18.4124 25.067 19.3908C24.9102 19.5832 24.7534 19.7646 24.5846 19.9185C23.6983 19.6437 22.7516 19.4788 21.7387 19.4788C20.6654 19.4788 19.6103 19.6547 18.6033 19.9625C18.0305 19.6987 17.4336 19.4128 16.8186 19.039C14.847 17.8408 12.7608 16.1643 10.8856 14.4658C10.1017 13.7567 10.1741 13.7402 9.48673 13.0586C9.56511 12.9542 9.59526 12.8113 9.67968 12.7068C11.8503 9.99143 14.7746 8.22149 18.6516 8.22149C21.4794 8.22149 23.2461 9.15043 24.4881 10.4642C25.7302 11.7779 26.3693 13.5918 26.3693 15.2573ZM26.3693 29.3289C26.3693 30.9944 25.7302 32.8084 24.4881 34.1221C23.2461 35.4358 21.4794 36.3647 18.6516 36.3647C14.7746 36.3647 11.8503 34.5948 9.67968 31.8794C9.59526 31.775 9.56511 31.6321 9.48673 31.5276C10.1741 30.846 10.1017 30.8295 10.8856 30.1205C12.7608 28.422 14.847 26.7455 16.8186 25.5472C17.4336 25.1734 18.0305 24.8876 18.6033 24.6237C19.6103 24.9315 20.6654 25.1074 21.7387 25.1074C22.7516 25.1074 23.6983 24.9425 24.5846 24.6677C24.7534 24.8216 24.9102 25.003 25.067 25.1954C25.8629 26.1738 26.3693 27.7074 26.3693 29.3289ZM13.8762 22.2931C11.6574 23.6893 9.49879 25.4153 7.60553 27.1302C7.41258 27.3061 7.45479 27.3061 7.26787 27.482C6.6589 25.7945 6.32124 24.0576 6.30315 22.425C6.30315 22.3811 6.30315 22.3371 6.30315 22.2931C6.30315 22.2217 6.30315 22.1447 6.30315 22.0732C6.3333 20.4627 6.67095 18.7587 7.26787 17.1042C7.45479 17.2801 7.41258 17.2801 7.60553 17.456C9.49879 19.171 11.6574 20.8969 13.8762 22.2931Z" fill="#F69A66"/>
</svg>
