<svg width="158" height="31" viewBox="0 0 158 31" fill="none" xmlns="http://www.w3.org/2000/svg">
<path d="M11.2573 0C8.64086 0 5.8815 0.928544 3.6938 2.99063C1.5061 5.05272 0 8.32071 0 12.3484C0 17.582 2.45704 21.8147 5.76057 24.6486C5.19991 25.143 3.64983 26.7228 3.64983 26.7228C2.97373 27.187 2.59446 28.0372 2.67141 28.9115C2.74836 29.7857 3.27055 30.5334 4.01811 30.8469C4.76566 31.1605 5.61216 30.9856 6.20031 30.3887C6.20031 30.3887 8.43198 28.194 9.71822 27.0122C12.4281 28.3748 15.2864 29.2913 18.1172 29.3275C18.1337 29.3275 18.1447 29.3275 18.1612 29.3275C18.2052 29.3275 18.2491 29.3275 18.2931 29.3275C18.3646 29.3275 18.4415 29.3275 18.513 29.3275C18.5295 29.3275 18.5405 29.3275 18.557 29.3275C21.3548 29.2732 24.1856 28.3568 26.868 27.0122C28.1542 28.194 30.3859 30.3887 30.3859 30.3887C30.9741 30.9856 31.8206 31.1605 32.5681 30.8469C33.3157 30.5334 33.8379 29.7857 33.9148 28.9115C33.9918 28.0372 33.6125 27.187 32.9364 26.7228C32.9364 26.7228 31.3863 25.143 30.8257 24.6486C34.1292 21.8147 36.5862 17.582 36.5862 12.3484C36.5862 8.32071 35.0801 5.05272 32.8924 2.99063C30.7047 0.928544 27.9454 0 25.3289 0C22.9488 0 20.5798 0.687364 18.6889 2.21886C18.546 2.33342 18.4305 2.47813 18.2931 2.60475C18.1557 2.47813 18.0403 2.33342 17.8973 2.21886C16.0065 0.687364 13.6374 0 11.2573 0ZM11.2573 4.63066C12.8788 4.63066 14.4124 5.13714 15.3908 5.93303C15.5832 6.0898 15.7646 6.24657 15.9185 6.41539C15.6437 7.30173 15.4788 8.24836 15.4788 9.26132C15.4788 10.3346 15.6547 11.3897 15.9625 12.3967C15.6987 12.9695 15.4128 13.5664 15.039 14.1814C13.8408 16.153 12.1643 18.2392 10.4658 20.1144C9.75669 20.8983 9.7402 20.8259 9.05861 21.5133C8.95417 21.4349 8.81126 21.4047 8.70682 21.3203C5.99143 19.1497 4.22149 16.2254 4.22149 12.3484C4.22149 9.52059 5.15043 7.75394 6.46415 6.51186C7.77787 5.26979 9.59179 4.63066 11.2573 4.63066ZM25.3289 4.63066C26.9944 4.63066 28.8084 5.26979 30.1221 6.51186C31.4358 7.75394 32.3647 9.52059 32.3647 12.3484C32.3647 16.2254 30.5948 19.1497 27.8794 21.3203C27.775 21.4047 27.6321 21.4349 27.5276 21.5133C26.846 20.8259 26.8295 20.8983 26.1205 20.1144C24.422 18.2392 22.7455 16.153 21.5472 14.1814C21.1734 13.5664 20.8876 12.9695 20.6237 12.3967C20.9315 11.3897 21.1074 10.3346 21.1074 9.26132C21.1074 8.24836 20.9425 7.30173 20.6677 6.41539C20.8216 6.24657 21.003 6.0898 21.1954 5.93303C22.1738 5.13714 23.7074 4.63066 25.3289 4.63066ZM18.2931 17.1238C19.6893 19.3426 21.4153 21.5012 23.1302 23.3945C23.3061 23.5874 23.3061 23.5452 23.482 23.7321C21.7945 24.3411 20.0576 24.6788 18.425 24.6968C18.3811 24.6968 18.3371 24.6968 18.2931 24.6968C18.2217 24.6968 18.1447 24.6968 18.0732 24.6968C16.4627 24.6667 14.7587 24.329 13.1042 23.7321C13.2801 23.5452 13.2801 23.5874 13.456 23.3945C15.171 21.5012 16.8969 19.3426 18.2931 17.1238Z" fill="#F69A66"/>
<path d="M66.8902 15.2243C68.7249 15.4803 70.1756 16.131 71.2422 17.1763C72.3089 18.2216 72.8422 19.5123 72.8422 21.0483C72.8422 23.011 71.9462 24.5683 70.1542 25.7203C68.3622 26.8723 65.6849 27.4483 62.1222 27.4483H53.3542C52.8422 27.4483 52.5862 27.2456 52.5862 26.8403V26.7123C52.5862 26.4563 52.7996 26.0723 53.2262 25.5603C53.6529 25.027 53.8662 24.4936 53.8662 23.9603V8.21631C53.8662 7.68298 53.6529 7.16031 53.2262 6.64831C52.7996 6.11498 52.5862 5.72031 52.5862 5.46431V5.33631C52.5862 4.93098 52.8422 4.72831 53.3542 4.72831H62.2182C64.9702 4.72831 67.0502 5.26165 68.4582 6.32831C69.8876 7.39498 70.6022 8.78165 70.6022 10.4883C70.6022 11.683 70.2609 12.6963 69.5782 13.5283C68.9169 14.3603 68.0209 14.9256 66.8902 15.2243ZM59.6262 8.63231V12.6643C59.6262 13.1763 59.7862 13.5816 60.1062 13.8803C60.4262 14.179 60.8422 14.3283 61.3542 14.3283H62.9542C63.7649 14.3283 64.4156 14.0616 64.9062 13.5283C65.3969 12.9736 65.6422 12.2376 65.6422 11.3203C65.6422 9.95498 65.3116 8.88831 64.6502 8.12031C64.0102 7.35231 63.1356 6.96831 62.0262 6.96831H61.1302C60.1276 6.96831 59.6262 7.52298 59.6262 8.63231ZM63.5622 25.2083C64.5649 25.2083 65.3436 24.9096 65.8982 24.3123C66.4742 23.6936 66.7622 22.883 66.7622 21.8803C66.7622 20.5576 66.2396 19.3416 65.1942 18.2323C64.1702 17.123 62.7622 16.5683 60.9702 16.5683H59.6262V22.4883C59.6262 23.2776 59.8396 23.9283 60.2662 24.4403C60.7142 24.9523 61.3009 25.2083 62.0262 25.2083H63.5622Z" fill="#312F2E"/>
<path d="M84.763 11.7683C85.6803 11.7683 86.4056 12.067 86.939 12.6643C87.4936 13.2616 87.771 14.019 87.771 14.9363C87.771 16.9416 86.9496 17.9443 85.307 17.9443C84.6456 17.9443 84.1443 17.795 83.803 17.4963C83.4616 17.1763 83.259 16.8243 83.195 16.4403C83.1523 16.0563 83.0456 15.715 82.875 15.4163C82.7043 15.0963 82.4483 14.9363 82.107 14.9363C81.3176 14.9363 80.923 15.9603 80.923 18.0083V23.9603C80.923 24.4936 81.2003 25.027 81.755 25.5603C82.331 26.0723 82.619 26.4563 82.619 26.7123V26.8403C82.619 27.2456 82.363 27.4483 81.851 27.4483H74.971C74.459 27.4483 74.203 27.2456 74.203 26.8403V26.7123C74.203 26.4563 74.4163 26.0723 74.843 25.5603C75.2696 25.027 75.483 24.4936 75.483 23.9603V17.5923C75.483 17.1656 75.355 16.803 75.099 16.5043C74.843 16.2056 74.587 15.9496 74.331 15.7363C74.075 15.523 73.947 15.2883 73.947 15.0323V14.9363C73.947 14.5736 74.1923 14.2643 74.683 14.0083L79.195 11.8963C79.6216 11.747 79.9203 11.7363 80.091 11.8643C80.2616 11.9923 80.347 12.2376 80.347 12.6003V14.9363C81.0723 12.8243 82.5443 11.7683 84.763 11.7683Z" fill="#312F2E"/>
<path d="M101.731 22.3923C101.965 22.1576 102.221 22.0936 102.499 22.2003C102.797 22.2856 102.936 22.499 102.915 22.8403C102.893 23.331 102.744 23.843 102.467 24.3763C102.211 24.9096 101.837 25.443 101.347 25.9763C100.856 26.4883 100.173 26.915 99.2987 27.2563C98.4454 27.5976 97.4747 27.7683 96.3867 27.7683C93.9974 27.7683 92.0454 27.0216 90.5307 25.5283C89.0374 24.035 88.2907 22.083 88.2907 19.6723C88.2907 17.347 89.0587 15.459 90.5947 14.0083C92.1307 12.5363 94.0081 11.7896 96.2267 11.7683C98.1254 11.747 99.6614 12.163 100.835 13.0163C102.008 13.8696 102.595 15.0003 102.595 16.4083C102.595 17.5176 102.115 18.499 101.155 19.3523C100.216 20.2056 98.9894 20.7496 97.4747 20.9843C96.4081 21.1763 95.3414 21.251 94.2747 21.2083C95.1707 22.9363 96.5147 23.8003 98.3067 23.8003C99.8854 23.8003 101.027 23.331 101.731 22.3923ZM95.5547 13.4643C94.8934 13.4643 94.3601 13.795 93.9547 14.4563C93.5707 15.1176 93.3787 15.9816 93.3787 17.0483C93.3787 17.923 93.4747 18.7443 93.6667 19.5123C94.2641 19.5336 94.7974 19.5123 95.2667 19.4483C96.7174 19.1923 97.4427 18.0403 97.4427 15.9923C97.4214 15.2883 97.2294 14.691 96.8667 14.2003C96.5254 13.7096 96.0881 13.4643 95.5547 13.4643Z" fill="#312F2E"/>
<path d="M110.98 27.7683C109.359 27.7683 108.079 27.2563 107.14 26.2323C106.223 25.2083 105.764 23.747 105.764 21.8483V14.2643H104.548C104.335 14.2643 104.154 14.2003 104.004 14.0723C103.876 13.923 103.812 13.7416 103.812 13.5283V12.8243C103.812 12.3336 104.058 12.0883 104.548 12.0883H105.156C106.138 12.0883 106.98 11.8003 107.684 11.2243C108.388 10.627 108.847 9.83765 109.06 8.85631C109.167 8.30165 109.455 8.02431 109.924 8.02431H110.66C111.236 8.02431 111.524 8.30165 111.524 8.85631V12.0883H114.82C115.034 12.0883 115.204 12.163 115.332 12.3123C115.482 12.4403 115.556 12.611 115.556 12.8243V13.5283C115.556 13.7416 115.482 13.923 115.332 14.0723C115.204 14.2003 115.034 14.2643 114.82 14.2643H111.524V21.9443C111.524 22.4776 111.663 22.9043 111.94 23.2243C112.218 23.523 112.559 23.6723 112.964 23.6723C113.882 23.6723 114.586 23.2776 115.076 22.4883C115.226 22.2963 115.396 22.1896 115.588 22.1683C115.78 22.1256 115.94 22.1576 116.068 22.2643C116.218 22.371 116.292 22.5203 116.292 22.7123C116.292 24.0563 115.812 25.2403 114.852 26.2643C113.914 27.267 112.623 27.7683 110.98 27.7683Z" fill="#312F2E"/>
<path d="M131.761 22.3283C132.401 22.3283 132.625 22.659 132.433 23.3203L131.473 26.6803C131.324 27.1923 131.057 27.4483 130.673 27.4483H117.841C117.628 27.4483 117.436 27.3736 117.265 27.2243C117.095 27.075 117.009 26.8936 117.009 26.6803V26.2643C117.009 26.0296 117.244 25.5923 117.713 24.9523L125.233 13.4963H122.513C122.044 13.4963 121.585 13.6776 121.137 14.0403C120.689 14.3816 120.327 14.7656 120.049 15.1923C119.772 15.619 119.441 16.0136 119.057 16.3763C118.673 16.7176 118.289 16.8883 117.905 16.8883H117.713C117.372 16.8883 117.137 16.771 117.009 16.5363C116.881 16.3016 116.871 16.0136 116.977 15.6723L117.841 13.0803C117.969 12.6963 118.097 12.4403 118.225 12.3123C118.375 12.163 118.62 12.0883 118.961 12.0883H130.865C131.079 12.0883 131.249 12.1523 131.377 12.2803C131.527 12.387 131.601 12.5256 131.601 12.6963V13.0163C131.601 13.2296 131.271 13.859 130.609 14.9043L123.313 26.0403H126.385C126.94 26.0403 127.473 25.8483 127.985 25.4643C128.519 25.0803 128.945 24.6536 129.265 24.1843C129.607 23.715 129.98 23.2883 130.385 22.9043C130.791 22.5203 131.175 22.3283 131.537 22.3283H131.761Z" fill="#312F2E"/>
<path d="M146.731 22.3923C146.965 22.1576 147.221 22.0936 147.499 22.2003C147.797 22.2856 147.936 22.499 147.915 22.8403C147.893 23.331 147.744 23.843 147.467 24.3763C147.211 24.9096 146.837 25.443 146.347 25.9763C145.856 26.4883 145.173 26.915 144.299 27.2563C143.445 27.5976 142.475 27.7683 141.387 27.7683C138.997 27.7683 137.045 27.0216 135.531 25.5283C134.037 24.035 133.291 22.083 133.291 19.6723C133.291 17.347 134.059 15.459 135.595 14.0083C137.131 12.5363 139.008 11.7896 141.227 11.7683C143.125 11.747 144.661 12.163 145.835 13.0163C147.008 13.8696 147.595 15.0003 147.595 16.4083C147.595 17.5176 147.115 18.499 146.155 19.3523C145.216 20.2056 143.989 20.7496 142.475 20.9843C141.408 21.1763 140.341 21.251 139.275 21.2083C140.171 22.9363 141.515 23.8003 143.307 23.8003C144.885 23.8003 146.027 23.331 146.731 22.3923ZM140.555 13.4643C139.893 13.4643 139.36 13.795 138.955 14.4563C138.571 15.1176 138.379 15.9816 138.379 17.0483C138.379 17.923 138.475 18.7443 138.667 19.5123C139.264 19.5336 139.797 19.5123 140.267 19.4483C141.717 19.1923 142.443 18.0403 142.443 15.9923C142.421 15.2883 142.229 14.691 141.867 14.2003C141.525 13.7096 141.088 13.4643 140.555 13.4643Z" fill="#312F2E"/>
<path d="M149.963 27.4483C149.473 27.4483 149.227 27.2456 149.227 26.8403V26.7123C149.227 26.4563 149.43 26.0723 149.835 25.5603C150.262 25.027 150.475 24.4936 150.475 23.9603V9.33631C150.475 8.78165 150.262 8.24831 149.835 7.73631C149.43 7.20298 149.227 6.82965 149.227 6.61631V6.48831C149.227 6.25365 149.462 6.00831 149.931 5.75231L154.763 3.38431C155.211 3.19231 155.563 3.18165 155.819 3.35231C156.097 3.50165 156.235 3.73631 156.235 4.05631V23.9603C156.235 24.4936 156.47 25.027 156.939 25.5603C157.409 26.0723 157.643 26.4563 157.643 26.7123V26.8403C157.643 27.2456 157.387 27.4483 156.875 27.4483H149.963Z" fill="#312F2E"/>
</svg>
