<svg width="553" height="412" viewBox="0 0 553 412" fill="none" xmlns="http://www.w3.org/2000/svg">
<path d="M541 0L11.9998 2.23915e-05C5.37239 2.26658e-05 -0.00018936 5.3726 -0.00019237 12L-0.000238691 114C-0.000241701 120.627 5.29313 126 11.9205 126H541.247C547.875 126 553 120.627 553 114V12C553 5.37258 547.627 0 541 0Z" fill="white"/>
<rect x="129" y="27" width="232" height="14" rx="7" fill="#E1E5F0"/>
<rect x="129" y="56" width="341" height="14" rx="7" fill="#E1E5F0"/>
<rect x="129" y="85" width="388" height="14" rx="7" fill="#E1E5F0"/>
<g clip-path="url(#clip0)">
<path d="M36 63C36 82.8823 52.1177 99 72 99C91.8823 99 108 82.8823 108 63C108 43.1178 91.8823 27 72 27C52.1177 27 36 43.1178 36 63Z" fill="#EEDDD4"/>
<path d="M56.796 65.3183C54.7971 65.0103 52.6894 65.071 50.5752 65.5599C42.163 67.4699 36.8243 75.3742 38.638 83.2076C39.5256 87.0371 41.9712 90.139 45.222 92.0758L42.7106 119.236C42.3461 123.525 43.4658 127.619 45.7006 130.922C46.0153 131.395 46.362 131.862 46.703 132.297C47.0817 132.759 47.4925 133.214 47.8976 133.638C48.3403 134.088 48.8151 134.533 49.3162 134.94L84.1881 128.801C84.3914 128.27 84.5947 127.739 84.7547 127.15C84.9261 126.624 85.0597 126.073 85.1613 125.527C85.2686 125.013 85.3381 124.473 85.4077 123.932C85.4228 123.83 85.4378 123.729 85.4529 123.627L88.9353 90.442L95.6796 90.0056C96.2673 89.9682 96.7438 89.4882 96.7116 88.9328L96.6038 86.6413C96.5979 86.5389 96.576 86.4417 96.5407 86.3513C97.5113 85.4995 98.3672 84.5317 99.0482 83.4714C100.033 81.9447 100.69 80.2447 100.923 78.3883C101.867 71.0266 95.7139 64.4193 87.1956 63.6744C83.767 63.3746 80.4702 64.0622 77.6929 65.471C76.2958 64.8257 74.8148 64.4007 73.2738 64.2464L65.8933 63.4002C62.5798 63.4901 59.4935 64.1478 56.796 65.3183V65.3183Z" fill="#474961"/>
<path opacity="0.176986" d="M88.9958 90.4368L95.6906 90.0037C96.2783 89.9662 96.7547 89.4863 96.7226 88.9309L96.6148 86.6394C96.6089 86.5371 96.587 86.4398 96.5516 86.3494C97.5222 85.4977 98.3781 84.5299 99.059 83.4697C100.044 81.943 100.701 80.2431 100.934 78.3867C101.878 71.0253 95.7249 64.4182 87.2072 63.6733C83.7599 63.3719 80.4458 64.0688 77.6591 65.4933C85.0861 68.866 90.1712 78.4628 89.3811 86.7654L88.9958 90.4368Z" fill="#444444"/>
<path d="M90.1591 64.6108C90.1591 64.6108 91.1976 66.9369 87.8441 66.834C84.4906 66.7311 83.5052 66.5745 83.5052 66.5745L83.9475 64.2188L90.1591 64.6108Z" fill="#482D1F"/>
<path d="M77.8828 60.2158C77.9933 60.2253 78.1027 60.2334 78.2108 60.2402L77.874 60.2507L77.8828 60.2158ZM68.3996 56.5602L67.5371 56.3774L64.845 63.7497L71.5861 64.6253L70.5798 95.4498C70.5798 95.4498 69.6686 93.3983 68.3036 89.6502C68.2731 89.6665 68.2416 89.6814 68.2089 89.6949L51.1968 96.7496C51.1252 96.7793 51.0521 96.801 50.9786 96.815C52.0353 99.1781 53.221 102.035 54.4686 104.986C57.697 112.604 58.6358 116.234 62.4776 120.971C66.8658 126.371 69.9682 125.99 71.2642 126.224C74.1728 126.801 76.8663 126.162 78.4899 125.447C80.4392 124.595 84.0286 123.145 86.1774 116.835L85.4649 123.625C85.4498 123.726 85.4348 123.828 85.4197 123.93C85.3501 124.47 85.2805 125.01 85.1733 125.524C85.0717 126.07 84.938 126.622 84.7667 127.147C84.6067 127.737 84.4034 128.267 84.2001 128.798L80.0983 129.52L133.257 120.231C133.406 120.205 133.534 120.131 133.627 120.026C141.501 113.15 145.148 108.317 144.569 105.527C141.832 105.591 137.928 105.704 132.858 105.867C129.709 105.968 126.59 106.526 123.602 107.524L114.204 110.661C106.574 109.619 96.401 108.276 93.9025 108.176L94.9593 90.0507L88.9472 90.4396L87.8822 100.589C87.48 88.8642 84.9545 77.0174 84.3899 65.283L87.7735 64.7633C89.9003 65.2141 94.3007 65.8257 94.2455 62.8978C94.2455 62.8978 88.3361 61.5947 84.1672 60.6122L83.8338 60.4069C83.538 60.2279 83.2912 60.1393 82.954 60.0997C82.8843 60.0789 82.8203 60.0902 82.7562 60.1015L81.1796 60.148L80.9591 60.1548C81.4738 60.0898 81.8273 60.0142 81.9533 59.9788C84.5943 59.3158 86.8493 53.8688 87.0001 46.5477C87.0257 45.9491 86.9557 45.3673 86.9175 44.7799L86.1596 39.0052C85.9969 37.7135 85.5159 36.4779 84.7128 35.4641C84.3732 35.0288 84.0393 34.6255 83.6904 34.3238C79.6297 30.4837 73.6642 32.029 72.6042 32.3477C72.4768 32.3701 72.3551 32.4245 72.2277 32.447C71.0686 32.9481 70.0028 33.2347 68.8508 33.4045C68.3413 33.4942 68.0009 33.9832 68.0595 34.501L69.3487 42.7238C69.4526 43.4976 65.3074 42.7091 65.3017 42.6771C63.1883 41.5968 62.1903 49.5951 63.3436 50.5473C64.18 51.1922 66.3466 51.933 66.9538 52.0242C67.3267 52.0906 67.6324 52.3338 67.7526 52.6427C67.8208 54.3023 68.0365 55.6082 68.3996 56.5602Z" fill="#DB9E75"/>
<path opacity="0.2" d="M94.9573 90.0667L88.9444 90.4557L85.4614 123.645C85.4463 123.747 85.4313 123.849 85.4162 123.95C85.3466 124.491 85.277 125.031 85.1697 125.545C85.0681 126.091 84.9345 126.643 84.7631 127.168C84.6031 127.758 84.3998 128.289 84.1964 128.82L80.094 129.542L133.26 120.252C133.409 120.226 133.537 120.151 133.631 120.047C141.505 113.17 145.153 108.336 144.574 105.546C141.836 105.609 137.932 105.723 132.862 105.885C129.712 105.986 126.593 106.544 123.604 107.542L114.205 110.68C106.574 109.637 96.3991 108.295 93.9003 108.195L94.9573 90.0667Z" fill="#8C2A00"/>
<path d="M55.9018 43.2299C52.2706 46.6491 49.0491 51.3012 50.2092 53.7942C51.1271 55.8114 53.3748 56.571 55.6602 57.3571C57.5043 57.9828 60.8613 58.8628 65.3842 58.375C65.3846 58.3783 65.3849 58.3817 65.3853 58.385C66.4704 58.359 67.5236 58.3387 68.6087 58.3127C69.1645 58.2809 69.609 57.8065 69.5448 57.2566C69.181 56.1323 68.8172 55.008 68.4533 53.8836C68.2079 53.334 67.9278 52.6343 67.6981 51.8722C67.165 51.8388 65.9662 51.7094 64.9109 50.8431C63.7521 49.8917 62.9398 48.2851 63.2917 46.5396C63.5909 44.8695 64.9772 43.371 66.5371 43.2285C67.4131 43.1403 68.1705 43.5021 68.2779 43.5492C69.0655 43.953 69.7711 44.5708 70.1623 44.9469C71.5663 44.0968 73.6845 42.4367 75.1799 39.6273C75.5302 38.9935 75.908 38.0797 76.3135 36.886C79.6313 37.0477 82.2787 36.3946 84.2558 34.9266C83.6227 34.1084 82.7402 33.4229 81.6082 32.8702C79.9102 32.0412 79.7207 31.9382 77.7278 31.7395C76.4803 31.6152 74.2138 31.9044 72.6341 32.351L72.5748 32.3615C70.7833 32.8749 69.2894 33.2039 68.2966 33.3787C63.4456 34.3317 61.4429 34.024 59.192 35.6747C58.7832 35.9777 57.8282 36.74 57.0918 37.992C56.0474 39.7614 55.8233 41.6373 55.9018 43.2299ZM86.8575 49.1318C86.4098 53.6695 85.4021 55.4883 85.5662 55.4594C85.7304 55.4305 86.1966 55.5797 89.3312 54.0706C90.8853 53.3348 92.3433 52.616 92.8159 51.1794C93.4805 49.1478 89.844 45.8323 86.7652 43.7335C87.1003 45.6293 87.039 47.1143 86.8575 49.1318ZM86.4348 40.3416C86.7438 40.2212 86.804 39.8145 86.5402 39.6298C86.2067 39.4244 85.6697 39.1889 85.0235 39.2696C83.6991 39.4367 82.3938 40.4588 83.8821 40.6589C84.8354 40.8212 85.8433 40.5447 86.4348 40.3416ZM80.3364 41.7185C80.6453 41.5981 80.7055 41.1914 80.4097 41.0124C80.0762 40.807 79.5393 40.5714 78.8611 40.6578C77.5367 40.8249 76.237 41.879 77.7197 42.0471C78.737 42.1981 79.7128 41.9273 80.3364 41.7185Z" fill="#482D1F"/>
<path d="M85.4231 42.6143C85.5513 43.1558 85.8019 44.0334 86.2106 44.3C86.8083 44.7054 87.2435 42.9557 86.6732 42.056C86.4256 41.6616 86.1672 41.6172 85.9227 41.7061C85.556 41.8394 85.3506 42.2255 85.4231 42.6143ZM79.9165 44.4088C80.0142 44.9615 80.2648 45.8391 80.704 46.0945C81.3018 46.5 81.7369 44.7503 81.1667 43.8505C80.9191 43.4562 80.6606 43.4118 80.4161 43.5007C80.0494 43.634 79.844 44.02 79.9165 44.4088Z" fill="#482D1F"/>
<path d="M70.9642 95.5586C70.9944 95.2911 70.8019 95.0496 70.5342 95.0192C70.2665 94.9888 70.025 95.1811 69.9948 95.4487L68.72 106.73C68.6897 106.998 68.8822 107.239 69.1499 107.27C69.4176 107.3 69.6591 107.108 69.6893 106.84L70.9642 95.5586ZM48.3025 93.8583C48.3044 93.9162 48.3167 93.9748 48.3405 94.0314L49.3084 96.3345C49.6413 97.1361 50.5647 97.5059 51.3682 97.1729C51.617 97.0698 51.7349 96.7846 51.6316 96.5358C51.5283 96.2871 51.2429 96.1691 50.9941 96.2722C50.6838 96.4008 50.3337 96.2606 50.2085 95.9592L49.3763 93.979C49.4538 93.9188 49.5139 93.8347 49.544 93.7335C49.6207 93.4754 49.4735 93.2039 49.2153 93.1271C47.7271 92.6843 46.296 92.0079 45.0267 91.1466C44.8038 90.9953 44.5004 91.0532 44.3492 91.276C44.198 91.4987 44.2561 91.802 44.4791 91.9532C45.6498 92.7477 46.9476 93.3935 48.3025 93.8583ZM67.3333 86.0993C67.339 86.1204 67.3462 86.1414 67.3549 86.1621L68.3228 88.4652C68.4516 88.7755 68.3116 89.1253 68.012 89.2494C67.7632 89.3526 67.6452 89.6378 67.7485 89.8865C67.8518 90.1353 68.1372 90.2533 68.386 90.1502C69.1878 89.8179 69.5573 88.8951 69.2229 88.0899L68.2542 85.7849C68.2167 85.6955 68.1556 85.6232 68.0813 85.5721C68.3779 85.0494 68.5917 84.5988 68.7571 84.1506C68.9057 83.7481 69.0178 83.3427 69.124 82.8418C69.1964 82.5006 69.238 82.2726 69.3841 81.4417C69.4307 81.1765 69.2534 80.9237 68.9881 80.8769C68.7227 80.8302 68.4699 81.0073 68.4233 81.2724C68.2795 82.0901 68.2387 82.3137 68.1697 82.6391C68.0726 83.097 67.9727 83.4582 67.8419 83.8126C67.6669 84.2867 67.4266 84.7726 67.0615 85.3846C66.9236 85.6158 66.9993 85.9151 67.2307 86.0531C67.2638 86.0728 67.2982 86.0882 67.3333 86.0993ZM75.5446 60.0586C76.8256 60.3942 77.8006 61.2152 79.6819 61.0748C81.2171 61.1676 82.3924 60.5316 82.9763 60.0988C82.9066 60.078 82.8425 60.0893 82.7785 60.1006L81.2018 60.1471C80.4653 60.2768 79.2592 60.3571 77.8144 60.2153L75.5446 60.0586Z" fill="#482D1F"/>
<path d="M82.7399 52.3219C82.5043 52.2973 81.9259 52.201 81.7676 51.8658C81.7563 51.8017 81.7073 51.7113 81.728 51.6416C81.8221 51.427 82.2555 51.4497 82.8433 51.4123C83.8852 51.3279 84.7009 51.0853 84.7009 51.0853C84.7009 51.0853 84.5579 51.7707 84.426 51.959C84.1642 52.5333 83.0828 52.3936 82.7399 52.3219Z" fill="#482D1F"/>
<path d="M84.0816 45.8922L84.0715 45.846L84.0782 45.8687L84.0816 45.8922ZM85.0608 49.2031L85.0691 49.2385C85.1309 49.5878 84.9491 49.9543 84.6108 50.0737C84.548 50.0912 84.5127 50.1 84.4773 50.1086C84.1426 50.1903 83.9002 50.2364 83.028 50.3899C82.8512 50.4211 82.6826 50.303 82.6513 50.1262C82.6201 49.9494 82.7381 49.7809 82.9149 49.7498C83.7716 49.5989 84.0073 49.5541 84.3229 49.4771C84.3558 49.4691 84.3885 49.4609 84.4215 49.4525C84.4143 49.4538 84.4345 49.4119 84.4305 49.3639L83.4479 46.0293L83.4378 45.9831L83.1682 44.0834C83.143 43.9057 83.2666 43.7412 83.4444 43.7161C83.6221 43.691 83.7867 43.8147 83.8119 43.9924L84.0782 45.8687L85.0608 49.2031Z" fill="#482D1F"/>
</g>
<path d="M541 286L12.0001 286C5.37264 286 5.47806e-05 291.373 5.17709e-05 298L5.44957e-06 400C2.43986e-06 406.627 5.29338 412 11.9208 412H541.248C547.875 412 553 406.627 553 400V298C553 291.373 547.628 286 541 286Z" fill="white"/>
<rect x="129" y="313" width="222" height="14" rx="7" fill="#E1E5F0"/>
<rect x="129" y="342" width="388" height="14" rx="7" fill="#E1E5F0"/>
<rect x="129" y="371" width="359" height="14" rx="7" fill="#E1E5F0"/>
<g clip-path="url(#clip1)">
<path d="M36 349C36 368.882 52.1177 385 72 385C91.8823 385 108 368.882 108 349C108 329.118 91.8823 313 72 313C52.1177 313 36 329.118 36 349Z" fill="#EEDDD4"/>
<g clip-path="url(#clip2)">
<path d="M99.8347 403.485C102.796 403.17 107.022 402.744 112.513 402.206C113.826 402.044 115.072 400.672 114.987 399.245C115.254 395.779 112.944 388.923 112.441 387.471C111.291 384.22 109.22 377.948 108.464 375.058C106.361 366.881 103.764 363.827 102.877 362.94C101.858 361.889 100.872 361.167 100.214 360.707C95.7774 357.653 91.0774 357.193 88.6781 357.127C88.6124 357.095 88.5466 357.095 88.4809 357.095L83.107 357.019C80.3108 356.368 77.5639 356.159 75.3229 355.991C72.0431 355.762 68.6571 355.522 65.3171 355.948L56.1724 356.077C56.1067 356.077 56.041 356.077 55.9752 356.109C53.5759 356.175 48.8759 356.635 44.4389 359.689C43.7815 360.149 42.7955 360.871 41.7766 361.922C40.8892 362.809 38.2927 365.863 36.1892 374.04C35.4332 376.93 33.3626 383.202 32.2123 386.453C31.8555 387.483 31.0927 390.807 29.9237 396.425C29.8258 396.576 29.7571 396.74 29.7236 396.915C29.6997 397.064 29.7032 397.211 29.731 397.355C29.6684 397.657 29.6047 397.966 29.5399 398.281C29.8089 398.286 30.0769 398.292 30.344 398.298C30.7168 398.597 31.2286 398.807 31.8115 398.865L40.7274 399.809C39.2885 408.7 39.1195 416.156 39.9253 420.818C39.9253 420.922 39.9618 421.059 39.9983 421.163C40.1808 422.229 96.9264 423.502 97.3278 423.124C100.977 419.855 100.174 412.044 100.174 412.044C100.06 408.984 99.9467 406.135 99.8347 403.485Z" fill="#8D6047"/>
<path d="M78.029 364.332L72.6157 361.101L68.9307 364.979L68.9348 365.013C69.0282 365.789 69.5601 366.404 70.2525 366.642L70.7502 400.411C70.7516 400.504 70.7925 400.593 70.8627 400.654L76.0147 405.148C76.15 405.266 76.3551 405.253 76.4752 405.12L81.1429 399.937C81.2072 399.866 81.237 399.77 81.2245 399.675L76.7884 365.964C77.4718 365.697 77.9541 365.064 78.029 364.332Z" fill="#F69A66"/>
<path opacity="0.176986" d="M72.0332 355.515C73.9103 355.849 80.8344 355.927 81.0318 358.181C81.1634 359.684 81.0926 362.29 80.8193 365.998L72.6156 361.101L66.5858 367.447C63.0568 361.815 62.4929 358.299 64.8943 356.899C68.4964 354.798 70.156 355.181 72.0332 355.515Z" fill="#8C2A00"/>
<path d="M65.6261 348.446L67.2391 358.565C67.283 358.791 67.4237 358.998 67.6361 359.057C68.5753 359.41 69.8819 359.758 71.4287 359.792C74.2257 359.885 76.4286 358.989 77.6439 358.351C77.8895 358.237 78.0329 357.941 77.9827 357.683L77.0082 352.008C78.8312 352.31 78.7238 352.265 78.9006 352.288C81.0335 352.409 82.7632 352.006 83.0733 351.879C84.216 351.557 85.2538 350.352 86.0309 348.495C87.0886 346.014 87.7466 342.34 87.66 338.109C87.6761 337.503 87.5955 336.917 87.5149 336.33L86.5214 330.535C86.3028 329.239 85.7356 328.045 84.8905 326.971C84.5321 326.505 84.1924 326.136 83.8008 325.844C81.3681 323.726 78.3741 323.409 76.0498 323.598C74.8088 323.678 73.7069 323.9 72.9303 324.14C72.6462 324.228 71.6388 324.558 70.1735 324.943C69.3795 325.164 68.7342 325.289 68.3533 325.397C63.5837 326.524 61.5673 326.313 59.3984 328.072C58.9906 328.386 58.0711 329.167 57.3872 330.47C55.4592 334.157 56.875 338.164 57.2746 339.358C58.5703 342.92 61.1387 344.763 61.9658 345.572C62.9558 346.557 64.5224 347.691 65.6261 348.446ZM113.196 415.573L111.377 402.305L103.167 403.096L99.6915 403.479L99.9019 411.026C98.5559 410.822 97.3428 410.752 96.2627 410.815C88.334 408.941 65.2943 403.597 52.2335 401.601L52.3033 400.945L31.5817 398.751C30.9988 398.693 30.487 398.483 30.1142 398.184C29.9988 398.181 29.8832 398.179 29.7675 398.176C28.5038 408.007 29.5198 420.303 41.2978 423.744H94.384C94.3796 423.76 94.3747 423.776 94.3695 423.791H118.725C118.859 420.587 117.017 417.848 113.196 415.573Z" fill="#DB9E75"/>
<path d="M51.5174 401.015C51.4616 401.281 51.6323 401.542 51.8988 401.598C52.1653 401.654 52.4266 401.483 52.4824 401.217C53.0003 398.747 55.0345 390.521 56.9461 382.962C57.0128 382.698 56.8529 382.43 56.5889 382.363C56.3249 382.297 56.0568 382.456 55.9901 382.72C54.0729 390.302 52.0395 398.525 51.5174 401.015ZM99.3034 403.095C99.3468 403.364 99.5998 403.546 99.8686 403.503C100.137 403.46 100.32 403.207 100.277 402.938C99.8747 400.447 98.8233 392.039 97.8964 384.297C97.8641 384.027 97.6187 383.834 97.3484 383.866C97.078 383.899 96.8851 384.144 96.9174 384.414C97.847 392.179 98.898 400.584 99.3034 403.095Z" fill="#482D1F"/>
<path d="M77.0812 352.035L72.0766 350.902L77.5339 354.923L77.0812 352.035Z" fill="#482D1F"/>
<path d="M84.6906 338.887C84.8295 339.428 85.1019 340.312 85.4872 340.572C86.1298 340.949 86.526 339.199 85.9122 338.281C85.6693 337.894 85.431 337.873 85.1791 337.955C84.8045 338.095 84.6154 338.5 84.6906 338.887ZM78.8967 339.912C78.971 340.466 79.1466 341.369 79.5445 341.693C80.1351 342.147 80.7374 340.424 80.2141 339.455C80.0035 339.061 79.7589 339.008 79.5008 339.058C79.1136 339.134 78.8537 339.519 78.8967 339.912Z" fill="#482D1F"/>
<path d="M82.2172 344.684C81.9788 344.664 81.399 344.609 81.2332 344.273C81.2207 344.209 81.1696 344.118 81.1893 344.047C81.2745 343.797 81.6867 343.85 82.2738 343.77C83.3187 343.634 84.1387 343.374 84.1387 343.374C84.1387 343.374 84.0383 344.063 83.9146 344.288C83.6538 344.84 82.5587 344.718 82.2172 344.684Z" fill="#482D1F"/>
<path d="M83.1507 337.779L83.1388 337.734L83.1463 337.756L83.1507 337.779ZM84.2938 341.09C84.4253 341.442 84.2127 341.853 83.8568 341.986C83.7778 342.009 83.7778 342.009 83.7263 342.023C83.1901 342.171 82.8528 342.252 82.2685 342.366C82.0903 342.401 81.9178 342.284 81.8832 342.106C81.8485 341.928 81.9649 341.756 82.1431 341.721C82.709 341.611 83.0306 341.533 83.5518 341.39L83.6546 341.362C83.6552 341.36 83.6773 341.317 83.6751 341.311L82.5172 337.948L82.5054 337.904L82.1354 336.002C82.1008 335.824 82.2171 335.652 82.3953 335.617C82.5735 335.582 82.746 335.699 82.7807 335.877L83.1463 337.756L84.2938 341.09Z" fill="#482D1F"/>
<path d="M62.5745 339.083C62.6106 340.056 62.9808 341.052 63.5708 341.795C64.2951 342.736 65.1398 343.162 66.1732 343.415C66.3495 343.458 66.4574 343.636 66.4141 343.812C66.3709 343.988 66.1929 344.096 66.0166 344.053C65.5623 343.942 65.1952 343.82 64.7543 343.598C64.1049 343.271 63.5259 342.814 63.0527 342.2C62.3791 341.351 61.9589 340.221 61.9176 339.107C61.9109 338.926 62.0525 338.774 62.2339 338.767C62.4153 338.76 62.5678 338.902 62.5745 339.083Z" fill="#482D1F"/>
<path d="M62.5568 338.971C62.5585 338.375 62.6784 337.769 62.9461 337.186C63.6963 335.535 65.4753 334.353 67.1243 334.568C68.0518 334.689 68.7643 335.253 68.8413 335.305C69.1489 335.568 69.403 335.847 69.6092 336.111L86.7129 331.495C86.336 327.786 84.4552 325.327 81.0707 324.118C80.1563 323.792 77.6917 323.311 75.5455 323.589C72.2327 324.019 69.0485 324.929 68.1538 325.17C67.4242 325.379 66.18 325.504 65.8438 325.603C62.1898 325.951 59.4211 327.57 58.4724 328.416C58.1167 328.719 57.2877 329.483 56.708 330.766C54.8896 334.665 56.298 338.708 56.7715 339.619C57.103 340.257 57.5619 340.637 57.5619 340.637C58.9289 340.3 60.5939 339.744 62.5568 338.971ZM86.3733 335.549C86.6834 335.422 86.6986 334.984 86.4289 334.802C86.0884 334.601 85.522 334.443 84.8767 334.568C83.5539 334.825 82.3037 335.971 83.863 336.07C84.7843 336.159 85.7916 335.829 86.3733 335.549ZM79.7709 337.065C80.081 336.938 80.0963 336.5 79.7943 336.325C79.4538 336.123 78.8874 335.966 78.2098 336.097C76.887 336.354 75.6431 337.532 77.1962 337.599C78.1882 337.707 79.1508 337.32 79.7709 337.065Z" fill="#482D1F"/>
</g>
</g>
<path d="M541 143L12.0001 143C5.37264 143 5.47806e-05 148.373 5.17709e-05 155L5.44957e-06 257C2.43986e-06 263.627 5.29338 269 11.9208 269H541.248C547.875 269 553 263.627 553 257V155C553 148.373 547.628 143 541 143Z" fill="white"/>
<rect x="129" y="170" width="260" height="14" rx="7" fill="#E1E5F0"/>
<rect x="129" y="199" width="351" height="14" rx="7" fill="#E1E5F0"/>
<rect x="129" y="228" width="372" height="14" rx="7" fill="#E1E5F0"/>
<g clip-path="url(#clip3)">
<path d="M72 242C52.1178 242 36 225.882 36 206C36 186.118 52.1178 170 72 170C91.8823 170 108 186.118 108 206C108 225.882 91.8823 242 72 242Z" fill="#88807B"/>
<g clip-path="url(#clip4)">
<path d="M64.6484 209.192C62.0768 209.239 58.0303 209.726 54.0328 212.047C53.3437 212.44 52.3265 213.095 51.2109 214.045C50.2593 214.864 47.4702 217.583 44.8124 225.249C43.8608 227.936 41.0717 233.177 39.4639 236.06C38.9389 237.01 39.5623 238.189 40.678 238.288C44.1947 238.54 48.5326 239.982 52.6314 239.99C52.294 246.118 52.056 253.428 51.9656 261.58C51.9656 261.58 51.4406 271.283 54.4593 274.428C54.9818 274.981 64.7846 274.405 75.197 274.736C86.3628 275.09 98.2576 276.24 101.025 273.341C105.501 268.653 102.942 267.384 98.8347 240.679C99.4779 240.745 100.077 240.803 100.611 240.852C104.759 241.246 113.449 240.983 117.631 240.819C118.741 240.786 119.46 239.539 119.003 238.488C117.631 235.303 115.213 229.557 114.494 226.634C112.436 218.294 109.856 215.241 108.974 214.321C107.961 213.271 106.945 212.556 106.327 212.056C104.259 210.38 97.7366 209.17 86.7596 208.428C82.0286 206.818 76.6267 207.28 73.1298 207.591C70.6847 207.813 67.6018 208.088 64.6484 209.192Z" fill="#F69A66"/>
<path opacity="0.176986" d="M64.5408 209.202C61.9569 209.286 58.082 209.829 54.252 212.055C53.5618 212.449 52.5429 213.106 51.4254 214.058C50.4722 214.879 47.6785 217.605 45.0163 225.289C44.0631 227.982 41.0724 233.165 39.4619 236.055C38.936 237.007 39.5605 238.189 40.678 238.288C41.7049 238.362 42.8614 238.576 43.9609 238.757C44.3964 238.829 45.5989 238.969 46.1345 239.082C48.7249 239.628 50.2342 239.99 52.6489 239.99C52.6612 239.99 52.6736 239.99 52.686 239.99C53.2063 230.54 53.9625 223.895 54.779 221.288C55.3377 219.515 56.1479 217.479 56.1479 217.479C56.5423 216.33 57.1783 215.147 58.4601 213.538C60.188 211.394 62.3234 210.059 64.5408 209.202V209.202ZM72.277 212.703C72.8687 216.184 73.9533 217.212 73.9533 217.212C76.4512 215.767 85.3582 211.258 84.5365 208.795C84.4708 208.631 84.3393 208.303 83.4848 207.777C80.2638 205.807 76.3197 206.759 74.9393 207.153C74.9393 207.153 68.5959 206.431 67.3798 210.142C66.1637 213.852 67.6099 216.48 67.6099 216.48C68.6617 215.845 70.2174 214.586 72.277 212.703Z" fill="#444444"/>
<path d="M52.0064 266.458L52.6489 239.99L43.9404 238.757L41.2792 271.213C41.051 271.332 40.8294 271.448 40.6146 271.564C38.7312 272.572 37.1702 274.408 35.9316 277.072C35.8692 277.206 35.8378 277.353 35.84 277.501C35.8478 278.045 36.2956 278.48 36.8401 278.472L106.054 277.471C122.577 274.198 118.083 251.804 114.847 240.924C110.306 241.066 103.892 241.179 100.498 240.859C97.2905 240.568 91.7209 239.925 88.4458 239.435L94.3185 257.016C78.5479 257.798 63.061 262.187 52.0064 266.458ZM70.44 205.016L70.5884 211.073C76.8757 213.39 81.336 209.826 81.336 209.826C81.336 209.826 81.1 205.311 80.6281 196.281C80.7043 196.118 80.7785 195.945 80.8503 195.762C81.442 194.284 83.5712 189.432 83.1111 187.758C83.0268 187.404 84.783 182.14 82.2111 179.486C79.7686 176.964 72.997 177.036 72.7248 177.052C71.5744 177.084 70.4241 177.052 69.1751 176.789C69.0437 176.789 68.9122 176.756 68.7807 176.756C67.6632 176.658 61.3856 176.362 58.1646 181.025C57.8688 181.419 57.6059 181.846 57.3758 182.372C56.8828 183.587 56.6527 184.9 56.7513 186.214L57.2115 192.059C57.2772 192.65 57.3758 193.242 57.5073 193.8C58.4604 197.938 60.0052 201.32 61.6485 203.455C62.8646 205.064 64.1793 205.983 65.3297 206.016C65.6583 206.049 67.4332 206.016 69.5038 205.392C69.6386 205.347 69.6045 205.379 70.44 205.016Z" fill="#F2A98A"/>
<path d="M87.6216 239.381C87.7302 239.63 88.0206 239.744 88.2703 239.636C88.52 239.527 88.6345 239.237 88.5259 238.988C87.8896 237.526 87.6338 236.708 87.1409 234.574C87.0796 234.309 86.8149 234.144 86.5496 234.205C86.2843 234.266 86.1189 234.531 86.1801 234.796C86.6857 236.985 86.959 237.858 87.6216 239.381ZM93.9704 256.329C93.6993 256.303 93.4589 256.502 93.4333 256.773C93.4077 257.044 93.6067 257.284 93.8778 257.309C93.9418 257.315 94.0671 257.33 94.2449 257.353C94.544 257.393 94.8779 257.446 95.2379 257.513C96.2654 257.704 97.2922 257.971 98.2461 258.324C98.8092 258.533 99.33 258.766 99.7998 259.024C100.038 259.155 100.338 259.068 100.469 258.83C100.601 258.591 100.514 258.292 100.275 258.161C99.76 257.878 99.1953 257.625 98.5887 257.401C97.5768 257.026 96.4974 256.745 95.4186 256.545C95.0414 256.474 94.6909 256.419 94.3756 256.377C94.2647 256.362 94.1659 256.35 94.0803 256.34C94.0279 256.334 93.9909 256.331 93.9704 256.329Z" fill="#482D1F"/>
<path opacity="0.2" d="M41.3361 271.247C44.0488 269.83 47.7106 268.164 52.0657 266.477L52.7086 239.99L44.0001 238.757L41.3361 271.247Z" fill="#8C2A00"/>
<path d="M70.4307 205.025L70.5227 208.38L75.0604 202.94C74.9958 202.971 74.9294 203.004 74.8612 203.037C74.2038 203.365 73.3821 203.727 72.3304 204.186C71.409 204.597 70.8175 204.857 70.4307 205.025Z" fill="#482D1F"/>
<path d="M74.0758 189.407L74.1052 188.775C74.1052 188.775 74.2367 187.593 75.0584 186.411C75.1241 186.345 75.6828 185.623 76.5374 185.261C78.0821 184.67 80.1199 185.36 81.2374 186.772C82.4206 188.217 82.4206 190.154 81.7961 191.632C81.1717 193.11 79.9556 193.8 79.5283 193.997L77.622 194.588L77.6137 194.584C79.2796 197.025 80.7302 199.152 80.7302 199.152C80.7302 199.152 83.4724 196.624 84.6884 194.621C85.2801 193.635 87.3836 191.238 87.7451 187.462C87.8437 186.214 88.2381 181.977 85.4115 178.858C84.4255 177.774 83.308 177.249 82.8479 177.019C80.2514 175.869 78.3451 176.559 73.3493 176.657C72.9549 176.657 72.2975 176.69 71.443 176.657C69.8982 176.625 68.8136 176.559 68.5178 176.559C66.0527 176.46 60.6954 177.216 58.329 180.861C58.1975 181.124 58.0331 181.353 57.9017 181.551C58.5919 181.78 59.3478 182.207 60.2681 182.372C62.766 182.766 64.9024 182.273 66.1842 181.813C68.6821 184.178 71.2129 186.509 73.7108 188.874C73.825 189.04 73.9471 189.219 74.0758 189.407Z" fill="#332117"/>
<path d="M59.1092 193.086C59.0106 192.692 58.6162 192.397 58.2218 192.462C57.9588 192.495 57.7616 192.692 57.663 193.152C57.5644 194.302 58.8134 195.746 59.1749 195.057C59.405 194.597 59.2078 193.645 59.1092 193.086ZM66.0527 192.191C65.9541 191.797 65.5597 191.501 65.1653 191.567C64.9024 191.599 64.7052 191.797 64.6065 192.256C64.5079 193.406 65.7569 194.851 66.1184 194.161C66.3814 193.701 66.1842 192.749 66.0527 192.191Z" fill="#482D1F"/>
<path d="M61.3526 193.31L61.3198 196.594C61.3198 196.607 61.3698 196.657 61.3855 196.657C61.5653 196.657 61.7491 196.645 62.0359 196.617C62.0915 196.612 62.1498 196.606 62.2337 196.597C62.3393 196.587 62.3972 196.581 62.4526 196.575C62.6424 196.556 62.7996 196.541 62.9675 196.527C63.1484 196.511 63.3077 196.645 63.3235 196.825C63.3392 197.006 63.2053 197.165 63.0245 197.181C62.8599 197.195 62.7055 197.21 62.5185 197.229C62.4635 197.234 62.406 197.24 62.3001 197.251C62.2153 197.259 62.1561 197.265 62.0992 197.271C61.7931 197.301 61.5908 197.313 61.3855 197.313C61.0068 197.313 60.6624 196.969 60.6624 196.591L60.6953 193.304C60.6971 193.122 60.8458 192.977 61.0273 192.979C61.2088 192.98 61.3545 193.129 61.3526 193.31Z" fill="#482D1F"/>
<path d="M63.6535 199.054C63.8836 198.956 64.4423 198.693 64.4752 198.365C64.4752 198.299 64.508 198.2 64.4423 198.168C64.278 198.003 63.8836 198.168 63.292 198.332C62.2402 198.594 61.3857 198.66 61.3857 198.66C61.3857 198.66 61.7143 199.186 61.9115 199.317C62.3059 199.678 63.3248 199.218 63.6535 199.054Z" fill="#482D1F"/>
<path d="M62.1947 193.67C62.7191 195.672 64.5419 197.149 66.7101 197.149C69.2877 197.149 71.3773 195.062 71.3773 192.486C71.3773 191.915 71.2745 191.368 71.0866 190.863L73.692 189.741C73.952 189.661 74.0973 189.385 74.0165 189.125C73.9357 188.865 73.6594 188.72 73.3994 188.801L70.6492 189.984C69.8208 188.685 68.3662 187.823 66.7101 187.823C64.1325 187.823 62.043 189.911 62.043 192.486C62.043 192.556 62.0445 192.626 62.0476 192.695L61.0224 192.801C60.5771 190.689 58.7016 189.104 56.4555 189.104C53.878 189.104 51.7884 191.192 51.7884 193.767C51.7884 196.342 53.878 198.43 56.4555 198.43C59.0285 198.43 61.1151 196.35 61.1227 193.781L62.1947 193.67ZM70.0477 190.933C70.2681 191.405 70.3912 191.931 70.3912 192.486C70.3912 194.518 68.7431 196.164 66.7101 196.164C64.6771 196.164 63.029 194.518 63.029 192.486C63.029 190.455 64.6771 188.808 66.7101 188.808C68.106 188.808 69.3204 189.584 69.9445 190.729C69.9471 190.739 69.95 190.75 69.9533 190.761C69.9736 190.826 70.0062 190.884 70.0477 190.933ZM60.1262 193.487C60.1331 193.579 60.1367 193.673 60.1367 193.767C60.1367 195.798 58.4886 197.445 56.4555 197.445C54.4225 197.445 52.7744 195.798 52.7744 193.767C52.7744 191.736 54.4225 190.089 56.4555 190.089C58.3272 190.089 59.8726 191.485 60.1061 193.291C60.1029 193.324 60.1029 193.357 60.1064 193.391C60.1099 193.424 60.1166 193.456 60.1262 193.487Z" fill="#482D1F"/>
</g>
</g>
<defs>
<clipPath id="clip0">
<rect x="36" y="27" width="72" height="72" rx="36" fill="white"/>
</clipPath>
<clipPath id="clip1">
<rect x="36" y="313" width="72" height="72" rx="36" fill="white"/>
</clipPath>
<clipPath id="clip2">
<rect width="171.567" height="248.268" fill="white" transform="matrix(-1 0 0 1 200.584 295.06)"/>
</clipPath>
<clipPath id="clip3">
<rect x="36" y="170" width="72" height="72" rx="36" fill="white"/>
</clipPath>
<clipPath id="clip4">
<rect width="171.567" height="248.268" fill="white" transform="matrix(-1 0 0 1 145.723 152.06)"/>
</clipPath>
</defs>
</svg>
