<svg width="1164" height="880" viewBox="0 0 1164 880" fill="none" xmlns="http://www.w3.org/2000/svg">
<path d="M1154 33H10C4.47715 33 0 37.8555 0 43.8451V869.155C0 875.144 4.47715 880 10 880H1154C1159.52 880 1164 875.144 1164 869.155V43.8451C1164 37.8555 1159.52 33 1154 33Z" fill="white"/>
<path d="M0 20.0044C0 8.95627 8.94834 0 20.0043 0H1144C1155.04 0 1164 8.95709 1164 20.0044V44H0V20.0044Z" fill="#D8DEED"/>
<path d="M29.5 32C34.7467 32 39 27.7467 39 22.5C39 17.2533 34.7467 13 29.5 13C24.2533 13 20 17.2533 20 22.5C20 27.7467 24.2533 32 29.5 32Z" fill="#FF5645"/>
<path d="M60.5 32C65.7467 32 70 27.7467 70 22.5C70 17.2533 65.7467 13 60.5 13C55.2533 13 51 17.2533 51 22.5C51 27.7467 55.2533 32 60.5 32Z" fill="#FFCB3D"/>
<path d="M92.5 32C97.7467 32 102 27.7467 102 22.5C102 17.2533 97.7467 13 92.5 13C87.2533 13 83 17.2533 83 22.5C83 27.7467 87.2533 32 92.5 32Z" fill="#3ABF7C"/>
<rect x="120" y="633" width="255" height="42" rx="20" fill="#F69A66"/>
<rect x="120" y="705" width="924" height="42" rx="20" fill="#E1E5F0"/>
<rect x="120" y="777" width="492" height="42" rx="20" fill="#E1E5F0"/>
<rect x="780" y="538" width="264" height="42" rx="20" fill="#E1E5F0"/>
<rect x="697" y="613" width="56" height="56" rx="16" fill="#E1E5F0"/>
<rect x="697" y="531" width="56" height="56" rx="16" fill="#E1E5F0"/>
<rect x="780" y="620" width="264" height="42" rx="20" fill="#E1E5F0"/>
<path d="M1074.04 156H89.961C78.9368 156 70 164.954 70 176V468C70 479.046 78.9368 488 89.961 488H1074.04C1085.06 488 1094 479.046 1094 468V176C1094 164.954 1085.06 156 1074.04 156Z" fill="#F2F6FB"/>
<mask id="mask0_1038_3726" style="mask-type:alpha" maskUnits="userSpaceOnUse" x="70" y="156" width="1024" height="332">
<path d="M1074.04 156H89.961C78.9368 156 70 164.954 70 176V468C70 479.046 78.9368 488 89.961 488H1074.04C1085.06 488 1094 479.046 1094 468V176C1094 164.954 1085.06 156 1074.04 156Z" fill="white"/>
</mask>
<g mask="url(#mask0_1038_3726)">
<mask id="mask1_1038_3726" style="mask-type:alpha" maskUnits="userSpaceOnUse" x="70" y="156" width="1025" height="498">
<path d="M1089.01 156H75.9883C72.6811 156 70 158.482 70 161.544V648.456C70 651.518 72.6811 654 75.9883 654H1089.01C1092.32 654 1095 651.518 1095 648.456V161.544C1095 158.482 1092.32 156 1089.01 156Z" fill="white"/>
</mask>
<g mask="url(#mask1_1038_3726)">
<path d="M53.5458 705.221H1244.39V193.934C1216.41 272.488 1163.11 315.209 1105.71 315.209C1072.54 315.209 1038.02 300.959 1006.21 271.112C974.764 241.611 939.496 227.518 904.711 227.518C843.424 227.511 783.613 271.225 748.658 351.373C721.265 414.181 685.142 445.592 649.019 445.592C612.896 445.592 576.767 414.181 549.356 351.351C514.384 271.21 454.536 227.481 393.243 227.473C358.446 227.473 323.19 241.558 291.736 271.067C259.927 300.906 225.395 315.157 192.236 315.157C134.828 315.157 81.5236 272.443 53.5458 193.881V705.221Z" fill="#E4EAF1"/>
</g>
</g>
<mask id="mask2_1038_3726" style="mask-type:alpha" maskUnits="userSpaceOnUse" x="120" y="327" width="256" height="256">
<path d="M248 583C318.692 583 376 525.692 376 455C376 384.308 318.692 327 248 327C177.308 327 120 384.308 120 455C120 525.692 177.308 583 248 583Z" fill="white"/>
</mask>
<g mask="url(#mask2_1038_3726)">
<path d="M248 583C318.692 583 376 525.692 376 455C376 384.308 318.692 327 248 327C177.308 327 120 384.308 120 455C120 525.692 177.308 583 248 583Z" fill="#FEF3ED"/>
<path d="M356.191 620.411L311.357 620.146L310.436 567.36L346.068 562.455L348.731 574.072" fill="#BF865F"/>
<path d="M216.116 443.94C209.582 440.879 190.613 442.201 190.437 442.292C183.791 442.591 172.156 443.849 160.007 452.535C158.208 453.842 155.51 455.894 152.737 458.858C150.321 461.36 145.682 462.793 140.248 485.576C138.293 493.628 136.109 513.69 127.418 527.364C125.674 530.108 123.396 541.088 120.585 560.302C140.915 562.611 156.402 564.344 167.046 565.5C164.783 585.831 164.932 602.781 166.923 613.782C165.479 620.49 165.042 624.476 165.61 625.742C195.786 625.944 213.759 626.086 219.531 626.167C233.749 626.374 272.717 629.324 308.899 626.066C317.856 617.254 316.906 587.929 316.906 587.929C316.602 582.16 316.304 576.675 316.012 571.461C333.047 567.499 346.782 563.136 357.217 558.371C353.432 540.133 350.965 529.445 349.817 526.306C346.471 517.344 339.116 501.577 337.299 493.436C331.672 468.22 324.624 461.142 322.122 458.725C319.247 455.86 307.268 445.886 289.313 443.673C285.377 443.188 277.696 442.62 266.27 441.968C261.22 441.187 256.409 440.884 252.283 440.628C240.368 439.957 227.891 439.226 216.116 443.94Z" fill="#88807B"/>
<path fill-rule="evenodd" clip-rule="evenodd" d="M216.19 443.99C225.199 463.066 229.948 480.921 230.436 497.558C230.924 514.194 230.924 542.785 230.436 583.332L284.477 583C284.029 545.936 282.81 517.455 280.82 497.558C278.83 477.66 272.048 458.853 260.476 441.136C246.45 439.828 236.437 439.559 230.436 440.33C224.434 441.102 219.686 442.321 216.19 443.99Z" fill="white"/>
<path d="M226.203 415.07L224.7 445.002C224.689 445.666 224.95 446.335 225.492 446.629C227.834 448.188 231.174 449.955 235.348 450.977C242.877 452.911 249.367 451.696 253.031 450.621C253.763 450.444 254.323 449.695 254.336 448.936L255.018 431.292C259.764 433.152 259.5 432.969 259.966 433.133C265.679 434.691 270.601 434.594 271.515 434.428C274.799 434.212 278.308 431.54 281.486 426.948C285.785 420.828 289.688 411.237 291.894 399.704C292.287 398.071 292.406 396.433 292.526 394.795L293.175 378.496C293.33 374.854 292.481 371.286 290.809 367.885C290.106 366.415 289.398 365.218 288.504 364.2C283.13 357.051 275.195 354.465 268.785 353.637C265.374 353.14 262.258 353.106 260.014 353.31C259.193 353.386 256.272 353.7 252.077 353.9C249.796 354.042 247.975 354.011 246.88 354.083C233.298 354.392 227.952 352.659 221.057 356.183C219.771 356.798 216.827 358.387 214.221 361.531C206.868 370.423 208.395 382.113 208.79 385.582C210.248 395.995 216.149 402.476 217.924 405.149C220.044 408.396 223.645 412.384 226.203 415.07Z" fill="#DB9E75"/>
<path d="M181.39 573.431C181.197 574.161 181.633 574.909 182.362 575.102C183.092 575.294 183.84 574.859 184.033 574.129C187.19 562.176 197.297 525.967 199.454 519.259C199.686 518.541 199.29 517.771 198.572 517.54C197.854 517.309 197.084 517.704 196.853 518.422C194.675 525.19 184.56 561.433 181.39 573.431ZM320.719 575.466C320.929 576.19 321.688 576.607 322.412 576.397C323.137 576.186 323.554 575.428 323.343 574.703C319.893 562.831 309.907 526.588 308.302 519.727C308.13 518.992 307.395 518.536 306.66 518.708C305.925 518.88 305.469 519.615 305.641 520.35C307.26 527.272 317.256 563.549 320.719 575.466ZM255.179 431.349L242.737 426.094L254.472 445.892L255.179 431.349ZM282.501 396.072C282.565 397.622 282.794 400.177 283.689 401.104C285.213 402.497 287.297 397.978 286.162 395.133C285.727 393.941 285.093 393.748 284.362 393.826C283.266 393.989 282.52 394.979 282.501 396.072ZM266.201 395.514C266.082 397.061 266.038 399.611 266.93 400.72C268.269 402.292 270.896 397.965 270.036 395.034C269.692 393.843 269.059 393.559 268.331 393.546C267.237 393.527 266.311 394.422 266.201 395.514ZM273.342 414.409C274.248 414.698 277.147 415.659 278.173 414.311C278.638 413.772 279.308 411.961 279.308 411.961C279.308 411.961 276.935 412.193 274.023 411.96C272.385 411.841 271.298 411.457 270.923 412.088C270.828 412.269 270.915 412.544 270.911 412.726C271.167 413.733 272.708 414.215 273.342 414.409ZM281.046 405.851L279.857 396.144L279.95 390.833C279.959 390.33 279.558 389.915 279.055 389.907C278.552 389.898 278.137 390.299 278.128 390.802L278.034 396.176L278.041 396.302L279.24 406.096C279.243 406.114 279.158 406.217 279.156 406.221L278.861 406.239C277.365 406.327 276.448 406.353 274.85 406.325C274.347 406.317 273.932 406.717 273.923 407.22C273.915 407.723 274.315 408.138 274.818 408.147C276.468 408.176 277.43 408.149 278.969 408.057C279.116 408.049 279.116 408.049 279.344 408.032C280.385 407.877 281.199 406.882 281.046 405.851Z" fill="#482D1F"/>
<path d="M223.058 389.698C223.168 387.355 223.894 385.004 225.417 382.957C228.404 378.909 233.909 376.727 238.256 378.26C240.701 379.123 242.307 381.065 242.486 381.25C243.181 382.157 243.716 383.077 244.126 383.926C257.841 377.695 268.519 374.372 276.16 373.955C282.004 373.636 287.685 374.929 293.204 377.834C293.253 374.387 292.408 371.01 290.822 367.784C290.119 366.314 289.411 365.117 288.517 364.099C283.143 356.95 275.208 354.364 268.798 353.536C265.387 353.039 262.271 353.005 260.027 353.208C259.206 353.285 256.285 353.599 252.09 353.799C249.809 353.941 247.988 353.91 246.893 353.982C233.311 354.291 227.965 352.558 221.07 356.082C219.784 356.697 216.84 358.286 214.234 361.43C206.881 370.322 208.408 382.012 208.803 385.481C209.12 387.742 209.646 389.817 210.293 391.708C214.084 391.248 218.339 390.577 223.058 389.698ZM289.719 389.728C290.633 389.562 290.927 388.383 290.3 387.734C289.493 386.991 288.049 386.237 286.227 386.205C282.492 386.14 278.441 388.529 282.612 389.695C285.059 390.467 287.98 390.154 289.719 389.728ZM270.943 390.038C271.858 389.872 272.151 388.693 271.434 388.042C270.627 387.299 269.182 386.545 267.269 386.512C263.535 386.447 259.482 388.927 263.655 390.002C266.282 390.868 269.115 390.371 270.943 390.038Z" fill="#482D1F"/>
<path d="M223.317 387.89C222.854 390.552 223.283 393.466 224.454 395.823C225.875 398.794 227.92 400.436 230.576 401.718C231.029 401.937 231.219 402.482 231 402.935C230.781 403.388 230.237 403.578 229.784 403.359C228.616 402.795 227.69 402.254 226.623 401.397C225.051 400.135 223.745 398.562 222.816 396.622C221.48 393.93 220.992 390.622 221.522 387.577C221.609 387.081 222.08 386.75 222.576 386.836C223.072 386.922 223.404 387.394 223.317 387.89Z" fill="#482D1F"/>
</g>
<g filter="url(#filter0_d_1038_3726)">
<circle cx="152" cy="359" r="32" transform="rotate(-90 152 359)" fill="white"/>
</g>
<path d="M145.257 344C142.641 344 139.881 344.928 137.694 346.99C135.506 349.052 134 352.32 134 356.348C134 361.582 136.457 365.814 139.761 368.648C139.2 369.143 137.65 370.722 137.65 370.722C136.974 371.187 136.594 372.037 136.671 372.911C136.748 373.785 137.271 374.533 138.018 374.847C138.766 375.16 139.612 374.985 140.2 374.388C140.2 374.388 142.432 372.194 143.718 371.012C146.428 372.375 149.286 373.291 152.117 373.327C152.134 373.327 152.145 373.327 152.161 373.327C152.205 373.327 152.249 373.327 152.293 373.327C152.365 373.327 152.442 373.327 152.513 373.327C152.529 373.327 152.54 373.327 152.557 373.327C155.355 373.273 158.186 372.356 160.868 371.012C162.154 372.194 164.386 374.388 164.386 374.388C164.974 374.985 165.821 375.16 166.568 374.847C167.316 374.533 167.838 373.785 167.915 372.911C167.992 372.037 167.612 371.187 166.936 370.722C166.936 370.722 165.386 369.143 164.826 368.648C168.129 365.814 170.586 361.582 170.586 356.348C170.586 352.32 169.08 349.052 166.892 346.99C164.705 344.928 161.945 344 159.329 344C156.949 344 154.58 344.687 152.689 346.219C152.546 346.333 152.431 346.478 152.293 346.604C152.156 346.478 152.04 346.333 151.897 346.219C150.006 344.687 147.637 344 145.257 344ZM145.257 348.63C146.879 348.63 148.412 349.137 149.391 349.933C149.583 350.089 149.765 350.246 149.919 350.415C149.644 351.301 149.479 352.248 149.479 353.261C149.479 354.334 149.655 355.389 149.962 356.396C149.699 356.969 149.413 357.566 149.039 358.181C147.841 360.153 146.164 362.239 144.466 364.114C143.757 364.898 143.74 364.826 143.059 365.513C142.954 365.435 142.811 365.404 142.707 365.32C139.991 363.149 138.221 360.225 138.221 356.348C138.221 353.52 139.15 351.754 140.464 350.512C141.778 349.269 143.592 348.63 145.257 348.63ZM159.329 348.63C160.994 348.63 162.808 349.269 164.122 350.512C165.436 351.754 166.365 353.52 166.365 356.348C166.365 360.225 164.595 363.149 161.879 365.32C161.775 365.404 161.632 365.435 161.528 365.513C160.846 364.826 160.83 364.898 160.12 364.114C158.422 362.239 156.745 360.153 155.547 358.181C155.173 357.566 154.888 356.969 154.624 356.396C154.932 355.389 155.107 354.334 155.107 353.261C155.107 352.248 154.943 351.301 154.668 350.415C154.822 350.246 155.003 350.089 155.195 349.933C156.174 349.137 157.707 348.63 159.329 348.63ZM152.293 361.123C153.689 363.342 155.415 365.501 157.13 367.394C157.306 367.587 157.306 367.545 157.482 367.732C155.795 368.341 154.058 368.678 152.425 368.697C152.381 368.697 152.337 368.697 152.293 368.697C152.222 368.697 152.145 368.697 152.073 368.697C150.463 368.666 148.759 368.329 147.104 367.732C147.28 367.545 147.28 367.587 147.456 367.394C149.171 365.501 150.897 363.342 152.293 361.123Z" fill="#F69A66"/>
<rect y="44" width="1164" height="52" fill="#F2F6FB"/>
<path d="M70 64C70 58.4772 74.4772 54 80 54H92C97.5228 54 102 58.4772 102 64V76C102 81.5228 97.5228 86 92 86H80C74.4772 86 70 81.5228 70 76V64Z" fill="#508BFF"/>
<path d="M81.7245 67.1297H78.5125C78.3699 67.1297 78.2544 67.2453 78.2544 67.3878V77.7067C78.2544 77.8492 78.3699 77.9647 78.5125 77.9647H81.7245C81.867 77.9647 81.9825 77.8492 81.9825 77.7067V67.3878C81.9825 67.2453 81.867 67.1297 81.7245 67.1297Z" fill="white"/>
<path d="M80.1195 62C78.9508 62 78 62.9498 78 64.1172C78 65.2852 78.9508 66.2353 80.1195 66.2353C81.2873 66.2353 82.2374 65.2851 82.2374 64.1172C82.2374 62.9498 81.2873 62 80.1195 62Z" fill="white"/>
<path d="M89.8943 66.8733C88.6043 66.8733 87.6506 67.4279 87.0722 68.058V67.3878C87.0722 67.2453 86.9567 67.1298 86.8141 67.1298H83.738C83.5955 67.1298 83.48 67.2453 83.48 67.3878V77.7067C83.48 77.8492 83.5955 77.9647 83.738 77.9647H86.943C87.0856 77.9647 87.2011 77.8492 87.2011 77.7067V72.6012C87.2011 70.8808 87.6684 70.2106 88.8677 70.2106C90.1738 70.2106 90.2776 71.2851 90.2776 72.6897V77.7067C90.2776 77.8493 90.3931 77.9648 90.5357 77.9648H93.7419C93.8844 77.9648 93.9999 77.8493 93.9999 77.7067V72.0467C93.9999 69.4885 93.5121 66.8733 89.8943 66.8733Z" fill="white"/>
<path d="M122 64C122 58.4772 126.477 54 132 54H377C382.523 54 387 58.4772 387 64V76C387 81.5228 382.523 86 377 86H132C126.477 86 122 81.5228 122 76V64Z" fill="#E4EAF1"/>
<g filter="url(#filter1_d_1038_3726)">
<path d="M177.104 379.617C176.737 379.145 176.278 378.187 175.477 376.992C175.018 376.336 173.889 375.089 173.548 374.446C173.302 374.055 173.23 373.58 173.351 373.134C173.557 372.286 174.361 371.724 175.228 371.821C175.898 371.956 176.514 372.285 176.999 372.766C177.338 373.085 177.65 373.432 177.931 373.803C178.141 374.066 178.194 374.171 178.43 374.472C178.666 374.774 178.824 375.076 178.706 374.63C178.614 373.974 178.456 372.871 178.233 371.887C178.063 371.139 178.023 371.021 177.866 370.456C177.708 369.892 177.616 369.419 177.446 368.776C177.29 368.144 177.167 367.505 177.078 366.86C176.913 366.035 177.033 365.179 177.419 364.432C177.878 364.001 178.551 363.887 179.126 364.143C179.704 364.57 180.135 365.166 180.359 365.849C180.703 366.69 180.933 367.573 181.042 368.474C181.252 369.787 181.659 371.703 181.672 372.097C181.672 371.611 181.58 370.587 181.672 370.128C181.763 369.649 182.096 369.252 182.551 369.078C182.942 368.958 183.356 368.931 183.759 368.999C184.166 369.084 184.526 369.318 184.769 369.656C185.073 370.421 185.242 371.234 185.268 372.057C185.303 371.336 185.427 370.622 185.636 369.931C185.855 369.622 186.175 369.399 186.541 369.301C186.975 369.222 187.42 369.222 187.854 369.301C188.21 369.42 188.521 369.644 188.746 369.944C189.024 370.64 189.192 371.375 189.245 372.123C189.245 372.307 189.337 371.611 189.626 371.152C189.776 370.706 190.152 370.375 190.613 370.282C191.074 370.189 191.549 370.349 191.86 370.702C192.17 371.055 192.269 371.546 192.119 371.992C192.119 372.845 192.119 372.806 192.119 373.383C192.119 373.961 192.119 374.472 192.119 374.958C192.072 375.726 191.966 376.49 191.804 377.242C191.576 377.907 191.258 378.539 190.859 379.119C190.222 379.827 189.696 380.628 189.298 381.494C189.199 381.925 189.155 382.366 189.166 382.807C189.165 383.215 189.218 383.621 189.324 384.014C188.787 384.071 188.246 384.071 187.709 384.014C187.198 383.936 186.568 382.912 186.397 382.597C186.312 382.428 186.14 382.321 185.951 382.321C185.762 382.321 185.589 382.428 185.504 382.597C185.216 383.096 184.573 384.001 184.126 384.054C183.247 384.159 181.436 384.054 180.005 384.054C180.005 384.054 180.241 382.741 179.703 382.269C179.165 381.796 178.614 381.245 178.207 380.877L177.104 379.617Z" fill="white"/>
<path fill-rule="evenodd" clip-rule="evenodd" d="M177.104 379.617C176.737 379.145 176.278 378.187 175.477 376.992C175.018 376.336 173.889 375.089 173.548 374.446C173.302 374.055 173.23 373.58 173.351 373.134C173.557 372.286 174.361 371.724 175.228 371.821C175.898 371.956 176.514 372.285 176.999 372.766C177.338 373.085 177.65 373.432 177.931 373.803C178.141 374.066 178.194 374.171 178.43 374.472C178.666 374.774 178.824 375.076 178.706 374.63C178.614 373.974 178.456 372.871 178.233 371.887C178.063 371.139 178.023 371.021 177.866 370.456C177.708 369.892 177.616 369.419 177.446 368.776C177.29 368.144 177.167 367.505 177.078 366.86C176.913 366.035 177.033 365.179 177.419 364.432C177.878 364.001 178.551 363.887 179.126 364.143C179.704 364.57 180.135 365.166 180.359 365.849C180.703 366.69 180.933 367.573 181.042 368.474C181.252 369.787 181.659 371.703 181.672 372.097C181.672 371.611 181.58 370.587 181.672 370.128C181.763 369.649 182.096 369.252 182.551 369.078C182.942 368.958 183.356 368.931 183.759 368.999C184.166 369.084 184.526 369.318 184.769 369.656C185.073 370.421 185.242 371.234 185.268 372.057C185.303 371.336 185.427 370.622 185.636 369.931C185.855 369.622 186.175 369.399 186.541 369.301C186.975 369.222 187.42 369.222 187.854 369.301C188.21 369.42 188.521 369.644 188.746 369.944C189.024 370.64 189.192 371.375 189.245 372.123C189.245 372.307 189.337 371.611 189.626 371.152C189.776 370.706 190.152 370.375 190.613 370.282C191.074 370.189 191.549 370.349 191.86 370.702C192.17 371.055 192.269 371.546 192.119 371.992C192.119 372.845 192.119 372.806 192.119 373.383C192.119 373.961 192.119 374.472 192.119 374.958C192.072 375.726 191.966 376.49 191.804 377.242C191.576 377.907 191.258 378.539 190.859 379.119C190.222 379.827 189.696 380.628 189.298 381.494C189.199 381.925 189.155 382.366 189.166 382.807C189.165 383.215 189.218 383.621 189.324 384.014C188.787 384.071 188.246 384.071 187.709 384.014C187.198 383.936 186.568 382.912 186.397 382.597C186.312 382.428 186.14 382.321 185.951 382.321C185.762 382.321 185.589 382.428 185.504 382.597C185.216 383.096 184.573 384.001 184.126 384.054C183.247 384.159 181.436 384.054 180.005 384.054C180.005 384.054 180.241 382.741 179.703 382.269C179.165 381.796 178.614 381.245 178.207 380.877L177.104 379.617Z" stroke="black" stroke-width="0.75" stroke-linecap="round" stroke-linejoin="round"/>
<path d="M188.234 380.334V375.804C188.234 375.532 188.014 375.312 187.742 375.312C187.47 375.312 187.25 375.532 187.25 375.804V380.334C187.25 380.605 187.47 380.825 187.742 380.825C188.014 380.825 188.234 380.605 188.234 380.334Z" fill="black"/>
<path d="M185.636 380.332L185.609 375.8C185.608 375.529 185.386 375.311 185.114 375.312C184.843 375.314 184.623 375.535 184.625 375.805L184.651 380.338C184.653 380.608 184.874 380.827 185.146 380.825C185.418 380.823 185.637 380.603 185.636 380.332Z" fill="black"/>
<path d="M182 375.81L182.026 380.333C182.028 380.606 182.249 380.827 182.521 380.825C182.793 380.823 183.012 380.601 183.011 380.328L182.984 375.804C182.983 375.531 182.761 375.311 182.489 375.312C182.217 375.314 181.998 375.537 182 375.81Z" fill="black"/>
</g>
<defs>
<filter id="filter0_d_1038_3726" x="110" y="321" width="84" height="84" filterUnits="userSpaceOnUse" color-interpolation-filters="sRGB">
<feFlood flood-opacity="0" result="BackgroundImageFix"/>
<feColorMatrix in="SourceAlpha" type="matrix" values="0 0 0 0 0 0 0 0 0 0 0 0 0 0 0 0 0 0 127 0" result="hardAlpha"/>
<feOffset dy="4"/>
<feGaussianBlur stdDeviation="5"/>
<feComposite in2="hardAlpha" operator="out"/>
<feColorMatrix type="matrix" values="0 0 0 0 0 0 0 0 0 0 0 0 0 0 0 0 0 0 0.02 0"/>
<feBlend mode="normal" in2="BackgroundImageFix" result="effect1_dropShadow_1038_3726"/>
<feBlend mode="normal" in="SourceGraphic" in2="effect1_dropShadow_1038_3726" result="shape"/>
</filter>
<filter id="filter1_d_1038_3726" x="172.118" y="363.633" width="21.2449" height="22.6428" filterUnits="userSpaceOnUse" color-interpolation-filters="sRGB">
<feFlood flood-opacity="0" result="BackgroundImageFix"/>
<feColorMatrix in="SourceAlpha" type="matrix" values="0 0 0 0 0 0 0 0 0 0 0 0 0 0 0 0 0 0 127 0" result="hardAlpha"/>
<feOffset dy="1"/>
<feGaussianBlur stdDeviation="0.4"/>
<feColorMatrix type="matrix" values="0 0 0 0 0 0 0 0 0 0 0 0 0 0 0 0 0 0 0.5 0"/>
<feBlend mode="normal" in2="BackgroundImageFix" result="effect1_dropShadow_1038_3726"/>
<feBlend mode="normal" in="SourceGraphic" in2="effect1_dropShadow_1038_3726" result="shape"/>
</filter>
</defs>
</svg>
