<svg width="553" height="412" viewBox="0 0 553 412" fill="none" xmlns="http://www.w3.org/2000/svg">
<path d="M541 -3.05176e-05L11.9998 -8.12606e-06C5.37239 -7.85176e-06 -0.00018936 5.37257 -0.00019237 12L-0.000238691 114C-0.000241701 120.627 5.29313 126 11.9205 126H541.247C547.875 126 553 120.627 553 114V12C553 5.37255 547.627 -3.05176e-05 541 -3.05176e-05Z" fill="#F2F6FB"/>
<rect x="129" y="27" width="232" height="14" rx="7" fill="#E1E5F0"/>
<rect x="129" y="56" width="341" height="14" rx="7" fill="#E1E5F0"/>
<rect x="129" y="85" width="388" height="14" rx="7" fill="#E1E5F0"/>
<g clip-path="url(#clip0_1038_3587)">
<path d="M36 63C36 82.8823 52.1177 99 72 99C91.8823 99 108 82.8823 108 63C108 43.1178 91.8823 27 72 27C52.1177 27 36 43.1178 36 63Z" fill="#EEDDD4"/>
<path d="M56.796 65.3182C54.7971 65.0103 52.6894 65.071 50.5752 65.5598C42.163 67.4698 36.8243 75.3741 38.638 83.2075C39.5256 87.0371 41.9712 90.139 45.222 92.0758L42.7106 119.236C42.3461 123.525 43.4658 127.619 45.7006 130.922C46.0153 131.395 46.362 131.862 46.703 132.297C47.0817 132.759 47.4925 133.214 47.8976 133.638C48.3403 134.088 48.8151 134.533 49.3162 134.94L84.1881 128.801C84.3914 128.27 84.5947 127.739 84.7547 127.15C84.9261 126.624 85.0597 126.073 85.1613 125.527C85.2686 125.013 85.3381 124.472 85.4077 123.932C85.4228 123.83 85.4378 123.729 85.4529 123.627L88.9353 90.4419L95.6796 90.0056C96.2673 89.9681 96.7438 89.4882 96.7116 88.9327L96.6038 86.6412C96.5979 86.5389 96.576 86.4416 96.5407 86.3512C97.5113 85.4994 98.3672 84.5316 99.0482 83.4713C100.033 81.9447 100.69 80.2447 100.923 78.3882C101.867 71.0265 95.7139 64.4192 87.1956 63.6744C83.767 63.3745 80.4702 64.0622 77.6929 65.4709C76.2958 64.8257 74.8148 64.4006 73.2738 64.2463L65.8933 63.4002C62.5798 63.49 59.4935 64.1477 56.796 65.3182V65.3182Z" fill="#474961"/>
<path opacity="0.176986" d="M88.9958 90.4368L95.6906 90.0036C96.2783 89.9662 96.7547 89.4862 96.7226 88.9308L96.6148 86.6394C96.6089 86.537 96.587 86.4397 96.5516 86.3493C97.5222 85.4976 98.3781 84.5298 99.059 83.4696C100.044 81.943 100.701 80.243 100.934 78.3867C101.878 71.0252 95.7249 64.4181 87.2072 63.6733C83.7599 63.3718 80.4458 64.0687 77.6591 65.4933C85.0861 68.8659 90.1712 78.4627 89.3811 86.7654L88.9958 90.4368Z" fill="#444444"/>
<path d="M90.1591 64.6108C90.1591 64.6108 91.1976 66.9369 87.8441 66.834C84.4906 66.7311 83.5052 66.5745 83.5052 66.5745L83.9475 64.2188L90.1591 64.6108Z" fill="#482D1F"/>
<path d="M77.8828 60.2157C77.9933 60.2252 78.1027 60.2334 78.2108 60.2401L77.874 60.2506L77.8828 60.2157ZM68.3996 56.5601L67.5371 56.3773L64.845 63.7497L71.5861 64.6252L70.5798 95.4497C70.5798 95.4497 69.6686 93.3983 68.3036 89.6501C68.2731 89.6664 68.2416 89.6813 68.2089 89.6949L51.1968 96.7496C51.1252 96.7793 51.0521 96.8009 50.9786 96.8149C52.0353 99.178 53.221 102.035 54.4686 104.986C57.697 112.604 58.6358 116.234 62.4776 120.971C66.8658 126.371 69.9682 125.99 71.2642 126.224C74.1728 126.801 76.8663 126.161 78.4899 125.447C80.4392 124.595 84.0286 123.145 86.1774 116.834L85.4649 123.625C85.4498 123.726 85.4348 123.828 85.4197 123.93C85.3501 124.47 85.2805 125.01 85.1733 125.524C85.0717 126.07 84.938 126.622 84.7667 127.147C84.6067 127.736 84.4034 128.267 84.2001 128.798L80.0983 129.52L133.257 120.231C133.406 120.205 133.534 120.131 133.627 120.026C141.501 113.15 145.148 108.317 144.569 105.527C141.832 105.591 137.928 105.704 132.858 105.867C129.709 105.968 126.59 106.526 123.602 107.524L114.204 110.661C106.574 109.619 96.401 108.276 93.9025 108.176L94.9593 90.0506L88.9472 90.4396L87.8822 100.589C87.48 88.8641 84.9545 77.0173 84.3899 65.283L87.7735 64.7633C89.9003 65.214 94.3007 65.8256 94.2455 62.8978C94.2455 62.8978 88.3361 61.5946 84.1672 60.6121L83.8338 60.4068C83.538 60.2278 83.2912 60.1392 82.954 60.0996C82.8843 60.0788 82.8203 60.0901 82.7562 60.1014L81.1796 60.1479L80.9591 60.1547C81.4738 60.0897 81.8273 60.0142 81.9533 59.9787C84.5943 59.3157 86.8493 53.8687 87.0001 46.5477C87.0257 45.9491 86.9557 45.3673 86.9175 44.7799L86.1596 39.0051C85.9969 37.7134 85.5159 36.4779 84.7128 35.464C84.3732 35.0287 84.0393 34.6254 83.6904 34.3237C79.6297 30.4837 73.6642 32.0289 72.6042 32.3476C72.4768 32.37 72.3551 32.4245 72.2277 32.4469C71.0686 32.948 70.0028 33.2346 68.8508 33.4044C68.3413 33.4941 68.0009 33.9831 68.0595 34.5009L69.3487 42.7237C69.4526 43.4976 65.3074 42.709 65.3017 42.677C63.1883 41.5968 62.1903 49.595 63.3436 50.5472C64.18 51.1922 66.3466 51.933 66.9538 52.0241C67.3267 52.0905 67.6324 52.3337 67.7526 52.6426C67.8208 54.3023 68.0365 55.6081 68.3996 56.5601Z" fill="#DB9E75"/>
<path opacity="0.2" d="M94.9573 90.0666L88.9444 90.4556L85.4614 123.645C85.4463 123.747 85.4313 123.848 85.4162 123.95C85.3466 124.491 85.277 125.031 85.1697 125.545C85.0681 126.091 84.9345 126.643 84.7631 127.168C84.6031 127.757 84.3998 128.288 84.1964 128.819L80.094 129.542L133.26 120.251C133.409 120.225 133.537 120.151 133.631 120.047C141.505 113.169 145.153 108.336 144.574 105.546C141.836 105.609 137.932 105.722 132.862 105.885C129.712 105.986 126.593 106.544 123.604 107.542L114.205 110.68C106.574 109.637 96.3991 108.295 93.9003 108.195L94.9573 90.0666Z" fill="#8C2A00"/>
<path d="M55.9017 43.2298C52.2706 46.649 49.049 51.3011 50.2092 53.7941C51.127 55.8113 53.3747 56.5709 55.6601 57.357C57.5043 57.9827 60.8613 58.8627 65.3842 58.3749C65.3845 58.3782 65.3849 58.3816 65.3852 58.3849C66.4704 58.3589 67.5235 58.3386 68.6086 58.3126C69.1644 58.2808 69.6089 57.8064 69.5448 57.2565C69.1809 56.1322 68.8171 55.0079 68.4533 53.8835C68.2079 53.3339 67.9277 52.6342 67.698 51.872C67.1649 51.8387 65.9661 51.7093 64.9108 50.843C63.752 49.8916 62.9397 48.285 63.2917 46.5395C63.5909 44.8693 64.9772 43.3709 66.537 43.2284C67.413 43.1402 68.1705 43.502 68.2779 43.5491C69.0655 43.9529 69.7711 44.5707 70.1622 44.9468C71.5662 44.0967 73.6845 42.4366 75.1798 39.6272C75.5301 38.9934 75.908 38.0796 76.3134 36.8859C79.6312 37.0476 82.2786 36.3945 84.2557 34.9265C83.6226 34.1083 82.7401 33.4228 81.6081 32.8701C79.9101 32.0411 79.7207 31.9381 77.7277 31.7394C76.4803 31.6151 74.2137 31.9043 72.634 32.3509L72.5747 32.3613C70.7832 32.8748 69.2893 33.2038 68.2965 33.3786C63.4456 34.3315 61.4429 34.0239 59.1919 35.6745C58.7831 35.9776 57.8281 36.7399 57.0918 37.9919C56.0473 39.7613 55.8233 41.6372 55.9017 43.2298ZM86.8575 49.1317C86.4097 53.6694 85.402 55.4882 85.5662 55.4593C85.7303 55.4304 86.1966 55.5796 89.3311 54.0705C90.8852 53.3347 92.3433 52.6159 92.8159 51.1793C93.4805 49.1477 89.8439 45.8322 86.7652 43.7334C87.1002 45.6292 87.039 47.1142 86.8575 49.1317ZM86.4348 40.3415C86.7437 40.2211 86.8039 39.8143 86.5401 39.6297C86.2066 39.4243 85.6696 39.1888 85.0235 39.2695C83.6991 39.4366 82.3937 40.4587 83.8821 40.6588C84.8354 40.8211 85.8432 40.5446 86.4348 40.3415ZM80.3363 41.7184C80.6453 41.598 80.7055 41.1913 80.4097 41.0123C80.0762 40.8069 79.5392 40.5713 78.861 40.6577C77.5366 40.8248 76.2369 41.8789 77.7196 42.047C78.737 42.198 79.7128 41.9272 80.3363 41.7184Z" fill="#482D1F"/>
<path d="M85.4231 42.6142C85.5513 43.1558 85.8019 44.0333 86.2106 44.2999C86.8083 44.7053 87.2435 42.9557 86.6732 42.0559C86.4256 41.6616 86.1672 41.6171 85.9227 41.706C85.556 41.8394 85.3506 42.2254 85.4231 42.6142ZM79.9165 44.4088C80.0142 44.9614 80.2648 45.839 80.704 46.0945C81.3018 46.4999 81.7369 44.7502 81.1667 43.8504C80.9191 43.4561 80.6606 43.4117 80.4161 43.5006C80.0494 43.6339 79.844 44.02 79.9165 44.4088Z" fill="#482D1F"/>
<path d="M70.9641 95.5586C70.9943 95.291 70.8018 95.0495 70.5342 95.0191C70.2665 94.9888 70.025 95.181 69.9947 95.4486L68.7199 106.73C68.6897 106.998 68.8822 107.239 69.1498 107.27C69.4175 107.3 69.659 107.108 69.6893 106.84L70.9641 95.5586ZM48.3024 93.8582C48.3043 93.9162 48.3166 93.9747 48.3404 94.0313L49.3083 96.3344C49.6412 97.136 50.5647 97.5059 51.3681 97.1729C51.6169 97.0697 51.7349 96.7845 51.6316 96.5358C51.5283 96.287 51.2428 96.169 50.994 96.2721C50.6837 96.4007 50.3336 96.2605 50.2085 95.9591L49.3763 93.979C49.4538 93.9187 49.5138 93.8346 49.5439 93.7334C49.6206 93.4753 49.4735 93.2038 49.2152 93.127C47.727 92.6842 46.296 92.0078 45.0266 91.1465C44.8037 90.9952 44.5004 91.0532 44.3492 91.2759C44.1979 91.4987 44.2561 91.8019 44.479 91.9532C45.6497 92.7476 46.9475 93.3934 48.3024 93.8582ZM67.3332 86.0992C67.3389 86.1203 67.3461 86.1413 67.3548 86.162L68.3227 88.4651C68.4516 88.7754 68.3115 89.1252 68.0119 89.2494C67.7631 89.3525 67.6452 89.6377 67.7485 89.8865C67.8518 90.1352 68.1372 90.2533 68.386 90.1501C69.1878 89.8178 69.5573 88.895 69.2229 88.0898L68.2542 85.7848C68.2166 85.6955 68.1556 85.6232 68.0812 85.572C68.3779 85.0493 68.5916 84.5987 68.7571 84.1505C68.9056 83.7481 69.0177 83.3426 69.1239 82.8417C69.1963 82.5005 69.238 82.2725 69.384 81.4416C69.4306 81.1764 69.2533 80.9236 68.988 80.8768C68.7227 80.8301 68.4698 81.0072 68.4232 81.2724C68.2795 82.0901 68.2386 82.3136 68.1696 82.639C68.0725 83.0969 67.9726 83.4582 67.8418 83.8125C67.6668 84.2866 67.4265 84.7725 67.0614 85.3845C66.9235 85.6158 66.9993 85.9151 67.2307 86.053C67.2637 86.0727 67.2981 86.0881 67.3332 86.0992ZM75.5446 60.0585C76.8255 60.3941 77.8006 61.2152 79.6818 61.0747C81.217 61.1675 82.3923 60.5316 82.9762 60.0987C82.9065 60.078 82.8424 60.0892 82.7784 60.1005L81.2018 60.147C80.4653 60.2767 79.2592 60.357 77.8144 60.2152L75.5446 60.0585Z" fill="#482D1F"/>
<path d="M82.7398 52.3218C82.5043 52.2972 81.9259 52.2009 81.7675 51.8657C81.7562 51.8016 81.7072 51.7112 81.7279 51.6415C81.8221 51.4269 82.2554 51.4496 82.8432 51.4122C83.8851 51.3278 84.7009 51.0852 84.7009 51.0852C84.7009 51.0852 84.5578 51.7706 84.426 51.9589C84.1642 52.5332 83.0827 52.3935 82.7398 52.3218Z" fill="#482D1F"/>
<path d="M84.0816 45.8921L84.0715 45.8459L84.0782 45.8687L84.0816 45.8921ZM85.0608 49.2031L85.0691 49.2385C85.1309 49.5878 84.9491 49.9543 84.6108 50.0737C84.548 50.0912 84.5127 50.1 84.4773 50.1086C84.1426 50.1903 83.9002 50.2363 83.028 50.3899C82.8512 50.421 82.6826 50.303 82.6513 50.1262C82.6201 49.9494 82.7381 49.7809 82.9149 49.7498C83.7716 49.5989 84.0073 49.5541 84.3229 49.4771C84.3558 49.4691 84.3885 49.4609 84.4215 49.4525C84.4143 49.4538 84.4345 49.4119 84.4305 49.3639L83.4479 46.0293L83.4378 45.9831L83.1682 44.0834C83.143 43.9057 83.2666 43.7412 83.4444 43.7161C83.6221 43.691 83.7867 43.8147 83.8119 43.9924L84.0782 45.8687L85.0608 49.2031Z" fill="#482D1F"/>
</g>
<path d="M541 286L12.0001 286C5.37264 286 5.47806e-05 291.373 5.17709e-05 298L5.44957e-06 400C2.43986e-06 406.627 5.29338 412 11.9208 412H541.248C547.875 412 553 406.627 553 400V298C553 291.373 547.628 286 541 286Z" fill="#F2F6FB"/>
<rect x="129" y="313" width="222" height="14" rx="7" fill="#E1E5F0"/>
<rect x="129" y="342" width="388" height="14" rx="7" fill="#E1E5F0"/>
<rect x="129" y="371" width="359" height="14" rx="7" fill="#E1E5F0"/>
<g clip-path="url(#clip1_1038_3587)">
<path d="M36 349C36 368.882 52.1177 385 72 385C91.8823 385 108 368.882 108 349C108 329.118 91.8823 313 72 313C52.1177 313 36 329.118 36 349Z" fill="#EEDDD4"/>
<g clip-path="url(#clip2_1038_3587)">
<path d="M99.8348 403.485C102.796 403.17 107.022 402.744 112.513 402.206C113.826 402.044 115.072 400.672 114.987 399.245C115.254 395.779 112.944 388.923 112.441 387.471C111.291 384.22 109.22 377.948 108.464 375.058C106.361 366.881 103.764 363.827 102.877 362.94C101.858 361.889 100.872 361.167 100.215 360.707C95.7775 357.653 91.0775 357.193 88.6782 357.127C88.6124 357.094 88.5467 357.094 88.481 357.094L83.107 357.019C80.3109 356.368 77.564 356.159 75.323 355.991C72.0432 355.762 68.6572 355.521 65.3172 355.948L56.1725 356.076C56.1068 356.076 56.041 356.076 55.9753 356.109C53.576 356.175 48.876 356.635 44.4389 359.689C43.7816 360.149 42.7956 360.871 41.7767 361.922C40.8893 362.809 38.2928 365.863 36.1893 374.04C35.4333 376.93 33.3627 383.202 32.2123 386.453C31.8556 387.483 31.0927 390.807 29.9238 396.425C29.8258 396.576 29.7571 396.74 29.7236 396.915C29.6998 397.064 29.7032 397.211 29.731 397.354C29.6684 397.657 29.6047 397.966 29.5399 398.281C29.8089 398.286 30.077 398.292 30.344 398.298C30.7168 398.597 31.2286 398.807 31.8115 398.865L40.7275 399.809C39.2886 408.7 39.1195 416.156 39.9254 420.818C39.9254 420.922 39.9619 421.059 39.9984 421.162C40.1808 422.229 96.9264 423.502 97.3278 423.124C100.977 419.855 100.174 412.044 100.174 412.044C100.06 408.984 99.9467 406.135 99.8348 403.485Z" fill="#8D6047"/>
<path d="M78.0291 364.332L72.6158 361.101L68.9308 364.979L68.9349 365.013C69.0283 365.789 69.5602 366.404 70.2526 366.642L70.7503 400.411C70.7517 400.504 70.7926 400.593 70.8628 400.654L76.0148 405.148C76.1501 405.266 76.3552 405.253 76.4753 405.12L81.1431 399.937C81.2073 399.866 81.2371 399.77 81.2246 399.675L76.7886 365.964C77.4719 365.697 77.9542 365.064 78.0291 364.332Z" fill="#F69A66"/>
<path opacity="0.176986" d="M72.0332 355.515C73.9104 355.849 80.8345 355.927 81.0319 358.181C81.1635 359.684 81.0927 362.29 80.8193 365.998L72.6156 361.101L66.5858 367.447C63.0568 361.815 62.493 358.299 64.8944 356.899C68.4965 354.798 70.1561 355.182 72.0332 355.515Z" fill="#8C2A00"/>
<path d="M65.6262 348.446L67.2391 358.565C67.283 358.791 67.4237 358.998 67.6361 359.057C68.5753 359.41 69.882 359.758 71.4288 359.792C74.2258 359.885 76.4287 358.989 77.644 358.351C77.8895 358.237 78.0329 357.941 77.9828 357.683L77.0082 352.008C78.8312 352.31 78.7239 352.265 78.9007 352.288C81.0336 352.409 82.7633 352.006 83.0734 351.879C84.216 351.557 85.2539 350.352 86.031 348.495C87.0887 346.014 87.7467 342.34 87.66 338.109C87.6762 337.503 87.5956 336.917 87.515 336.33L86.5214 330.535C86.3028 329.239 85.7356 328.045 84.8906 326.971C84.5321 326.505 84.1925 326.136 83.8009 325.844C81.3682 323.726 78.3742 323.409 76.0499 323.598C74.8089 323.678 73.707 323.9 72.9303 324.14C72.6462 324.228 71.6389 324.558 70.1736 324.943C69.3795 325.164 68.7343 325.289 68.3534 325.397C63.5838 326.524 61.5673 326.313 59.3985 328.072C58.9907 328.386 58.0711 329.167 57.3872 330.47C55.4593 334.157 56.875 338.164 57.2747 339.358C58.5703 342.92 61.1387 344.763 61.9659 345.572C62.9559 346.557 64.5224 347.691 65.6262 348.446ZM113.197 415.573L111.377 402.305L103.167 403.096L99.6915 403.479L99.9019 411.026C98.5559 410.822 97.3429 410.752 96.2628 410.814C88.3341 408.941 65.2944 403.597 52.2336 401.601L52.3034 400.945L31.5817 398.751C30.9988 398.693 30.487 398.483 30.1142 398.184C29.9988 398.181 29.8833 398.179 29.7675 398.176C28.5039 408.007 29.5198 420.303 41.2978 423.744H94.3841C94.3796 423.76 94.3748 423.776 94.3696 423.791H118.725C118.859 420.587 117.017 417.848 113.197 415.573Z" fill="#DB9E75"/>
<path d="M51.5175 401.015C51.4617 401.281 51.6324 401.542 51.8989 401.598C52.1654 401.654 52.4267 401.483 52.4825 401.217C53.0004 398.747 55.0346 390.521 56.9462 382.961C57.0129 382.698 56.853 382.43 56.589 382.363C56.325 382.297 56.0569 382.456 55.9902 382.72C54.073 390.302 52.0396 398.525 51.5175 401.015ZM99.3035 403.095C99.3469 403.364 99.6 403.546 99.8688 403.503C100.138 403.459 100.32 403.207 100.277 402.938C99.8748 400.447 98.8234 392.039 97.8966 384.297C97.8642 384.027 97.6188 383.834 97.3485 383.866C97.0781 383.899 96.8852 384.144 96.9175 384.414C97.8471 392.179 98.8981 400.584 99.3035 403.095Z" fill="#482D1F"/>
<path d="M77.0812 352.035L72.0766 350.902L77.5339 354.923L77.0812 352.035Z" fill="#482D1F"/>
<path d="M84.6906 338.887C84.8295 339.428 85.1019 340.312 85.4872 340.572C86.1298 340.949 86.526 339.199 85.9122 338.281C85.6693 337.894 85.431 337.873 85.1791 337.955C84.8045 338.095 84.6154 338.5 84.6906 338.887ZM78.8967 339.912C78.971 340.466 79.1466 341.368 79.5445 341.693C80.1351 342.147 80.7374 340.424 80.2141 339.455C80.0035 339.061 79.7589 339.008 79.5008 339.058C79.1136 339.133 78.8537 339.518 78.8967 339.912Z" fill="#482D1F"/>
<path d="M82.2174 344.684C81.979 344.663 81.3991 344.609 81.2334 344.273C81.2208 344.209 81.1697 344.118 81.1895 344.047C81.2746 343.797 81.6869 343.85 82.2739 343.77C83.3188 343.634 84.1389 343.374 84.1389 343.374C84.1389 343.374 84.0385 344.063 83.9148 344.287C83.6539 344.84 82.5588 344.718 82.2174 344.684Z" fill="#482D1F"/>
<path d="M83.1508 337.779L83.139 337.734L83.1464 337.756L83.1508 337.779ZM84.2939 341.09C84.4254 341.441 84.2128 341.853 83.8569 341.986C83.7779 342.009 83.7779 342.009 83.7265 342.023C83.1903 342.171 82.8529 342.252 82.2687 342.366C82.0905 342.4 81.9179 342.284 81.8833 342.106C81.8487 341.928 81.965 341.756 82.1432 341.721C82.7091 341.611 83.0308 341.533 83.5519 341.39L83.6548 341.362C83.6554 341.36 83.6774 341.317 83.6752 341.311L82.5174 337.948L82.5055 337.904L82.1355 336.002C82.1009 335.824 82.2173 335.652 82.3954 335.617C82.5736 335.582 82.7461 335.699 82.7808 335.877L83.1464 337.756L84.2939 341.09Z" fill="#482D1F"/>
<path d="M62.5745 339.083C62.6106 340.056 62.9808 341.052 63.5708 341.795C64.2951 342.736 65.1398 343.162 66.1732 343.415C66.3495 343.458 66.4574 343.636 66.4141 343.812C66.3709 343.988 66.1929 344.096 66.0166 344.053C65.5623 343.942 65.1952 343.82 64.7543 343.598C64.1049 343.271 63.5259 342.814 63.0527 342.199C62.3791 341.351 61.9589 340.221 61.9176 339.107C61.9109 338.926 62.0525 338.774 62.2339 338.767C62.4153 338.76 62.5678 338.902 62.5745 339.083Z" fill="#482D1F"/>
<path d="M62.5568 338.971C62.5585 338.375 62.6784 337.769 62.9461 337.186C63.6963 335.535 65.4753 334.353 67.1243 334.568C68.0518 334.689 68.7643 335.253 68.8413 335.305C69.1489 335.568 69.403 335.847 69.6092 336.111L86.7129 331.495C86.336 327.786 84.4552 325.327 81.0707 324.118C80.1563 323.792 77.6917 323.311 75.5455 323.589C72.2327 324.018 69.0485 324.929 68.1538 325.17C67.4242 325.379 66.18 325.504 65.8438 325.603C62.1898 325.951 59.4211 327.57 58.4724 328.416C58.1167 328.719 57.2877 329.483 56.708 330.766C54.8896 334.665 56.298 338.708 56.7715 339.619C57.103 340.257 57.5619 340.637 57.5619 340.637C58.9289 340.3 60.5939 339.744 62.5568 338.971ZM86.3733 335.549C86.6834 335.422 86.6986 334.984 86.4289 334.802C86.0884 334.601 85.522 334.443 84.8767 334.568C83.5539 334.825 82.3037 335.971 83.863 336.07C84.7843 336.159 85.7916 335.829 86.3733 335.549ZM79.7709 337.065C80.081 336.938 80.0963 336.5 79.7943 336.325C79.4538 336.123 78.8874 335.966 78.2098 336.097C76.887 336.354 75.6431 337.532 77.1962 337.599C78.1882 337.707 79.1508 337.32 79.7709 337.065Z" fill="#482D1F"/>
</g>
</g>
<path d="M541 143L12.0001 143C5.37264 143 5.47806e-05 148.373 5.17709e-05 155L5.44957e-06 257C2.43986e-06 263.627 5.29338 269 11.9208 269H541.248C547.875 269 553 263.627 553 257V155C553 148.373 547.628 143 541 143Z" fill="#F2F6FB"/>
<rect x="129" y="170" width="260" height="14" rx="7" fill="#E1E5F0"/>
<rect x="129" y="199" width="351" height="14" rx="7" fill="#E1E5F0"/>
<rect x="129" y="228" width="372" height="14" rx="7" fill="#E1E5F0"/>
<g clip-path="url(#clip3_1038_3587)">
<path d="M72 242C52.1178 242 36 225.882 36 206C36 186.118 52.1178 170 72 170C91.8823 170 108 186.118 108 206C108 225.882 91.8823 242 72 242Z" fill="#88807B"/>
<g clip-path="url(#clip4_1038_3587)">
<path d="M64.6483 209.192C62.0767 209.239 58.0302 209.726 54.0327 212.047C53.3436 212.44 52.3264 213.095 51.2108 214.045C50.2592 214.864 47.4702 217.583 44.8123 225.249C43.8608 227.936 41.0717 233.177 39.4638 236.06C38.9388 237.01 39.5623 238.189 40.6779 238.288C44.1946 238.54 48.5325 239.982 52.6314 239.99C52.2939 246.118 52.0559 253.428 51.9655 261.58C51.9655 261.58 51.4405 271.283 54.4593 274.428C54.9818 274.981 64.7846 274.405 75.1969 274.736C86.3627 275.09 98.2576 276.24 101.025 273.341C105.501 268.653 102.942 267.384 98.8346 240.679C99.4779 240.745 100.077 240.803 100.611 240.852C104.759 241.246 113.449 240.983 117.631 240.819C118.741 240.786 119.46 239.539 119.003 238.488C117.631 235.303 115.213 229.557 114.494 226.634C112.436 218.294 109.856 215.241 108.974 214.321C107.961 213.271 106.945 212.556 106.327 212.056C104.259 210.38 97.7365 209.17 86.7595 208.428C82.0286 206.818 76.6266 207.28 73.1297 207.592C70.6847 207.813 67.6017 208.088 64.6483 209.192Z" fill="#F69A66"/>
<path opacity="0.176986" d="M64.5408 209.202C61.9568 209.286 58.0819 209.829 54.2519 212.055C53.5617 212.449 52.5428 213.106 51.4253 214.058C50.4722 214.879 47.6785 217.605 45.0162 225.289C44.0631 227.982 41.0723 233.165 39.4618 236.055C38.9359 237.007 39.5604 238.189 40.6779 238.288C41.7048 238.362 42.8614 238.576 43.9608 238.757C44.3963 238.829 45.5988 238.969 46.1345 239.082C48.7249 239.628 50.2342 239.99 52.6488 239.99C52.6612 239.99 52.6736 239.99 52.6859 239.99C53.2063 230.54 53.9624 223.895 54.7789 221.288C55.3377 219.515 56.1478 217.479 56.1478 217.479C56.5422 216.33 57.1782 215.147 58.4601 213.538C60.1879 211.394 62.3233 210.059 64.5408 209.202V209.202ZM72.277 212.703C72.8686 216.184 73.9532 217.212 73.9532 217.212C76.4511 215.767 85.3581 211.258 84.5364 208.795C84.4707 208.631 84.3392 208.303 83.4847 207.777C80.2637 205.807 76.3197 206.759 74.9392 207.153C74.9392 207.153 68.5959 206.431 67.3798 210.142C66.1637 213.852 67.6098 216.48 67.6098 216.48C68.6616 215.845 70.2173 214.586 72.277 212.703Z" fill="#444444"/>
<path d="M52.0063 266.458L52.6488 239.99L43.9403 238.757L41.2791 271.213C41.0509 271.332 40.8293 271.448 40.6144 271.563C38.731 272.572 37.1701 274.408 35.9315 277.072C35.869 277.206 35.8377 277.353 35.8398 277.501C35.8477 278.045 36.2955 278.48 36.84 278.472L106.054 277.471C122.577 274.198 118.082 251.804 114.847 240.924C110.306 241.066 103.892 241.179 100.497 240.859C97.2904 240.568 91.7207 239.925 88.4457 239.435L94.3184 257.016C78.5477 257.798 63.0609 262.187 52.0063 266.458ZM70.4399 205.016L70.5883 211.073C76.8756 213.39 81.3359 209.826 81.3359 209.826C81.3359 209.826 81.0999 205.311 80.6279 196.281C80.7042 196.118 80.7784 195.945 80.8502 195.762C81.4418 194.284 83.5711 189.432 83.111 187.758C83.0267 187.404 84.7829 182.14 82.211 179.486C79.7685 176.964 72.9968 177.036 72.7247 177.052C71.5743 177.084 70.424 177.052 69.175 176.789C69.0435 176.789 68.9121 176.756 68.7806 176.756C67.6631 176.657 61.3855 176.362 58.1645 181.025C57.8687 181.419 57.6058 181.846 57.3757 182.372C56.8827 183.587 56.6526 184.9 56.7512 186.214L57.2114 192.059C57.2771 192.65 57.3757 193.242 57.5072 193.8C58.4603 197.938 60.0051 201.32 61.6484 203.455C62.8645 205.064 64.1792 205.983 65.3296 206.016C65.6582 206.049 67.4331 206.016 69.5037 205.392C69.6385 205.347 69.6044 205.379 70.4399 205.016Z" fill="#F2A98A"/>
<path d="M87.6216 239.381C87.7302 239.63 88.0206 239.744 88.2703 239.636C88.52 239.527 88.6344 239.237 88.5259 238.988C87.8896 237.525 87.6338 236.708 87.1409 234.574C87.0796 234.309 86.8149 234.144 86.5496 234.205C86.2843 234.266 86.1189 234.531 86.1801 234.796C86.6857 236.985 86.959 237.858 87.6216 239.381ZM93.9704 256.329C93.6993 256.303 93.4589 256.502 93.4333 256.773C93.4077 257.044 93.6067 257.284 93.8778 257.309C93.9418 257.315 94.0671 257.33 94.2449 257.353C94.544 257.393 94.8779 257.446 95.2379 257.513C96.2654 257.704 97.2922 257.971 98.2461 258.324C98.8092 258.533 99.33 258.766 99.7998 259.024C100.038 259.155 100.338 259.068 100.469 258.83C100.601 258.591 100.514 258.292 100.275 258.161C99.76 257.878 99.1953 257.625 98.5887 257.4C97.5768 257.026 96.4974 256.745 95.4186 256.545C95.0414 256.474 94.6909 256.419 94.3756 256.377C94.2647 256.362 94.1659 256.35 94.0803 256.34C94.0279 256.334 93.9909 256.33 93.9704 256.329Z" fill="#482D1F"/>
<path opacity="0.2" d="M41.3361 271.247C44.0488 269.83 47.7106 268.164 52.0657 266.477L52.7086 239.99L44.0001 238.757L41.3361 271.247Z" fill="#8C2A00"/>
<path d="M70.4306 205.025L70.5226 208.38L75.0604 202.94C74.9958 202.971 74.9294 203.004 74.8611 203.037C74.2038 203.365 73.3821 203.727 72.3303 204.186C71.4089 204.597 70.8175 204.857 70.4306 205.025Z" fill="#482D1F"/>
<path d="M74.0757 189.407L74.1051 188.775C74.1051 188.775 74.2365 187.593 75.0582 186.411C75.124 186.345 75.6827 185.623 76.5373 185.261C78.082 184.67 80.1198 185.36 81.2373 186.772C82.4205 188.217 82.4205 190.155 81.796 191.632C81.1715 193.11 79.9554 193.8 79.5282 193.997L77.6219 194.588L77.6136 194.584C79.2795 197.025 80.73 199.152 80.73 199.152C80.73 199.152 83.4722 196.624 84.6883 194.621C85.2799 193.636 87.3834 191.238 87.745 187.462C87.8436 186.214 88.238 181.977 85.4114 178.858C84.4254 177.774 83.3079 177.249 82.8478 177.019C80.2512 175.869 78.3449 176.559 73.3491 176.657C72.9547 176.657 72.2974 176.69 71.4428 176.657C69.8981 176.625 68.8135 176.559 68.5177 176.559C66.0526 176.46 60.6953 177.216 58.3288 180.861C58.1974 181.124 58.033 181.353 57.9016 181.551C58.5918 181.78 59.3477 182.207 60.268 182.372C62.7659 182.766 64.9023 182.273 66.1841 181.813C68.682 184.178 71.2128 186.509 73.7107 188.874C73.8249 189.04 73.9469 189.219 74.0757 189.407Z" fill="#332117"/>
<path d="M59.1092 193.086C59.0106 192.692 58.6162 192.397 58.2218 192.462C57.9588 192.495 57.7616 192.692 57.663 193.152C57.5644 194.301 58.8134 195.746 59.1749 195.057C59.405 194.597 59.2078 193.645 59.1092 193.086ZM66.0527 192.191C65.9541 191.796 65.5597 191.501 65.1653 191.567C64.9024 191.599 64.7052 191.796 64.6065 192.256C64.5079 193.406 65.7569 194.851 66.1184 194.161C66.3814 193.701 66.1842 192.749 66.0527 192.191Z" fill="#482D1F"/>
<path d="M61.3526 193.31L61.3198 196.594C61.3198 196.607 61.3698 196.657 61.3855 196.657C61.5653 196.657 61.7491 196.645 62.0359 196.617C62.0915 196.612 62.1498 196.606 62.2337 196.597C62.3393 196.587 62.3972 196.581 62.4526 196.575C62.6424 196.556 62.7996 196.541 62.9675 196.527C63.1484 196.511 63.3077 196.645 63.3235 196.825C63.3392 197.006 63.2053 197.165 63.0245 197.181C62.8599 197.195 62.7055 197.21 62.5185 197.229C62.4635 197.234 62.406 197.24 62.3001 197.251C62.2153 197.259 62.1561 197.265 62.0992 197.271C61.7931 197.3 61.5908 197.313 61.3855 197.313C61.0068 197.313 60.6624 196.969 60.6624 196.591L60.6953 193.304C60.6971 193.122 60.8458 192.977 61.0273 192.979C61.2088 192.98 61.3545 193.129 61.3526 193.31Z" fill="#482D1F"/>
<path d="M63.6535 199.054C63.8836 198.956 64.4423 198.693 64.4752 198.364C64.4752 198.299 64.508 198.2 64.4423 198.167C64.278 198.003 63.8836 198.167 63.292 198.332C62.2402 198.594 61.3857 198.66 61.3857 198.66C61.3857 198.66 61.7143 199.185 61.9115 199.317C62.3059 199.678 63.3248 199.218 63.6535 199.054Z" fill="#482D1F"/>
<path d="M62.1946 193.67C62.719 195.672 64.5419 197.149 66.71 197.149C69.2876 197.149 71.3772 195.062 71.3772 192.486C71.3772 191.915 71.2745 191.368 71.0865 190.863L73.6919 189.741C73.952 189.661 74.0972 189.385 74.0164 189.125C73.9356 188.865 73.6593 188.72 73.3993 188.801L70.6492 189.984C69.8208 188.685 68.3661 187.823 66.71 187.823C64.1325 187.823 62.0429 189.911 62.0429 192.486C62.0429 192.556 62.0444 192.626 62.0475 192.695L61.0223 192.801C60.577 190.689 58.7016 189.104 56.4555 189.104C53.8779 189.104 51.7883 191.191 51.7883 193.767C51.7883 196.342 53.8779 198.43 56.4555 198.43C59.0284 198.43 61.1151 196.35 61.1226 193.781L62.1946 193.67ZM70.0477 190.933C70.2681 191.405 70.3912 191.931 70.3912 192.486C70.3912 194.517 68.7431 196.164 66.71 196.164C64.677 196.164 63.0289 194.517 63.0289 192.486C63.0289 190.455 64.677 188.808 66.71 188.808C68.1059 188.808 69.3204 189.584 69.9444 190.729C69.947 190.739 69.9499 190.75 69.9532 190.76C69.9735 190.826 70.0061 190.884 70.0477 190.933ZM60.1261 193.487C60.1331 193.579 60.1366 193.673 60.1366 193.767C60.1366 195.798 58.4885 197.445 56.4555 197.445C54.4225 197.445 52.7744 195.798 52.7744 193.767C52.7744 191.736 54.4225 190.089 56.4555 190.089C58.3271 190.089 59.8725 191.484 60.1061 193.291C60.1029 193.324 60.1029 193.357 60.1064 193.391C60.1098 193.424 60.1165 193.456 60.1261 193.487Z" fill="#482D1F"/>
</g>
</g>
<defs>
<clipPath id="clip0_1038_3587">
<rect x="36" y="27" width="72" height="72" rx="36" fill="white"/>
</clipPath>
<clipPath id="clip1_1038_3587">
<rect x="36" y="313" width="72" height="72" rx="36" fill="white"/>
</clipPath>
<clipPath id="clip2_1038_3587">
<rect width="171.567" height="248.268" fill="white" transform="matrix(-1 0 0 1 200.584 295.06)"/>
</clipPath>
<clipPath id="clip3_1038_3587">
<rect x="36" y="170" width="72" height="72" rx="36" fill="white"/>
</clipPath>
<clipPath id="clip4_1038_3587">
<rect width="171.567" height="248.268" fill="white" transform="matrix(-1 0 0 1 145.723 152.06)"/>
</clipPath>
</defs>
</svg>
